<?xml version="1.0" encoding="utf-8"?>
<!-- Generator: Adobe Illustrator 26.0.1, SVG Export Plug-In . SVG Version: 6.00 Build 0)  -->
<svg version="1.1" id="Layer_1" xmlns="http://www.w3.org/2000/svg" xmlns:xlink="http://www.w3.org/1999/xlink" x="0px" y="0px"
	 viewBox="0 0 330 330" style="enable-background:new 0 0 330 330;" xml:space="preserve">
<style type="text/css">
	.st0{fill:#0054D1;}
	.st1{fill:#00F0EB;}
	.st2{fill:url(#SVGID_1_);}
	.st3{fill:url(#SVGID_00000004503911874524281880000007774618190799829694_);}
	.st4{fill:url(#SVGID_00000103235284842783287600000007878507981124404900_);}
	.st5{fill:url(#SVGID_00000004544231493777094020000002916895768799095943_);}
</style>
<path class="st0" d="M-87.5,683.9c0-25.9,21-46.9,46.8-46.9c25.9,0,46.8,21,46.8,46.9v93.8c0,25.9-21,46.9-46.8,46.9
	c-25.9,0-46.8-21-46.8-46.9V683.9z"/>
<path class="st0" d="M24.9,796.4c0-25.9,21-46.9,46.8-46.9s46.8,21,46.8,46.9v93.8c0,25.9-21,46.9-46.8,46.9s-46.8-21-46.8-46.9
	C24.9,890.2,24.9,796.4,24.9,796.4z"/>
<path class="st1" d="M118.5,683.9c0,25.9-21,46.9-46.8,46.9s-46.8-21-46.8-46.9s21-46.9,46.8-46.9S118.5,658,118.5,683.9z"/>
<path class="st1" d="M6.1,890.1c0,25.9-21,46.9-46.8,46.9c-25.9,0-46.8-21-46.8-46.9s21-46.9,46.8-46.9
	C-14.8,843.2,6.1,864.2,6.1,890.1z"/>
<g>
	<linearGradient id="SVGID_1_" gradientUnits="userSpaceOnUse" x1="19.702" y1="-59.6094" x2="228.702" y2="335.3906">
		<stop  offset="0.4368" style="stop-color:#FF9B2A"/>
		<stop  offset="1" style="stop-color:#15FBFF"/>
	</linearGradient>
	<path class="st2" d="M108.8,15C83,15,62,36,62,61.9v93.8c0,25.9,21,46.9,46.8,46.9c25.9,0,46.8-21,46.8-46.9V61.9
		C155.6,36,134.7,15,108.8,15z"/>
	
		<linearGradient id="SVGID_00000052810905042183112150000006555603216471826062_" gradientUnits="userSpaceOnUse" x1="168.8344" y1="-123.8369" x2="234.8344" y2="311.1631">
		<stop  offset="0.4368" style="stop-color:#FF9B2A"/>
		<stop  offset="1" style="stop-color:#15FBFF"/>
	</linearGradient>
	<path style="fill:url(#SVGID_00000052810905042183112150000006555603216471826062_);" d="M221.2,127.5c-25.9,0-46.8,21-46.8,46.9
		v93.8c0,25.9,21,46.9,46.8,46.9s46.8-21,46.8-46.9v-93.8C268,148.5,247,127.5,221.2,127.5z"/>
	
		<linearGradient id="SVGID_00000146486950392792476960000002790393208981759636_" gradientUnits="userSpaceOnUse" x1="192.475" y1="-127.4238" x2="258.475" y2="307.5762">
		<stop  offset="0.4368" style="stop-color:#FF9B2A"/>
		<stop  offset="1" style="stop-color:#15FBFF"/>
	</linearGradient>
	
		<ellipse style="fill:url(#SVGID_00000146486950392792476960000002790393208981759636_);" cx="221.2" cy="61.9" rx="46.8" ry="46.9"/>
	
		<linearGradient id="SVGID_00000034055993836577083720000004525714906287226269_" gradientUnits="userSpaceOnUse" x1="52.0228" y1="-106.1138" x2="118.0228" y2="328.8862">
		<stop  offset="0.4368" style="stop-color:#FF9B2A"/>
		<stop  offset="1" style="stop-color:#15FBFF"/>
	</linearGradient>
	
		<ellipse style="fill:url(#SVGID_00000034055993836577083720000004525714906287226269_);" cx="108.8" cy="268.1" rx="46.8" ry="46.9"/>
</g>
<path class="st0" d="M385.3,785.1c-7.5-6.9-16.8-13.4-28-19.5c-11.2-6-24.3-12.4-39.1-18.9c-6-2.6-11.1-4.9-15.2-6.7
	c-4.2-1.8-7.5-3.5-9.9-5.1c-2.5-1.6-4.3-3.3-5.4-5.2s-1.6-4.1-1.6-6.6c0-3.9,1.1-7.1,3.3-9.7c2.2-2.6,5.3-4.5,9.4-5.9
	c4-1.4,8.8-2,14.6-2c5.9,0,12.1,0.6,18.7,2s13.2,3.2,19.9,5.7c6.7,2.4,13,5.4,19.1,8.8l30.2-60.7c-7.8-4.8-16.8-9-27-12.7
	c-10.3-3.7-20.9-6.5-31.8-8.6s-21.5-3-31.2-3c-15.1,0-28.8,2.4-41.1,7.4c-12.3,4.9-22.8,11.6-31.6,19.9
	c-8.8,8.3-15.5,17.8-20.2,28.2c-4.7,10.5-7.1,21.3-7.1,32.5c0,8,1.3,15.5,3.7,22.7c2.5,7.1,6,13.6,10.8,19.7
	c4.7,6,10.3,11.6,17,16.5c6.7,5,14,9.4,22.3,13.3c10.8,5.1,19.9,9.4,27.4,13c7.5,3.7,13.6,7,18.2,10.1c4.7,3.1,8,6.2,10.1,9.5
	c2.1,3.2,3.2,7,3.2,11.4c0,4.3-1,7.9-3.1,10.9c-2.1,2.9-5.1,5.1-9,6.4s-8.8,2.1-14.6,2.1c-6.2,0-12.7-0.7-19.3-2.3
	c-6.7-1.5-13.2-3.5-19.9-6c-6.6-2.5-13-5.4-19-8.6c-6-3.2-11.7-6.5-16.7-9.9l-38,64.2c4.8,3.9,11,7.8,18.5,11.6s16.1,7.3,25.5,10.6
	c9.5,3.2,19.9,5.8,31.1,7.7s22.9,2.8,35.2,2.8c23.1,0,43.1-3.6,59.9-10.8c16.9-7.2,29.9-17.6,39.1-31.2
	c9.2-13.6,13.8-29.9,13.8-48.9c0-11.9-1.8-22.2-5.6-31C398.3,799.9,392.8,792.1,385.3,785.1z"/>
<path class="st0" d="M588.9,736.4c-15.9-8.9-33.7-13.4-53.4-13.4s-37.6,4.5-53.4,13.4c-15.9,8.9-28.4,21.3-37.7,37.1
	c-9.2,15.7-13.9,33.9-13.9,54.6c0,20.6,4.6,38.8,13.9,54.6c9.3,15.7,21.8,28.1,37.7,37.1c15.9,8.9,33.7,13.4,53.4,13.4
	s37.6-4.5,53.4-13.4c15.9-8.9,28.4-21.3,37.7-37.1c9.3-15.7,13.9-33.9,13.9-54.6c0-20.6-4.6-38.8-13.9-54.6S604.8,745.3,588.9,736.4
	z M562.8,847.3c-2.8,5.5-6.7,9.9-11.5,13s-10.1,4.8-15.9,4.8c-5.8,0-11-1.6-15.9-4.8c-4.8-3.1-8.7-7.5-11.5-13s-4.3-12-4.3-19.3
	s1.4-13.8,4.3-19.4c2.8-5.6,6.7-10,11.5-13s10.1-4.7,15.9-4.7c5.8,0,11,1.5,15.9,4.7c4.9,3.1,8.7,7.4,11.5,13s4.3,12.1,4.3,19.4
	C567.1,835.3,565.7,841.7,562.8,847.3z"/>
<path class="st0" d="M825.6,736.4c-15.9-8.9-33.7-13.4-53.4-13.4s-37.6,4.5-53.4,13.4c-15.9,8.9-28.4,21.3-37.7,37.1
	c-9.2,15.7-13.9,33.9-13.9,54.6c0,20.6,4.6,38.8,13.9,54.6c9.3,15.7,21.8,28.1,37.7,37.1c15.9,8.9,33.7,13.4,53.4,13.4
	s37.6-4.5,53.4-13.4c15.9-8.9,28.4-21.3,37.7-37.1c9.3-15.7,13.9-33.9,13.9-54.6c0-20.6-4.6-38.8-13.9-54.6
	C854,757.7,841.4,745.3,825.6,736.4z M799.6,847.3c-2.8,5.5-6.7,9.9-11.5,13s-10.1,4.8-15.9,4.8s-11-1.6-15.9-4.8
	c-4.8-3.1-8.7-7.5-11.5-13s-4.3-12-4.3-19.3s1.4-13.8,4.3-19.4c2.8-5.6,6.7-10,11.5-13s10.1-4.7,15.9-4.7s11,1.5,15.9,4.7
	c4.9,3.1,8.7,7.4,11.5,13s4.3,12.1,4.3,19.4C803.8,835.3,802.4,841.7,799.6,847.3z"/>
<path class="st0" d="M1001.8,733.3c0-6.3,0.3-11.9,0.7-17c0.5-5.1,1.9-9,4.3-11.9c2.4-2.9,6.4-4.3,12-4.3c6,0,11.8,1.4,17.3,4.2
	l25-49.7c-6.9-5.4-15.3-9.7-25.3-12.8c-9.9-3.2-19.9-4.7-29.8-4.7c-15.7,0-29.3,3.9-40.7,11.7c-11.4,7.9-20.2,18.8-26.4,32.9
	c-6.2,14.1-9.3,30.6-9.3,49.3v30.5H902v54.2h27.7V937h72.1V815.6h39.5v-54.2h-39.5L1001.8,733.3L1001.8,733.3z"/>
<path class="st0" d="M1199.3,758.9c-7-5.3-15.2-9.5-24.7-12.5c-9.4-2.9-19.2-4.4-29.4-4.4c-17.2,0-32.4,4.2-45.6,12.4
	s-23.4,19.3-30.9,33.4c-7.5,14-11.2,29.8-11.2,47.3c0,18.1,3.9,34.1,11.8,48.3c7.8,14.2,18.4,25.2,31.7,33.3
	c13.3,8,28,12.1,44.2,12.1c9.7,0,19.1-1.6,28-4.8s17.6-8,26.1-14.4v13.7h72.1V747.6h-72.1V758.9L1199.3,758.9z M1196.5,852.3
	c-2.8,5-6.8,8.9-11.8,11.7s-10.8,4.2-17.2,4.2c-6.5,0-12.2-1.4-17.3-4.2c-5.1-2.9-9.1-6.8-11.9-11.7c-2.8-5-4.3-10.6-4.3-16.9
	c0-6.3,1.5-11.9,4.4-16.9s6.9-8.8,12-11.7s10.8-4.2,17.1-4.2c6.5,0,12.2,1.4,17.2,4.2c4.9,2.9,8.8,6.8,11.8,11.6
	c2.9,4.9,4.3,10.6,4.3,17C1200.8,841.7,1199.3,847.4,1196.5,852.3z"/>
</svg>
