<svg id="Layer_1" data-name="Layer 1" xmlns="http://www.w3.org/2000/svg" viewBox="0 0 800.26 441.04"><defs><style>.cls-1{fill:#df2129;}.cls-2{fill:#fde92d;}.cls-3{fill:#fff;}</style></defs><path d="M34.28,333.2c-10.62,0-15.3-4.68-15.3-15.3V42.5c0-10.63,4.68-15.3,15.3-15.3h68.43c8.92,0,14.45,3.4,19.55,12.75l38.25,69.27c3,5.1,4.25,7.23,7.65,7.23H172c3.4,0,4.68-2.13,7.65-7.23L217.46,40C222.56,30.6,228.08,27.2,237,27.2h68.85c10.63,0,15.3,4.67,15.3,15.3V317.9c0,10.62-4.67,15.3-15.3,15.3H240.41c-11,0-15.3-4.68-15.3-15.3V168.3L200,214.62c-5.1,9.78-11.47,13.6-22.52,13.6h-17c-11,0-17.43-3.82-22.53-13.6L112.91,168.3V317.9c0,10.62-4.68,15.3-15.3,15.3Z"/>
<path d="M441,427.7c-11.05,0-15.3-4.68-15.3-15.3V358l-65-87.13C347.48,253.45,344.5,245,344.5,218.6V137c0-10.63,4.68-15.3,15.3-15.3h65.45c10.63,0,15.3,4.67,15.3,15.3v69.7c0,6,0,11.9,3.83,17.85l19.55,30.6c3,5.1,5.52,7.22,10.2,7.22h4.25c4.67,0,7.22-2.12,10.2-7.22l19.55-30.6c3.82-6,3.82-11.9,3.82-17.85V137c0-10.63,4.68-15.3,15.3-15.3h63.33c10.62,0,15.3,4.67,15.3,15.3v81.6c0,26.35-3.4,34.85-16.15,52.27l-64.6,87.56v54c0,10.62-4.68,15.3-15.3,15.3Z"/>
<rect class="cls-1" x="622.93" y="65.26" width="38.33" height="3.94"/><rect class="cls-1" x="643.26" y="192.2" width="17.17" height="4.17"/><path class="cls-1" d="M671.76,70.2V65.26c33.34,0,42.84,27.11,42.84,27.11s-5.67-.5-5.5,0C698.6,68.2,671.76,70.2,671.76,70.2"/><path class="cls-1" d="M716.76,194.28v4.25c-2.66-3-43.5-2.16-43.5-2.16a34.13,34.13,0,0,0,0-4.17c36.5,2.67,38.67-32,38.67-32h4.83a53.62,53.62,0,0,1-6,20,29.1,29.1,0,0,1-17.38,11.94c8.24-.11,23.38,2.14,23.38,2.14"/><rect class="cls-1" x="713.14" y="106.2" width="5.13" height="40"/>
<rect class="cls-1" x="743.8" y="254.87" width="5.13" height="40"/>

<rect class="cls-3" x="610.26" y="65.26" width="0.5" height="3.94"/><path class="cls-3" d="M693.38,192.14c-.57,0-1.12,0-1.62.06-3.45.22-2,.75,1.62-.06"/><path class="cls-1" d="M781.63,184.87q-14.25-16.14-37.19-18.69a33.12,33.12,0,0,0,18.49-18.07q5.31-12.53,5.31-30.38V98.18q0-31.46-18.06-51.22T684.52,27.2H543a28.22,28.22,0,0,0-4.39.33H346.93v76H610.26v.11l18.67,0h26.69q11,0,14.87,5.74t3.83,14.24v14.45q0,8.51-3.83,14.23t-14.87,5.74H643.09v76.5h40.15q8.93,0,12.54,4.46t3.61,13.81v65q0,8.09,3.61,11.69t11.69,3.61h65.88q8.07,0,11.68-3.61t3.62-11.69V227.8Q795.87,201,781.63,184.87ZM407.26,69.2H368.93V65.26h38.33Zm50.5,0H419.43V65.26h38.33Zm49.25,0H468.68V65.26H507Zm65.42,0V65.26h38.33V69.2Z"/><rect class="cls-3" x="368.93" y="65.26" width="38.33" height="3.94"/><rect class="cls-3" x="419.43" y="65.26" width="38.33" height="3.94"/><rect class="cls-3" x="468.68" y="65.26" width="38.33" height="3.94"/><rect class="cls-3" x="519.18" y="65.26" width="8.51" height="3.94"/><rect class="cls-3" x="527.69" y="65.26" width="29.82" height="3.94"/><rect class="cls-3" x="572.43" y="65.26" width="37.83" height="3.94"/><rect class="cls-3" x="622.93" y="65.26" width="38.33" height="3.94"/><rect class="cls-3" x="713.14" y="106.2" width="5.13" height="40"/><rect class="cls-3" x="743.8" y="254.87" width="5.13" height="40"/><rect class="cls-3" x="642.07" y="192.2" width="17.17" height="4.17"/><path class="cls-3" d="M710.76,180.2a54.07,54.07,0,0,0,6-20h-4.83s-2.17,34.67-38.67,32a34.13,34.13,0,0,1,0,4.17s40.83-.84,43.5,2.16v-4.25s-15.14-2.25-23.38-2.14c-3.58.81-5.07.28-1.62.06q.75,0,1.62-.06a29.13,29.13,0,0,0,17.38-11.94"/><path class="cls-3" d="M709.1,92.37c-.17-.5,5.5,0,5.5,0s-9.5-27.11-42.84-27.11V70.2s26.84-2,37.34,22.17"/><path class="cls-3" d="M730.43,200.2v5.5S744.51,211,743.8,240c0-.16,5.13,0,5.13,0s1.17-31.33-18.5-39.83"/></svg>