<?xml version="1.0" encoding="utf-8"?>
<!-- Generator: Adobe Illustrator 26.0.1, SVG Export Plug-In . SVG Version: 6.00 Build 0)  -->
<svg version="1.1" id="Layer_1" xmlns="http://www.w3.org/2000/svg" xmlns:xlink="http://www.w3.org/1999/xlink" x="0px" y="0px"
	 viewBox="0 0 14444.8 2413.5" style="enable-background:new 0 0 14444.8 2413.5;" xml:space="preserve">
<style type="text/css">
	.st0{clip-path:url(#SVGID_00000052791945689141500320000001962840779612185475_);}
	.st1{fill:#FADE9D;}
	.st2{fill:#002C68;}
	.st3{fill:#43DCC0;}
	.st4{fill:#FE7316;}
</style>
<g id="OBJECTS">
	<g>
		<g>
			<defs>
				<rect id="SVGID_1_" x="3" width="14438.7" height="2413.5"/>
			</defs>
			<clipPath id="SVGID_00000011748192215318240320000014649831027735980735_">
				<use xlink:href="#SVGID_1_"  style="overflow:visible;"/>
			</clipPath>
			<g style="clip-path:url(#SVGID_00000011748192215318240320000014649831027735980735_);">
				<path class="st1" d="M15455.1,4953.9c-543.3,104.6-1138.1,47.9-1629-153.9s-873.3-547.5-1045-945.8
					c-50.6-118.1-71.4-269.4,59.7-345.7c144.6-84.4,349.8-12.8,520.7,37.8c234.1,68.9,492.7,91.1,742.2,64.1
					c183.5-19.6,366.1-66.2,550.5-51.3c276.6,21.6,504.4,176.2,659.9,348.4c212.4,235.6,328.2,532,236.8,808.1
					c-90.4,275.4-420.4,513.8-800,519.8"/>
				<path class="st2" d="M-666.9,2594.4c72.3-139.1,301-190.4,499.9-195.8c559.6-16.9,1107.4,180.9,1497.9,480.7
					s634.6,692,772.9,1097c66,195.1,109.4,397,87.7,597.5s-113.9,401-291.1,552.2c-336.3,285.6-930.2,342.3-1408.4,212
					c-478.2-129.6-854.3-413.2-1151.7-721.7c-313.7-326.1-561.4-696-636.4-1093.7c-75-397.6,35.3-824.3,372.4-1137.5"/>
				<path class="st3" d="M-435.4-392.2c-67.8-192.4-137.4-390.9-106.7-588.7c30.7-197.8,183.5-398.3,435.7-464.5
					c219.7-57.4,469.2-0.7,658.1,100.6c188.9,101.9,330,243.7,473.7,380.8C2092.2,47.9,3460.8,862.8,4911.7,1558.1
					S7904,2837.5,9417.3,3454.5c555.1,226.2,1113.7,461.1,1558.5,795.9c305.6,230.2,554.2,602.9,296.5,863.5
					c-214.2,216.7-639.1,216-998,194.4c-1181.5-70.2-2363.1-141.1-3543.7-211.3c-397.8-23.6-807.3-50-1158.9-190.4
					c-489.1-195.1-782.9-574.5-1106.5-910.7C3946.3,3455.8,3293.6,2988,2549.6,2622.1c-387.8-191.1-811.8-361.9-1086.6-640.7
					c-275.7-279.5-346.2-711.6-10.8-951.9C376.4,962.7-527.6,184.3-463.5-619.7"/>
				<path class="st3" d="M606,461.8c-177.2-12.8-348,74.9-436.6,190.4S60,905.3,60.9,1038.3C64.5,1646.6,466.8,2215,945,2707.2
					s1043.2,939.7,1452.7,1465.6c339,435.4,603.9,950.5,1196.9,1190.2c633.7,255.9,1487.1,77,1939.1-342.3
					c452-419.2,528.8-1021.4,301.9-1532.5c-226-511.1-721.4-937-1297.2-1261.1"/>
				<path class="st2" d="M5500.3-1414.3c439.3,495.5,1240.3,800.7,2035.8,775.7c910.3-29,1734.8-451.6,2645.1-483.4
					c683.4-23.6,1375,189.7,1836.9,566.4c433,353.8,651.8,820.9,866.9,1272.6c215.2,451.6,452,916.8,909.4,1253
					c456.5,336.9,1198.7,507,1755.6,269.4c464.7-198.5,676.2-611.6,787.4-1002.5c180.8-631.9,188-1296.9-38-1920.7
					c-226-623.8-691.6-1205.1-1360.5-1614.8c-637.3-390.2-1432.8-614.3-2241.9-732.5c-809.1-118.1-1637.1-135.7-2460.7-153.2
					c-290.2-6.1-580.4-12.2-871.5-18.2c-289.3-6.1-578.6-12.2-867.8-18.2s-578.6-12.2-867.8-18.2c-290.2-6.1-580.4-12.2-871.5-18.2
					c-273-5.4-549.6-21.6-822.6-15.5c-155.5,3.4-316.4,24.3-450.2,87.8c-115.7,54.7-196.2,138.4-248.6,232.2
					c-64.2,116.1-89.5,243-104.9,366.6c-22.6,178.2-18.1,356.5,25.3,532.7c45.2,183.6,128.4,362.5,249.5,525.9
					c14.5,19.6,28.9,38.5,44.3,57.4C5462.3-1458.2,5500.3-1427.8,5500.3-1414.3z"/>
				<path class="st2" d="M-1080.9-2963.7c878.7,17.6,1616.4,504.3,2129.8,1037c512.6,532.7,892.3,1142.3,1507.9,1610.1
					C3616.3,488.1,5186.6,748.7,6649.2,1033.6s3024.8,696.7,3824.8,1654.7c417.6,500.9,597.5,1122,1171.6,1527.8
					c356.2,251.1,824.5,389.5,1276.5,529.3c452,140.4,915.8,295.7,1240.3,569.8c324.5,274.1,471.9,698.7,217.9,1011.3
					c-946.5,176.2-2010.5-68.9-2659.6-612.3c-584-488.8-847.1-1186.8-1562.1-1565.6c-683.4-361.9-1615.5-342.3-2344.1-650.8
					c-864.2-365.9-1300.9-1127.4-2119-1548c-874.2-449.6-2071.1-452.3-2908.2-939.7c-906.7-529.3-1177-1499.4-2064.7-2044.2
					c-339-208.6-748.5-340.9-1131.8-500.3c-384.2-159.3-761.2-358.5-965.5-648.1c-205.2-290.3-187.1-690,143.7-905.3"/>
				<path class="st2" d="M842.8-3580.7C1609.4-2118.5,3333.4-955.9,5360.1-535.4c1334.3,276.8,2801.5,255.9,4012,759.5
					c1004.3,417.9,1710.4,1157.1,2166,1945.6c298.3,516.5,554.2,1109.9,1211.4,1385.3c860.6,361.2,2062.9,16.2,2857.6,453.7
					c219.7,120.8,383.3,291,598.4,416.5c215.2,124.9,525.2,199.2,759.4,95.2c191.6-85.1,273.9-272.7,232.3-436.8
					c-42.5-164-188.9-303.8-363.4-407.8c-1002.5-596.8-2638.8-71.6-3684.7-625.8c-462.8-245.1-710.5-657.5-863.3-1066
					c-152.8-407.8-231.4-833.8-458.3-1221.9C11423.3,70.2,10540.1-453.7,9546.6-590C8516-731.8,7443.9-600.2,6432.3-804.7
					c-889.5-179.6-1601.9-563.7-2255.5-1049.1C3572-2303.4,2967.2-2753.1,2362.5-3202c-283.9-210.6-575.9-426-943.8-543.5
					c-367.9-117.5-831.7-116.8-1130.9,81.7"/>
				<path class="st3" d="M-684.9-3667.2c414,1224,1342.4,2348,2621.6,3173.7S4838.5,856,6520.9,984.3
					c1223.1,93.8,2551.1,57.4,3505.7,635.9c819,496.9,1112.8,1287.4,1639.9,1969.9c964.6,1247.6,2983.2,1990.9,4896.1,1802.5
					c-1458.2-240.3-2791.6-881-3689.2-1771.5c-679.8-674.4-1104.7-1469.7-1678.7-2196.1S9827.7,6.1,8748.3-243.7
					c-843.4-195.1-1750.1-96.5-2631.6-61.4S4276.2-320,3599.1-743.3c-843.4-527.9-984.5-1461.6-1661.6-2109.7
					c-854.3-816.9-2364-1028.2-3736.2-1181.4"/>
				<path class="st1" d="M2339-3840c310.1,910.7,1028.8,1741.1,2014.1,2325.1s2231.1,918.8,3489.5,937.7
					c787.4,11.5,1586.5-95.9,2354.9,34.4c715.1,120.8,1362.3,453.7,1770.9,908.7c578.6,645.4,710.5,1533.8,1546.7,1994.9
					c508,280.2,1192.4,336.9,1810.7,241s1182.4-329.4,1710.4-589.4c-490,398.3-1369.6,414.5-2006,156.6
					c-637.3-257.9-1069.4-727.8-1397.6-1209.8c-328.2-482-577.7-996.5-976.3-1448.1s-987.2-847.3-1703.1-930.3
					c-1133.6-132.3-2160.6,532-3299.6,629.9c-969.1,83-2053-364.6-2228.4-1080.8c-72.3-296.4,9-608.9-97.6-899.9
					c-149.2-406.4-648.2-698.7-1184.2-829c-536.1-130.3-1111.9-125.6-1675.1-118.8"/>
				<path class="st1" d="M-1889.1-2206.9c384.2,474.6,1092,735.9,1754.7,985.6S1225.2-677.1,1542.5-176.2
					c265.8,419.9,215.2,908.7,339,1364.4c168.1,620.4,678.9,1184.8,1387.6,1532.5c1214.1,594.8,2910,554.9,3946,1315.8
					c804.6,591.4,961,1611.5,356.2,2323c40.7-320.7-227.8-629.2-585.8-809.4c-357.1-180.3-790.1-253.8-1215.9-305.8
					c-425.8-52-859.7-86.4-1262-201.2c-812.7-232.2-1431-805.4-1562.1-1446.7c-38-184.3-38.9-376.7-137.4-548.2
					c-355.3-621.8-1733.9-648.8-1996.9-1295.5c-207-510.4,455.6-1010,419.5-1542.6c-28-405.7-458.3-735.2-924.8-943.1
					c-466.5-208.6-994.4-338.2-1434.7-576.5s-794.6-635.3-679.8-1032.2"/>
				<path class="st4" d="M5540-2244c62.4,419.2,324.5,837.1,791.9,1072.7c392.3,197.8,889.5,250.5,1360.5,216.7
					c649.1-45.9,1259.3-241,1860.4-430c601.2-188.4,1218.6-374.7,1869.5-401.7c650.9-27,1351.5,134.3,1739.3,525.9
					c591.2,596.8,292.9,1509.5,902.2,2096.2c460.1,442.9,1348.8,552.9,2045.8,346.3S17320.1,507.7,17621.1-5.4
					c334.5-570.5,433.9-1239.5,119.3-1816c-410.4-752.1-1474.4-1228.7-2554.7-1327.3c-1080.3-96.5-2170.5,131.6-3164.9,461.1
					c-683.4,226.2-1339.7,501.6-2044.9,687.3c-705.1,185.7-1481.7,278.1-2201.2,125.6c-719.6-152.6-1360.5-591.4-1466.3-1143.6
					c-27.1-139.7-20.8-289.6-107.6-418.6c-44.3-64.8-109.4-114.1-202.5-137.7c-64.2-16.2-153.7-27.7-215.2,0
					c-104.9,46.6-89.5,185.7-104,262.6c-13.6,75.6-42.5,149.9-63.3,224.8c-23.5,85.1-44.3,170.8-59.7,257.2
					c-30.7,172.2-41.6,347-23.5,521.2C5534.6-2287.2,5537.3-2265.6,5540-2244z"/>
				<path class="st4" d="M4106.3,2832.7c-747.6-222.1-1383.1-647.4-1759.2-1178.7c-47-66.8-92.2-141.8-72.3-215.4
					c33.4-127.6,245-188.4,415.8-162.7c170.9,26.3,311.9,111.4,459.2,180.9c699.7,333.5,1615.5,349,2291.6,708.9
					c498.1,264.6,805.5,684.6,1253.9,995.1c569.5,394.9,1330.7,588.7,2025.9,847.9c696.1,259.2,1390.4,639.3,1592.9,1199.7
					c76.8,212,66.9,458.4-123.8,625.8C9941.6,6053,9461.6,6053,9137.1,5899c-324.5-153.9-520.7-421.3-659.9-688.6
					c-139.2-267.3-238.7-549.5-434.8-796.6C7612,3874.4,6789.4,3587.5,5992,3387.7c-797.3-199.8-1642.6-353.1-2304.3-740.6"/>
				<path class="st4" d="M-1038.4-733.8c468.3-12.2,951,67.5,1330.7,271.4C672-257.9,935,81.7,913.3,430.7
					C898,679.2,748.8,909.4,628.6,1140.9c-119.3,231.6-210.6,489.4-107.6,725.7c153.7,350.4,660.8,523.2,1064,736.5
					c955.5,505,1463.6,1441.3,1249.3,2300.1c-39.8,157.3-111.2,323.4-284.8,417.2c-284.8,153.9-715.1,28.4-904.9-192.4
					c-189.8-220.8-202.5-498.9-197.1-760.8c4.5-261.9,18.1-536-132-773C1069.7,3206.7,472.2,3032.6,50,2741.6
					c-556.9-384.1-794.6-1007.3-591.2-1552.1c86.8-232.9,246.8-453.7,261.3-695.4c14.5-250.5-134.7-494.2-344.4-690
					c-210.6-195.8-480-350.4-745.8-503"/>
				<path class="st3" d="M724.4,3391c321.8,328.8,470.1,748.7,408.6,1153.1c-20.8,138.4-68.7,278.8-184.4,387.5
					c-115.7,108.7-311.9,178.9-491.8,143.1C267,5036.9,142.2,4893.8,107,4750c-35.3-144.5-0.9-292.3,24.4-438.1
					c25.3-145.8,39.8-298.4-33.4-434.8c-78.6-146.5-246.8-253.8-414.9-349c-173.6-98.6-363.4-195.8-474.6-339.6
					c-75.9-99.2-107.6-224.8,25.3-305.1c116.6-70.2,287.5-79.7,430.3-62.1c194.4,23.6,378.8,108.7,537.9,191.1
					c178.1,91.8,338.1,203.2,472.8,330.1C691.9,3358.6,708.1,3374.8,724.4,3391z"/>
				<path class="st3" d="M8413.9,1951.7c574,202.5,1142.7,451,1517.8,833.1c337.2,343.6,494.5,771.6,841.6,1109.2
					c524.3,509.7,1391.3,735.9,2101.8,1098.4c170.9,87.1,339,187.7,434.8,325.4c94.9,137.7,100.3,320-38,435.4
					c-109.4,91.1-288.4,123.5-451.1,106c-162.7-16.9-311-77.6-446.6-146.5c-564.1-287.6-939.3-733.8-1320.7-1157.1
					c-381.5-423.3-810.9-851.3-1426.5-1072.7c-655.4-234.9-1485.3-221.4-2003.3-602.2c-282-207.3-423.1-503-697-716.3
					c-457.4-357.1-1190.6-422.6-1729.4-709.5c-107.6-57.4-217-152.6-165.4-243c57.9-100.6,283-117.5,427.6-106.7
					c320.9,23.6,445.7,30.4,679.8,68.9c192.6,31.7,846.1,262.6,981.7,319.3c196.2,81.7,399.6,154.6,603.9,224.1
					c204.3,69.5,409.5,137,612.9,207.3C8363.2,1934.2,8388.5,1942.9,8413.9,1951.7z"/>
				<path class="st1" d="M10924.3-1964.5c557.8-119.5,1159.8-172.8,1716.7-51.3c556.9,121.5,1059.5,444.2,1185.1,867.5
					c47,158,40.7,322,49.7,483.4c9,162,35.3,328.1,138.3,469.9c104,142.4,300.1,256.5,517.1,253.2c179.9-2.7,342.6-83,464.7-181.6
					c397.8-320,434.8-832.4,178.1-1224.6s-761.2-670.4-1307.2-826.3c-938.4-268-2041.2-201.9-2904.6,181.6L10924.3-1964.5z"/>
				<path class="st1" d="M5762.4-2184c-38.9-97.2-78.6-199.2-57.9-299.7c21.7-100.6,122.9-199.2,259.4-205.9
					c151-7.4,269.4,94.5,342.6,193.8c121.1,164,195.3,347.7,340.8,500.3c246.8,257.2,674.4,391.6,1096.6,421.9
					c422.2,30.4,845.2-29.7,1261.1-91.8c66.9-10.1,162.7-4.7,169,45.9c3.6,30.4-32.5,54-66,72.2
					c-566.8,303.1-1301.8,424.6-1987,328.8c-428.5-60.1-846.1-207.9-1123.7-458.4c-277.5-250.5-394.1-611-233.2-913.4"/>
				<path class="st2" d="M6166.5,645.4c865.1,85.1,1757.4-22.3,2609.9,118.1c821.7,135,1570.3,506.3,2055.7,1019.4
					c-303.7-424.6-711.5-810.8-1217.7-1108.5c-506.2-297.7-1112.8-505.7-1752-570.5c-673.5-68.2-1354.2,21.6-2033.1,50
					c-293.8,12.2-589.4,10.8-881.4-18.2c-288.4-28.4-574-85.1-833.5-185c-30.7-12.2-116.6-60.8-154.6-33.1
					c-26.2,18.9,87.7,70.2,110.3,83c115.7,65.5,235.9,126.9,360.7,183.6c248.6,113.4,511.7,209.3,784.7,284.9
					c273,75.6,556,131,843.4,164.7C6094.2,638,6130.3,642,6166.5,645.4z"/>
				<path class="st2" d="M1753.2-1149c128.4,74.9,301.9,145.8,445.7,89.8c101.2-39.8,148.3-131.6,143.7-216.7
					c-4.5-85.1-51.5-165.4-96.7-243c-155.5-263.3-311-527.3-517.1-769.6c-206.1-242.4-465.6-465.1-792.8-616.4
					c-98.5-45.9-219.7-90.5-338.1-64.1c-83.2,18.2-147.4,60.8-131.1,128.3c17.2,70.2,41.6,140.4,60.6,210.6
					c22.6,80.3,49.7,160,82.3,238.3c65.1,155.9,150.1,306.5,253.1,450.3c104,144.5,226,280.8,364.3,407.8
					c138.3,126.9,292.9,243.7,461.9,348.4C1710.7-1174,1732.4-1161.2,1753.2-1149z"/>
				<path class="st2" d="M6709.8,1569.6c28,17.6,57,39.2,57,66.8c0,25-25.3,46.6-55.1,56.7c-29.8,10.1-64.2,11.5-96.7,11.5
					c-292,1.4-584.9-64.1-827.2-186.3c-66-33.1-132.9-86.4-85-148.5c32.5-42.5,108.5-38.5,164.5-37.1
					c195.3,4.7,387.8,38.5,564.1,101.9C6530.8,1470.4,6624.8,1515.6,6709.8,1569.6z"/>
				<path class="st2" d="M9357.6,2688.9c112.1,80.3,226.9,194.4,169,301.8c-63.3,118.8-279.3,132.3-448.4,113.4
					c-735-83.7-1406.6-435.4-1761-923.5c-42.5-58.7-86.8-132.3-38-196.5c33.4-43.9,78.6-63.5,144.6-55.4
					c171.8,20.3,344.4,62.8,508,105.3c169,44.6,334.5,97.9,494.5,159.3c160,61.4,314.6,130.3,461.9,207.3
					c148.3,77,289.3,162,421.3,253.2C9325.1,2665.3,9341.4,2676.8,9357.6,2688.9z"/>
				<path class="st2" d="M9965.1,3114.9c82.3,45.2,104.9,126.9,49.7,182.3c-55.1,55.4-166.3,63.5-248.6,17.6
					c-82.3-45.2-104.9-126.9-49.7-182.3S9882.9,3069.7,9965.1,3114.9z"/>
				<path class="st1" d="M5290.5,2577.5c98.5,20.9,158.2,91.1,133.8,157.3c-25.3,66.2-124.8,103.3-223.3,82.4
					c-98.5-20.9-158.2-91.1-133.8-157.3C5091.6,2593.7,5192,2556.6,5290.5,2577.5z"/>
				
					<ellipse transform="matrix(0.121 -0.9926 0.9926 0.121 2210.1558 8363.5195)" class="st1" cx="5827.7" cy="2933.8" rx="94.8" ry="136.8"/>
				<path class="st1" d="M6546.2,3210.8c40.7,15.5,57.9,50.6,38.9,77.6c-19,27-66.9,36.5-107.6,20.9c-40.7-15.5-57.9-50.6-38.9-77.6
					C6457.6,3204,6505.5,3194.6,6546.2,3210.8z"/>
				<path class="st4" d="M2577.6-1899.7c85,532.7,521.6,1016,1108.3,1325.9C4273.5-264.6,4997.6-120.2,5716.3-106
					c453.8,8.8,930.2-37.8,1303.6-231.6C4982.3-571.1,3110.1-1512.9,2054.2-2835.4c328.2,731.8,668.1,1479.8,1310.8,2084.7"/>
				<path class="st4" d="M8422,1076.1c733.1,109.4,1452.7,330.1,1993.3,715.6c627.4,446.9,960.1,1070,1400.3,1629
					c604.8,766.9,1437.4,1433.2,2421.8,1935.5c-1167.1-376-2395.6-787.8-3124.2-1566.2c-347.1-371.3-558.7-806.1-905.8-1178.1
					c-438.4-470.5-1078.5-821.6-1765.5-1078.1c-244.1-91.1-494.5-171.5-749.4-244.4c-254-72.9-1573-328.8-1563-341.6
					c9.9-12.8,492.7,12.2,515.3,12.2c282,3.4,565,10.1,846.1,25.7c280.2,14.9,559.6,39.2,835.3,77
					C8358.7,1067.3,8390.3,1071.4,8422,1076.1z"/>
				<path class="st4" d="M12454.7,714.3c361.6,529.3,480.9,1176.7,1074,1573c460.1,307.8,1107.4,393.6,1717.6,465.8
					c-129.3,327.4-565.9,557.6-1020.6,590.7c-454.7,33.1-911.2-109.4-1254.8-334.9c-342.6-225.5-582.2-526.6-760.3-840.5
					c-178.1-313.9-298.3-644-442.1-968.1c-142.8-324-311-646.1-570.4-926.2c-158.2-170.8-349.8-323.4-566.8-453
					c-217.9-131-460.1-238.3-718.7-318.6c-71.4-22.3-143.7-42.5-217.9-60.1c-37.1-8.8-74.1-17.6-111.2-25c-28-6.1-69.6-8.1-92.2-23
					c51.5-7.4,114.8-1.4,167.2,0c59.7,1.4,119.3,4.7,179,8.8c118.4,8.1,235.9,21.6,351.7,39.8c230.5,35.8,456.5,91.1,671.7,162.7
					c217,72.2,424,161.3,616.5,266c190.7,103.3,367,222.1,524.3,353.1c158.2,132.3,297.4,277.5,411.3,432.7
					C12427.6,676.5,12441.2,695.4,12454.7,714.3z"/>
				<path class="st3" d="M10604.3-1101.1c503.5,44.6,978.1,223.5,1348.8,481.3c209.7,145.8,392.3,324,454.7,532.7
					c19,64.8,7.2,153.9-78.6,169.5c-54.2,9.5-107.6-17.6-151.9-43.2c-455.6-264-921.2-538.1-1473.5-660.2
					c-371.5-82.4-765.7-91.8-1153.5-89.8c-109.4,0.7-238.7-1.4-329.1-54.7c-19.9-11.5-46.1-29-40.7-50c5.4-21.6,42.5-35.1,65.1-46.6
					c54.2-27.7,110.3-52.7,167.2-76.3c115.7-45.9,236.8-83,362.5-111.4c125.7-27.7,254.9-46.6,386-56c131.1-9.5,264-9.5,395-0.7
					C10572.6-1103.8,10588-1102.4,10604.3-1101.1z"/>
				<path class="st3" d="M12799.2,367.3c48.8,17.6,71.4,67.5,47,103.3c-24.4,36.5-90.4,52.7-139.2,34.4
					c-48.8-18.2-71.4-66.8-48.8-104c22.6-37.1,86.8-56,137.4-41.2"/>
				<path class="st3" d="M4096.3-2030c-105.8-101.3-205.2-212.7-233.2-339.6c-41.6-188.4,97.6-391.6,327.2-476.6
					c229.6-85.1,529.7-45.9,706,93.2c158.2,124.2,207.9,302.4,251.3,470.5c25.3,98.6,50.6,197.1,75.9,295.7
					c30.7,119.5,58.8,252.5-28,355.8c-50.6,60.1-136.5,94.5-228.7,107.3c-68.7,9.5-139.2,12.2-201.6-14.2
					c-66.9-29-122.9-74.3-180.8-111.4c-85-54-166.3-110.7-244.1-170.1C4254.5-1886.9,4173.2-1957.1,4096.3-2030z"/>
				<path class="st2" d="M5397.2,4951.2c-751.2-97.9-1435.6-455.7-1814.3-950.5c-113-147.2-198.9-332.2-90.4-480.7
					c92.2-126.9,308.3-184.3,499-161.3c190.7,23,357.1,112.1,489.1,217.4c173.6,139.1,309.2,315.3,538.8,397
					c279.3,98.6,608.4,28.4,915.8,52c435.7,33.8,829,280.8,947.4,595.4c34.4,91.8,45.2,195.8-19.9,277.5
					c-52.4,65.5-145.5,106-239.6,136.4c-471.9,149.2-1061.3,62.8-1422.9-208.6"/>
				<path class="st2" d="M1365.3,1875.4c-230.5-118.8-362.5-337.6-329.1-545.5c10.8-67.5,38.9-135,96.7-187
					c57.9-52,148.3-87.1,238.7-79c117.5,10.8,205.2,89.8,243.2,173.5c38,83.7,38.9,173.5,56,260.6c20.8,103.3,66,203.9,132.9,295.7
					c33.4,45.9,72.3,89.8,90.4,139.7c18.1,50,9.9,109.4-39.8,145.1c-51.5,37.1-135.6,39.8-202.5,20.3
					c-66.9-19.6-121.1-57.4-173.6-93.8c-160.9-113.4-327.2-230.9-412.2-383.5c-85.9-152.6-69.6-349.7,97.6-457.7"/>
				<path class="st1" d="M1623.9,2985.3c541.5,380.8,880.5,947.8,765.7,1496.7c-9.9,47.9-24.4,96.5-62.4,135.7
					s-106.7,65.5-168.1,51.3c-66.9-14.9-103.1-68.9-127.5-117.5c-197.1-390.9-202.5-839.8-515.3-1185.5
					c-162.7-179.6-395-315.3-612-458.4c-217-143.8-427.6-305.1-523.4-509.7c-22.6-47.9-37.1-102.6-5.4-147.2
					c21.7-31.1,77.7-51.3,123.8-42.5c38,7.4,50.6,46.6,71.4,68.2c67.8,68.2,144.6,131.6,226,190.4
					c165.4,119.5,350.8,222.8,530.6,330.1C1429.5,2857.7,1529.9,2919.1,1623.9,2985.3z"/>
				<path class="st1" d="M4486.9,2618c75,22.3,163.6,38.5,235,10.8c66-25.7,101.2-84.4,99.4-140.4c-2.7-56-37.1-108-81.4-153.2
					c-153.7-155.9-419.5-232.9-678-245.7c-75.9-4.1-170,0.7-209.7,58.1c-32.5,46.6,29.8,96.5,63.3,132.3
					c91.3,96.5,205.2,179.6,336.3,245.7C4325,2562.7,4403.7,2593.7,4486.9,2618z"/>
				<path class="st1" d="M14067.5,476.6c-49.7-33.8-94.9-72.9-117.5-120.2c-22.6-47.3-19-103.3,21.7-143.1
					c59.7-58.7,179-64.1,273-40.5c94,23.6,174.5,70.2,264.9,99.2c107.6,35.1,227.8,45.9,328.2,93.8c73.2,34.4,145.5,96.5,93.1,162.7
					c-104,129.6-396,108.7-557.8,73.6C14260.9,577.9,14154.3,536,14067.5,476.6z"/>
				<path class="st1" d="M4018.6-976.2c75.9,23,154.6,47.3,206.1,94.5c51.5,47.3,63.3,124.2,3.6,165.4
					c-48.8,32.4-123.8,31.1-188,18.9c-85.9-16.2-167.2-47.9-234.1-91.8c-69.6-45.9-126.6-121.5-81.4-182.3
					c33.4-45.9,113.9-62.8,182.6-54c68.7,9.5,129.3,39.2,187.1,68.9"/>
				<path class="st3" d="M7188.9-2564c333.6,374,1015.2,550.9,1588.3,412.5c209.7-50.6,424-164,439.3-328.1
					c14.5-161.3-174.5-295.7-372.4-360.5c-412.2-135-886.8-78.3-1330.7-18.9"/>
				<path class="st2" d="M156.7-20.9c0,49.3-61.5,88.4-138.3,88.4c-75.9,0-138.3-39.8-138.3-88.4c0-49.3,61.5-88.4,138.3-88.4
					C94.3-109.4,156.7-70.2,156.7-20.9z"/>
				<path class="st2" d="M169.3,261.9c0,49.3-61.5,266-138.3,266s-138.3-216.7-138.3-266s61.5-88.4,138.3-88.4
					S169.3,212.7,169.3,261.9z"/>
				<g>
					<g>
						<path class="st4" d="M11065.3,2015.9c41.6,45.2,79.6,92.5,118.4,138.4c38.9,45.9,76.8,92.5,114.8,138.4
							c76.8,93.2,151.9,187,223.3,282.2c20.8,27,39.8,54,60.6,81c19.9,26.3,39.8,53.3,66,76.3c4.5,3.4,11.8,0,10.8-4.7
							c-9.9-25.7-27.1-50-42.5-73.6c-16.3-25-35.3-48.6-53.3-72.9c-35.3-47.3-72.3-94.5-109.4-141.1
							c-75-93.8-153.7-186.3-236.8-276.1c-47.9-50.6-98.5-99.9-146.4-150.5C11068,2011.8,11063.5,2013.8,11065.3,2015.9
							L11065.3,2015.9z"/>
					</g>
				</g>
				<g>
					<g>
						<path class="st4" d="M11735.2,2812.5c1.8,6.8,1.8,13.5,3.6,20.3c2.7,7.4,6.3,14.2,9.9,21.6c7.2,14.2,16.3,29,25.3,42.5
							c9.9,13.5,19.9,27,30.7,39.2c9.9,12.2,23.5,25.7,40.7,33.1c4.5,2,9-1.4,8.1-4.7c-4.5-13.5-17.2-26.3-27.1-37.8
							c-10.8-12.2-21.7-25-30.7-37.8s-18.1-25-27.1-37.8c-4.5-6.8-9-13.5-13.6-20.3c-4.5-6.8-11.8-12.2-16.3-18.9
							C11737.9,2809.1,11734.3,2810.4,11735.2,2812.5L11735.2,2812.5z"/>
					</g>
				</g>
				<g>
					<g>
						<path class="st4" d="M11944,3074.4c-0.9,12.8,2.7,26.3,10.8,37.1c8.1,10.8,21.7,22.3,39.8,24.3c5.4,0.7,6.3-4.7,3.6-7.4
							c-4.5-4.1-9.9-8.1-15.4-11.5c-5.4-4.1-9-7.4-12.7-12.2c-8.1-9.5-12.7-18.9-13.6-29.7
							C11956.6,3068.3,11944.9,3068.3,11944,3074.4L11944,3074.4z"/>
					</g>
				</g>
				<g>
					<g>
						<path class="st1" d="M8961.7,1417c161.8,58.7,305.6,143.1,448.4,224.8c71.4,40.5,142.8,81.7,211.5,124.2
							c34.4,20.9,66,43.9,100.3,64.8c14.5,9.5,30.7,18.9,47,25.7c19.9,8.8,41.6,10.1,62.4,16.2c15.4,4.7,24.4-9.5,19-18.2
							c-9.9-16.2-12.7-31.7-27.1-46.6c-11.8-11.5-24.4-22.3-38.9-32.4c-33.4-24.3-70.5-46.6-106.7-68.9
							c-69.6-42.5-141-83.7-217-119.5c-155.5-73.6-324.5-124.2-490.9-181.6C8959.9,1402.2,8950.8,1413.7,8961.7,1417L8961.7,1417z"
							/>
					</g>
				</g>
				<g>
					<g>
						<path class="st1" d="M9979.6,1956.4c-5.4,8.8-0.9,18.2,4.5,26.3c-0.9-3.4-2.7-6.1-3.6-9.5c-0.9,2,0,4.7,0,6.8
							c2.7-5.4,6.3-10.8,9-16.2l-0.9,0.7c-9,5.4-13.6,18.2-9,26.3c6.3,10.8,12.7,20.3,23.5,29c24.4,18.2,71.4,0,59.7-26.3
							c-3.6-8.8-9.9-16.2-17.2-23c-3.6-4.1-8.1-7.4-13.6-10.1c-6.3-2.7-13.6-3.4-19.9-5.4c3.6,1.4,7.2,3.4,10.8,4.7
							c-7.2-7.4-17.2-11.5-28.9-12.2C9986.8,1947,9982.3,1951.7,9979.6,1956.4L9979.6,1956.4z"/>
					</g>
				</g>
				<g>
					<g>
						<path class="st1" d="M10129.6,2081.3c-10.8,20.9,19.9,43.9,47,41.2c-4.5-0.7-9.9-0.7-14.5-1.4c6.3,2,10.8,3.4,18.1,4.1
							c4.5,0,10.8-2.7,10.8-6.1c0.9-4.7,0.9-8.8-0.9-13.5c0,2.7,0,4.7,0,7.4c3.6-6.1,0-12.8-3.6-18.2c0.9,2.7,1.8,6.1,3.6,8.8
							c-0.9-9.5-6.3-16.9-16.3-23c-2.7-2-6.3-4.1-9.9-5.4c-7.2-3.4-14.5-2-22.6-1.4C10135.1,2073.9,10131.5,2078,10129.6,2081.3
							L10129.6,2081.3z"/>
					</g>
				</g>
				<g>
					<g>
						<path class="st1" d="M10221.9,2167.1c0,2,0.9,4.1,0.9,6.1c1.8-2,2.7-4.1,4.5-6.1c-11.8,4.1-13.6,15.5-9,23.6
							c2.7,6.1,9,10.8,18.1,10.8c0,0,0,0,0.9,0c-2.7-0.7-5.4-1.4-8.1-1.4c0.9,0,0.9,0.7,1.8,0.7c6.3,3.4,16.3,1.4,19.9-4.1
							c0-0.7,0.9-0.7,0.9-1.4c-1.8,1.4-3.6,2.7-6.3,4.7c0,0,0,0,0.9,0c5.4-2,9.9-7.4,9-12.2c-0.9-6.1-1.8-10.1-7.2-14.9
							c-4.5-4.1-9-6.1-16.3-5.4c2.7,1.4,5.4,3.4,9,4.7c-0.9-2-1.8-4.1-2.7-5.4C10234.5,2159.7,10221,2159.7,10221.9,2167.1
							L10221.9,2167.1z"/>
					</g>
				</g>
				<g>
					<g>
						<path class="st1" d="M10986.6,2979.9c9,22.3,19,44.6,29.8,65.5c8.1,14.9,32.5,45.2,60.6,31.7c21.7-10.8,3.6-34.4-10.8-43.9
							c-28-17.6-50.6-32.4-66.9-58.1C10995.7,2970.4,10983.9,2973.8,10986.6,2979.9L10986.6,2979.9z"/>
					</g>
				</g>
				<g>
					<g>
						<path class="st1" d="M11124.1,3164.9c0.9,3.4,2.7,6.8,3.6,9.5c0-1.4,0.9-2.7,0.9-4.7c-0.9,0.7-0.9,1.4-1.8,2.7
							c1.8-1.4,2.7-2,4.5-3.4l0,0c-5.4,2.7-9.9,9.5-4.5,14.2c3.6,4.1,9,7.4,16.3,5.4c6.3-1.4,9.9-6.1,9.9-10.8
							c0-5.4-6.3-10.8-13.6-10.1c0,0,0,0-0.9,0c1.8,0.7,3.6,0.7,6.3,1.4c-2.7-0.7-2.7-2-4.5-4.1c-0.9-1.4-1.8-2.7-2.7-4.7
							C11133.1,3156.1,11122.2,3159.5,11124.1,3164.9L11124.1,3164.9z"/>
					</g>
				</g>
				<g>
					<g>
						<path class="st2" d="M3618.1-270.7C3742-179.6,3873-98.6,4026.7-36.5c151.9,61.4,314.6,107.3,480.9,143.1
							c371.5,80.3,760.3,104,1143.6,131c230.5,16.2,461,39.8,691.6,54c19,1.4,20.8-19.6,4.5-23.6c-188.9-44.6-386.9-62.1-583.1-80.3
							c-199.8-18.2-400.5-33.1-599.4-52.7C4815,101.3,4461.6,49.3,4137-56.7c-177.2-58.1-358.9-128.3-505.3-223.5
							C3622.6-285.6,3610-276.8,3618.1-270.7L3618.1-270.7z"/>
					</g>
				</g>
				<g>
					<g>
						<path class="st2" d="M2931.1-672.4c8.1,8.1,18.1,16.9,25.3,25.7c8.1,9.5,27.1-0.7,17.2-9.5c-9-7.4-16.3-16.2-24.4-23.6
							c-3.6-3.4-9-5.4-14.5-2.7C2931.1-681.2,2928.4-675.8,2931.1-672.4L2931.1-672.4z"/>
					</g>
				</g>
				<g>
					<g>
						<path class="st2" d="M3135.4-565.7c3.6,16.2,10.8,27,26.2,39.2c14.5,11.5,33.4,22.3,53.3,27c9,2,21.7,0,28-5.4
							c6.3-4.7,7.2-8.8,8.1-15.5c0.9-8.1-6.3-14.2-14.5-18.9c-13.6-7.4-28.9-12.2-42.5-18.9c-6.3-2.7-11.8-6.1-18.1-8.8
							c-7.2-3.4-15.4-5.4-23.5-8.1C3143.5-579.2,3133.6-573.2,3135.4-565.7L3135.4-565.7z"/>
					</g>
				</g>
				<g>
					<g>
						<path class="st2" d="M3392.1-422.6c0.9,1.4,2.7,2.7,3.6,4.1c0-3.4,0-6.8,0-10.1c-8.1,8.8,2.7,21.6,8.1,29.7
							c-0.9-3.4-2.7-6.8-3.6-10.1c0,8.8,6.3,16.9,14.5,23.6c9.9,7.4,22.6,9.5,35.3,7.4c8.1-1.4,16.3-7.4,18.1-13.5
							c2.7-9.5,0-19.6-9.9-26.3c-9-6.1-19-10.1-31.6-10.8c4.5,0.7,9,2,13.6,2.7c-10.8-4.1-28-11.5-39.8-6.1c4.5,0,9,0,13.6,0
							c-1.8-0.7-3.6-2-5.4-2.7C3398.4-439.5,3385.8-430,3392.1-422.6L3392.1-422.6z"/>
					</g>
				</g>
				<g>
					<g>
						<path class="st3" d="M12960.1,720.3c0,1.4,0.9,2.7,0.9,4.1c0-2,0.9-4.1,0.9-6.1v0.7c-2.7,7.4,0,16.9,8.1,22.3l0,0
							c3.6,2.7,8.1,4.7,13.6,6.1c5.4,1.4,10.8,1.4,16.3,0c9.9-2,18.1-8.1,20.8-15.5l0,0c1.8-4.1,1.8-8.1,0-12.2
							c-1.8-4.1-3.6-7.4-8.1-10.1c0,0,0,0-0.9-0.7c1.8,1.4,2.7,2.7,4.5,4.7c-0.9-1.4-1.8-2.7-2.7-3.4c-1.8-1.4-2.7-2.7-4.5-4.1
							c-2.7-2-5.4-3.4-9-4.7c-2.7-0.7-4.5-1.4-7.2-1.4c-3.6-0.7-8.1-0.7-11.8,0.7c-2.7,0.7-4.5,1.4-7.2,2c-1.8,1.4-3.6,2-5.4,3.4
							c-2.7,2-4.5,4.1-6.3,6.8C12960.1,714.9,12960.1,717.6,12960.1,720.3L12960.1,720.3z"/>
					</g>
				</g>
				<g>
					<g>
						<path class="st3" d="M13086.6,857.4v0.7c1.8-2,3.6-4.1,5.4-6.8l-0.9,0.7c-0.9,0.7-2.7,1.4-3.6,2c-1.8,1.4-2.7,2.7-3.6,4.1
							c-0.9,1.4-0.9,2-0.9,3.4c-0.9,2,0,3.4,0,5.4c0.9,1.4,0.9,2,1.8,3.4v0.7c0.9,1.4,0.9,2,1.8,3.4c0.9,0.7,1.8,2,2.7,2.7
							c3.6,2.7,9,4.1,14.5,4.1c-2.7-0.7-6.3-2-9-2.7c0.9,1.4,2.7,2,4.5,2.7c0.9,0.7,1.8,0.7,2.7,1.4c3.6,1.4,9,0.7,10.8-2
							c0-0.7,0.9-1.4,0.9-2c0,0,0,0,0-0.7c0.9-1.4,1.8-2.7,1.8-4.7c0-0.7,0-0.7,0-1.4c-1.8,2.7-4.5,5.4-6.3,8.1
							c1.8-0.7,2.7-1.4,4.5-2.7c1.8-1.4,2.7-2.7,3.6-4.1c0.9-1.4,0.9-2,0.9-3.4c0-2,0-4.1-0.9-6.1c-0.9-1.4-0.9-2-1.8-3.4
							s-0.9-2-1.8-3.4c-0.9-1.4-2.7-2.7-4.5-3.4c-2.7-1.4-7.2-2.7-10.8-2.7c-0.9,0-1.8,0-2.7,0c2.7,1.4,5.4,2.7,9,4.1
							c0,0,0-0.7-0.9-0.7c-1.8-2.7-7.2-4.7-10.8-3.4c-1.8,0.7-2.7,1.4-4.5,2C13087.5,853.3,13085.7,855.4,13086.6,857.4
							L13086.6,857.4z"/>
					</g>
				</g>
				<g>
					<g>
						<path class="st3" d="M13166.2,1008.6c0.9,0.7,1.8,0.7,2.7,1.4c1.8,0.7,3.6,1.4,5.4,1.4c-0.9,0-1.8-0.7-2.7-0.7l0,0
							c-0.9-0.7-1.8-0.7-2.7-1.4c0.9,0.7,1.8,1.4,1.8,2l0.9,0.7c0.9,0.7,0.9,0.7,1.8,1.4c1.8,1.4,3.6,2,5.4,2.7
							c2.7,1.4,5.4,1.4,8.1,0c2.7-1.4,3.6-2.7,3.6-5.4c0-2,0.9-3.4,0-5.4c0-2-0.9-4.1-1.8-5.4c0,1.4,0,3.4,0,4.7v-0.7
							c0-1.4,0.9-2.7,0.9-3.4c0-0.7,0-1.4,0-2c0-2-0.9-4.1-1.8-6.1c-1.8-2-3.6-3.4-6.3-4.7c-5.4-2-11.8-2-16.3,0
							c-5.4,2-8.1,6.1-8.1,10.8C13158.1,1001.9,13160.8,1005.9,13166.2,1008.6L13166.2,1008.6z"/>
					</g>
				</g>
				<g>
					<g>
						<path class="st3" d="M13272.9,1143.6c0.9,0.7,1.8,0.7,2.7,1.4c0.9,0.7,1.8,0.7,2.7,1.4c0.9,0,1.8,0.7,2.7,0.7c0,0,0,0,0.9,0
							c0,0,0.9,0,0.9,0.7c0.9,0,1.8,0.7,2.7,0.7c0.9,0,1.8,0,2.7,0c0.9,0,1.8-0.7,2.7-1.4c0.9-0.7,0.9-1.4,1.8-2c0-0.7,0-1.4,0-2
							s-0.9-1.4-0.9-2c0,0,0-0.7-0.9-0.7c0,0,0,0,0-0.7s-0.9-1.4-0.9-2c-0.9-0.7-0.9-1.4-1.8-2c-0.9-0.7-0.9-1.4-1.8-2
							c-0.9-1.4-1.8-2-3.6-2.7c-1.8-0.7-2.7-0.7-4.5-0.7c-0.9,0-1.8,0-2.7,0c-1.8,0-2.7,0.7-3.6,2c-0.9,0.7-1.8,1.4-1.8,2
							c-0.9,0.7-0.9,1.4-0.9,2.7c0,1.4,0,2,0.9,3.4C13271.1,1142.3,13272,1142.9,13272.9,1143.6L13272.9,1143.6z"/>
					</g>
				</g>
				<g>
					<g>
						<path class="st3" d="M13354.2,1242.2c14.5,0,14.5-16.9,0-16.9C13340.7,1225.3,13340.7,1242.2,13354.2,1242.2L13354.2,1242.2z"
							/>
					</g>
				</g>
				<g>
					<g>
						<path class="st3" d="M5234.5-1350.2l0.9,0.7c0,0,0,0,0,0.7c0.9,0.7,1.8,2,2.7,2.7c1.8,2,3.6,3.4,6.3,4.7
							c1.8,0.7,2.7,2,4.5,2.7c2.7,0.7,5.4,2,8.1,2.7c2.7,0,6.3,0.7,9,0.7c6.3,0,8.1-0.7,12.7-2c2.7-0.7,5.4-1.4,7.2-3.4
							c1.8-0.7,2.7-1.4,3.6-2c0.9-0.7,1.8-2,2.7-2.7c1.8-1.4,3.6-3.4,4.5-5.4c1.8-2,2.7-4.1,2.7-6.1c0-1.4,0.9-2.7,0.9-3.4
							c0,0,0,0,0-0.7l0,0c0-2-0.9-4.7-0.9-6.8c0,0,0,0,0-0.7s0-0.7-0.9-1.4c-1.8-4.7-4.5-8.1-9-11.5c-2.7-1.4-4.5-2.7-7.2-4.1
							c-5.4-2.7-11.8-3.4-18.1-3.4c-4.5,0-9,0.7-13.6,2c-4.5,1.4-8.1,2.7-10.8,5.4c-3.6,2.7-5.4,5.4-7.2,8.1
							c-1.8,3.4-3.6,6.8-2.7,10.1C5229-1359,5230.9-1354.9,5234.5-1350.2L5234.5-1350.2z"/>
					</g>
				</g>
				<g>
					<g>
						<path class="st3" d="M5495.7-1235.4c-0.9,1.4-2.7,2.7-3.6,3.4c3.6-2,7.2-4.1,10.8-6.1c-0.9,0-0.9,0-1.8,0
							C5500.3-1237.5,5497.5-1236.8,5495.7-1235.4c-2.7,0.7-5.4,2-6.3,4.1c-1.8,1.4-2.7,2.7-2.7,4.1c-1.8,2-1.8,4.7-1.8,6.8
							c0,2,0.9,4.7,0.9,6.8c0,0.7,0.9,1.4,0.9,2c0-3.4,0-6.8,0-10.1v0.7c0.9-1.4,1.8-3.4,2.7-4.7c-1.8,1.4-2.7,3.4-2.7,5.4
							c0,2-0.9,4.1-0.9,5.4c0,2.7,0.9,5.4,2.7,8.1c0.9,2.7,2.7,4.7,6.3,6.8c2.7,2,5.4,3.4,9,4.7c3.6,1.4,7.2,2,10.8,2
							c3.6,0,7.2-0.7,10.8-2c3.6-0.7,6.3-2,9-4.7c1.8-1.4,2.7-2.7,4.5-4.1c2.7-3.4,3.6-6.8,3.6-10.8c0-2-0.9-4.1-0.9-5.4
							c-0.9-3.4-3.6-6.8-7.2-9.5c-1.8-1.4-3.6-2-5.4-3.4c-3.6-1.4-7.2-2.7-10.8-2.7c-3.6-0.7-7.2-0.7-11.8,0.7c-2.7,0-5.4,1.4-7.2,2
							c1.8-0.7,4.5-1.4,6.3-2c0,0,0,0-0.9,0c2.7,0,4.5-0.7,7.2-0.7l0,0c4.5,0.7,9,2,13.6,2.7l-0.9-0.7c1.8,0.7,3.6,2,5.4,2.7
							c-0.9-0.7-1.8-1.4-2.7-2c0.9,1.4,2.7,2.7,3.6,3.4c-1.8-1.4-0.9-2-3.6-4.1c-1.8-0.7-3.6-2-4.5-2.7c-2.7-1.4-4.5-2-7.2-2
							c4.5,4.7,9,8.8,13.6,13.5v-0.7c0,1.4,0,2.7-0.9,3.4l0,0c0-1.4,0-2.7,0.9-3.4c0-2,0-3.4-1.8-5.4c0-1.4-0.9-2-2.7-2.7
							c-0.9-1.4-2.7-2.7-5.4-3.4c-1.8-0.7-2.7-0.7-4.5-1.4c-1.8,0-3.6,0-4.5-0.7c-2.7,0-4.5,0-7.2,1.4
							C5499.3-1238.1,5497.5-1236.8,5495.7-1235.4L5495.7-1235.4z"/>
					</g>
				</g>
				<g>
					<g>
						<path class="st3" d="M5696.4-1111.9c1.8,0,2.7,0,4.5,0.7c-0.9,0-1.8,0-3.6,0c0.9,0,1.8,0.7,2.7,0.7c0.9,0,2.7,0.7,3.6,0.7h0.9
							c0.9,0,2.7,0,3.6-0.7c0.9,0,1.8-0.7,2.7-1.4c0-0.7,0.9-0.7,0.9-1.4c0.9-0.7,0.9-2,0.9-3.4v-0.7c0-0.7,0-0.7,0-1.4s0-0.7,0-1.4
							c0-0.7-0.9-1.4-0.9-2c0,0.7,0,1.4,0,2.7c0-1.4,0-2-0.9-3.4c0-1.4,0-2-0.9-3.4c-0.9-0.7-0.9-2-1.8-2.7
							c-0.9-1.4-2.7-2.7-4.5-3.4c-0.9-0.7-1.8-1.4-3.6-1.4c-0.9-0.7-2.7-0.7-3.6-0.7c-1.8,0-2.7,0-4.5,0s-2.7,0-3.6,0.7
							c-1.8,0.7-3.6,1.4-5.4,2.7c-0.9,0.7-1.8,1.4-2.7,2.7c-0.9,0.7-0.9,2-1.8,2.7c0,1.4,0,2-0.9,3.4c0,1.4,0,2,0.9,3.4
							c0.9,0.7,0.9,2,1.8,2.7c0.9,1.4,2.7,2.7,4.5,3.4c0.9,0.7,1.8,1.4,3.6,1.4C5692.8-1112.6,5694.6-1111.9,5696.4-1111.9
							L5696.4-1111.9z"/>
					</g>
				</g>
				<g>
					<g>
						<path class="st2" d="M2000.9,2213.7C2000.9,2213.7,2000.9,2213,2000.9,2213.7C2001.8,2213,2001.8,2213,2000.9,2213.7
							c2.7-1.4,4.5-2,5.4-3.4c0.9-0.7,1.8-1.4,1.8-2c0.9-0.7,1.8-1.4,1.8-2c-3.6,2-8.1,4.7-11.8,6.8c1.8-0.7,3.6-1.4,5.4-2
							c0,0,0,0,0.9,0c0.9-0.7,2.7-1.4,3.6-2c1.8-1.4,2.7-2.7,3.6-4.1c0-0.7,0.9-1.4,0.9-1.4c0.9-2.7,0.9-4.7,0-7.4
							c-0.9-1.4-0.9-2-1.8-3.4c-1.8-2-3.6-3.4-6.3-4.7l-0.9-0.7c0.9,0.7,2.7,1.4,3.6,2c0,0,0,0-0.9,0c1.8,4.7,3.6,9.5,5.4,14.2
							c0-1.4,0.9-3.4,0.9-5.4c0,1.4-0.9,3.4-0.9,4.7c0,0,0,0,0-0.7l0,0c0-2,0.9-3.4,0.9-5.4c0-2-0.9-3.4-0.9-5.4
							c-0.9-1.4-1.8-3.4-2.7-4.7c-1.8-2-3.6-4.1-6.3-5.4c-1.8-1.4-3.6-2-5.4-2.7c-1.8-0.7-4.5-1.4-6.3-1.4c-2.7-0.7-4.5-0.7-7.2,0
							c-2.7,0-4.5,0.7-6.3,1.4c-1.8,0.7-4.5,1.4-5.4,2.7c-1.8,0.7-3.6,2-4.5,3.4c-1.8,1.4-2.7,2.7-3.6,4.1c-0.9,1.4-1.8,3.4-1.8,4.7
							c-0.9,2-0.9,3.4,0,5.4c0,2,0.9,3.4,1.8,4.7c0.9,1.4,1.8,3.4,3.6,4.1c0.9,1.4,2.7,2.7,4.5,3.4c1.8,1.4,3.6,2,5.4,2.7
							c1.8,0.7,4.5,1.4,6.3,1.4c2.7,0.7,4.5,0.7,7.2,0C1994.5,2215.7,1998.1,2215,2000.9,2213.7L2000.9,2213.7z"/>
					</g>
				</g>
				<g>
					<g>
						<path class="st2" d="M2125.6,2304.1c0.9,1.4,0.9,2.7,1.8,4.1c0,0.7,0.9,1.4,0.9,2.7c0.9,1.4,1.8,2.7,2.7,4.1
							c0.9,1.4,2.7,2,4.5,3.4c2.7,2,1.8,1.4,5.4,2c0.9,0.7,1.8,0.7,2.7,0.7h0.9c0,0,0,0,0.9,0c1.8,0,4.5,0.7,6.3,0.7
							c3.6,0,7.2-0.7,10.8-2c2.7-1.4,5.4-3.4,7.2-5.4c0,0,0-0.7,0.9-0.7c1.8-3.4,3.6-5.4,3.6-8.8c0-2.7-0.9-6.8-3.6-9.5
							c-0.9-1.4-1.8-2-3.6-3.4c-1.8-2-3.6-3.4-5.4-4.7s-4.5-2.7-7.2-2.7c-1.8,0-3.6-0.7-6.3-0.7c-2.7,0-6.3,0.7-9,1.4
							c-1.8,0.7-3.6,1.4-4.5,2c-2.7,1.4-4.5,2.7-5.4,4.7c-0.9,1.4-1.8,2.7-2.7,4.1C2123.8,2298,2123.8,2301.4,2125.6,2304.1
							L2125.6,2304.1z"/>
					</g>
				</g>
				<g>
					<g>
						<path class="st2" d="M3558.5,3210.1C3556.6,3208.8,3555.7,3208.8,3558.5,3210.1c-2.7-1.4-4.5-2.7-7.2-4.1
							c-3.6-1.4-8.1-2.7-11.8-4.1c-4.5-1.4-9-2-14.5-2.7c-15.4-2-28.9-1.4-43.4,0.7c-26.2,3.4-50.6,13.5-70.5,25.7
							c-18.1,10.8-34.4,25.7-45.2,41.9c-7.2,10.8-11.8,20.9-11.8,33.1c0,2.7,2.7,14.2,0.9,5.4c0.9,3.4,0.9,6.8,1.8,10.8
							c0,0.7,0.9,2,0.9,2.7c0.9,3.4,3.6,6.8,7.2,8.8c1.8,1.4,0.9,1.4-0.9-0.7c1.8,1.4,2.7,3.4,4.5,4.7c7.2,6.1,24.4,6.8,31.6,0
							c1.8-1.4,2.7-2.7,4.5-4.7c-2.7,2-2.7,2-0.9,0.7c3.6-3.4,4.5-6.8,8.1-10.8c-4.5,5.4,1.8-3.4,2.7-4.7c0.9-2.7,0.9-2-0.9,1.4
							c1.8-2,3.6-4.7,4.5-7.4c-1.8,3.4-1.8,3.4,0,0c1.8-2.7,3.6-6.1,5.4-8.8c0.9-2,1.8-3.4,2.7-5.4c2.7-6.1-2.7,4.1,0-0.7
							c4.5-6.1,9-12.2,14.5-18.2c-5.4,6.1-0.9,0.7,0.9-0.7c1.8-1.4,3.6-2.7,5.4-4.1c3.6-2.7,6.3-4.7,9.9-7.4
							c0.9-0.7,1.8-1.4,2.7-1.4c2.7-1.4,2.7-1.4-1.8,0.7c0-0.7,4.5-2.7,5.4-2.7c4.5-2,8.1-4.1,12.7-6.1c3.6-1.4,8.1-2.7,11.8-4.7
							c3.6-1.4,2.7-0.7-1.8,0.7c1.8-0.7,2.7-0.7,3.6-1.4c1.8-0.7,3.6-1.4,6.3-2c9-2.7,18.1-4.1,27.1-4.7c1.8,0,2.7-0.7,4.5-0.7
							c-3.6,0.7-4.5,0.7-1.8,0c0.9,0.7,9.9-0.7,12.7-1.4c0.9,0,7.2-0.7,1.8,0c6.3-0.7,9.9-1.4,15.4-3.4c-3.6,0.7-7.2,1.4-10.8,2
							c1.8,0,2.7,0,4.5,0C3568.4,3237.8,3575.6,3218.2,3558.5,3210.1L3558.5,3210.1z"/>
					</g>
				</g>
				<g>
					<g>
						<path class="st2" d="M3339.7,3068.3c-4.5-0.7-9-1.4-13.6-1.4c-1.8,0-1.8,0,0,0c-1.8,0-3.6-0.7-5.4-0.7c-1.8,0-3.6,0-5.4-0.7
							c-1.8,0-2.7,0-4.5,0c-2.7,0-1.8,0,0.9,0c-2.7,0-4.5-0.7-7.2-0.7c-1.8,0-6.3-0.7,0,0.7c-4.5-0.7-9-0.7-13.6,0
							c-7.2,0.7-14.5,1.4-20.8,3.4c-8.1,2-16.3,4.7-23.5,8.8c-15.4,7.4-28,16.9-37.1,28.4c-4.5,5.4-9,12.2-11.8,18.2
							c-0.9,1.4-0.9,2-0.9,3.4c-0.9,4.1-3.6,10.8-0.9,14.2c0,1.4,0,1.4,0-0.7s0-2.7,0-0.7c0,4.1,0.9,7.4,3.6,10.8
							c1.8,2,2.7,3.4,5.4,4.7c9,6.8,21.7,7.4,32.5,3.4c4.5-2,8.1-4.7,10.8-8.1c1.8-2,0.9-1.4-2.7,2c1.8-1.4,2.7-2.7,4.5-4.7
							c2.7-3.4,4.5-7.4,6.3-10.8c0.9-1.4,0.9-2,1.8-3.4c0-0.7,0.9-1.4,0.9-2c-0.9,1.4-0.9,2-1.8,3.4c0.9-2,2.7-4.7,4.5-6.1
							c1.8-2,3.6-4.1,4.5-6.1c0.9-0.7,0.9-1.4,1.8-2c-0.9,0.7-1.8,2-2.7,2.7c0.9-0.7,1.8-2,2.7-2.7c4.5-3.4,8.1-7.4,13.6-10.8
							c0.9-0.7,2.7-1.4,3.6-2c0.9-0.7,5.4-3.4,1.8-0.7c-3.6,2,0.9-0.7,1.8-0.7c0.9-0.7,2.7-1.4,3.6-2c5.4-2.7,9.9-5.4,15.4-7.4
							c2.7-0.7,5.4-2,8.1-2.7c3.6-1.4-0.9,0,0.9,0c1.8,0,2.7-0.7,4.5-0.7c1.8,0,2.7-0.7,4.5-0.7c0.9,0,0.9,0-0.9,0
							c0.9,0,1.8,0,2.7,0c3.6,0,6.3,0,9.9,0.7c8.1,0.7,16.3-5.4,17.2-11.5C3353.2,3076.4,3347.8,3069.7,3339.7,3068.3L3339.7,3068.3
							z"/>
					</g>
				</g>
				<g>
					<g>
						<path class="st2" d="M3129.1,2966.4c-3.6,2-7.2,3.4-11.8,5.4c1.8-0.7,3.6-1.4,4.5-1.4h-0.9c-0.9,0-1.8,0.7-2.7,0.7
							c-1.8,0.7-2.7,0.7-3.6,1.4c-0.9,0.7-1.8,0.7-3.6,1.4c3.6-0.7,8.1-1.4,11.8-2h-0.9c4.5,0.7,8.1,1.4,12.7,2.7l0,0
							c-1.8-0.7-3.6-1.4-6.3-2c-1.8,0-4.5-0.7-6.3-0.7c-1.8,0-4.5,0.7-6.3,0.7c-3.6,0.7-6.3,2-9,3.4c-1.8,0.7-3.6,2-4.5,3.4
							c-1.8,1.4-2.7,2.7-3.6,4.1c-0.9,1.4-1.8,3.4-1.8,4.7c-0.9,2.7-0.9,4.7,0,7.4l0,0c0.9,3.4,3.6,6.1,6.3,8.1
							c2.7,2,7.2,4.1,10.8,4.7l0,0c1.8,0,4.5,0.7,6.3,0.7c1.8,0,4.5-0.7,6.3-0.7c1.8-0.7,3.6-1.4,6.3-2c2.7-1.4,5.4-2.7,7.2-4.7
							c1.8-1.4,2.7-2.7,3.6-4.1c0.9-1.4,1.8-3.4,1.8-4.7c0.9-1.4,0.9-3.4,0-4.7c0-2.7-0.9-4.7-2.7-6.8l0,0c0.9,3.4,1.8,6.1,3.6,9.5
							v-0.7c-0.9,2.7-1.8,6.1-2.7,8.8c0.9-0.7,0.9-1.4,1.8-2.7c0-0.7,0.9-0.7,0.9-1.4c1.8-2.7,1.8-2.7,2.7-4.7
							c-0.9,1.4-1.8,2.7-1.8,3.4c2.7-2.7,4.5-5.4,7.2-8.8c0.9-1.4,0.9-2,1.8-3.4c0.9-2,0.9-3.4,0-5.4c0-1.4,0-2-0.9-3.4
							s-1.8-3.4-3.6-4.1c-0.9-0.7-2.7-1.4-3.6-2c-1.8-0.7-2.7-0.7-4.5-1.4c-2.7-0.7-4.5-0.7-7.2,0
							C3133.6,2965,3130.9,2965.7,3129.1,2966.4L3129.1,2966.4z"/>
					</g>
				</g>
				<g>
					<g>
						<path class="st2" d="M2975.4,2896.9c24.4,0,24.4-28.4,0-28.4C2951,2868.5,2951,2896.9,2975.4,2896.9L2975.4,2896.9z"/>
					</g>
				</g>
				<g>
					<g>
						<path class="st3" d="M4126.2,951.2c8.1,6.8,15.4,13.5,26.2,18.9c-4.5-4.7-9-9.5-14.5-13.5c5.4,19.6,37.1,23.6,57.9,29
							c19,4.7,38,10.1,57,14.9c37.1,10.1,74.1,20.3,112.1,29.7c19.9,4.7,47.9,10.1,64.2-2.7c21.7-16.9-7.2-35.8-27.1-42.5
							c-37.1-12.8-77.7-20.9-116.6-31.1c-20.8-5.4-40.7-10.8-61.5-15.5c-10.8-2.7-20.8-5.4-31.6-8.1c-7.2-2-14.5-4.1-21.7-4.1
							c-9.9,0-18.1,4.1-26.2,8.8c7.2-2,14.5-4.7,21.7-6.8c-11.8-0.7-22.6,1.4-34.4,2.7C4120.7,932.3,4118.9,944.5,4126.2,951.2
							L4126.2,951.2z"/>
					</g>
				</g>
				<g>
					<g>
						<path class="st3" d="M3689.5,795.9c0.9,1.4,1.8,2.7,2.7,4.7c-0.9-2-0.9-3.4-1.8-5.4c0,1.4,0,0.7,0-0.7
							c-0.9,1.4-0.9,2.7-0.9,4.1c0,2.7,0.9,4.1,1.8,6.1c0.9,1.4,1.8,2.7,1.8,3.4c0.9,1.4,1.8,4.7,0,0c0-1.4-0.9-2.7-0.9-4.1
							c0,4.7,1.8,8.1,5.4,11.5c2.7,2.7,5.4,5.4,8.1,7.4c6.3,4.7,14.5,8.1,22.6,10.8c7.2,2,13.6,3.4,21.7,4.1c4.5,0,9,0,13.6-0.7
							c8.1-1.4,14.5-4.7,18.1-9.5c-2.7,2-5.4,4.1-8.1,6.1c0.9,0,1.8-0.7,2.7-0.7c7.2-2.7,10.8-9.5,9.9-15.5
							c-0.9-2.7-1.8-4.7-3.6-7.4c-2.7-2.7-6.3-4.1-10.8-5.4h-0.9c1.8,0.7,3.6,1.4,5.4,1.4c-0.9,0-0.9-0.7-1.8-0.7
							c2.7,2,5.4,4.1,8.1,6.1c-4.5-6.1-11.8-8.8-19.9-10.1c-2.7-0.7-6.3-1.4-9-2c-6.3-1.4-12.7-2.7-19-4.7c1.8,0.7,3.6,1.4,6.3,2
							c-4.5-1.4-9-3.4-13.6-4.7c1.8,0.7,3.6,1.4,5.4,2c-1.8-0.7-3.6-1.4-5.4-2c-4.5-2-9-2.7-13.6-2.7c1.8,0,3.6,0.7,5.4,0.7
							c5.4,1.4,2.7,0.7,0.9,0c-0.9-0.7-1.8-0.7-2.7-1.4c-3.6-2-7.2-2.7-12.7-2.7c2.7,0.7,5.4,1.4,7.2,1.4c-0.9-0.7-0.9,0,0.9,0.7
							c0-0.7-0.9-0.7-0.9-1.4c-3.6-3.4-11.8-4.1-16.3-1.4C3691.3,786.5,3687.7,791.2,3689.5,795.9L3689.5,795.9z"/>
					</g>
				</g>
				<g>
					<g>
						<path class="st3" d="M3198.7,607.6c6.3,4.1,12.7,8.1,19,11.5c2.7,1.4,5.4,2.7,8.1,4.1c5.4,2.7,10.8,4.7,17.2,4.1
							c-1.8,0-3.6,0-4.5-0.7h0.9c-1.8-0.7-2.7-0.7-4.5-1.4c3.6,1.4,7.2,3.4,11.8,4.1c3.6,0.7,7.2,1.4,10.8,0.7c3.6,0,6.3-1.4,9-3.4
							c2.7-2,2.7-4.7,1.8-7.4c-0.9-2.7-1.8-5.4-3.6-8.1c-1.8-2.7-5.4-4.7-8.1-7.4c0.9,0.7,1.8,2,2.7,2.7v-0.7c0.9,1.4,0.9,2,1.8,3.4
							c-0.9-4.7-4.5-8.1-9-10.8c-2.7-1.4-4.5-3.4-7.2-4.7c-3.6-2-7.2-4.1-10.8-6.8c-2.7-1.4-5.4-3.4-8.1-4.7c-2.7-1.4-5.4-2-8.1-2
							c-2.7-0.7-5.4-0.7-8.1,0c-4.5,1.4-8.1,2.7-10.8,6.1c-2.7,2.7-4.5,6.1-4.5,9.5C3192.3,600.2,3194.1,605.6,3198.7,607.6
							L3198.7,607.6z"/>
					</g>
				</g>
				<path class="st1" d="M8788.1,4399.6c104-54,245.9-55.4,364.3-21.6c118.4,33.1,217,97.2,302.8,166.8
					c90.4,73.6,169,156.6,210.6,251.1s40.7,202.5-22.6,290.3c-76.8,106-230.5,163.4-386.9,168.1c-108.5,3.4-226-4.7-316.4-54.7
					c-79.6-43.9-124.8-112.7-160.9-179.6c-50.6-93.8-106.7-195.8-133.8-295C8614.5,4609.6,8651.6,4469.8,8788.1,4399.6z"/>
				<path class="st3" d="M5738.9,4562.3c6.3-87.1,108.5-162.7,224.2-170.8c115.7-8.1,233.2,49.3,274.8,131
					c54.2,106-28.9,239-171.8,275.4c-143.7,36.5-319.1-31.7-360.7-140.4c-41.6-108.7,59.7-236.3,207.9-260.6"/>
				<path class="st3" d="M1416,1419.7c41.6-51.3-10.8-128.9-91.3-133.7c-79.6-4.7-149.2,65.5-118.4,120.8
					c29.8,55.4,145.5,69.5,198,24.3"/>
				<path class="st3" d="M1527.2-2094.2c66,41.2,46.1,129.6-26.2,164c-72.3,34.4-173.6,18.9-237.8-24.3
					c-64.2-43.2-94.9-107.3-105.8-170.8c-7.2-43.2-4.5-91.1,33.4-124.2c61.5-54,186.2-38.5,251.3,12.8
					c65.1,51.3,86.8,124.9,105.8,193.8"/>
				<path class="st3" d="M10371.9,258.6c-31.6-60.1-42.5-138.4,23.5-180.3c98.5-62.8,247.7,4.1,328.2,54
					c79.6,49.3,179,99.9,232.3,166.8c48.8,61.4,29.8,149.2-31.6,203.2c-75,66.2-213.3,27-293.8-10.8
					C10514.8,436.1,10423.5,353.8,10371.9,258.6z"/>
				<path class="st3" d="M7526.1,365.2c57,14.9,123.8,50,104.9,92.5c-11.8,25.7-50.6,37.8-85,45.9
					c-156.4,36.5-320.9,51.3-484.5,45.9c-80.5-2.7-160.9-10.8-239.6-23.6c-69.6-11.5-158.2-23-210.6-62.1
					c-70.5-54-48.8-143.8,52.4-159.3c104.9-16.2,218.8,2.7,324.5,1.4C7171.8,303.1,7351.6,319.3,7526.1,365.2z"/>
				<path class="st2" d="M685.5,4409.8c-66.9,10.1-133.8-22.3-171.8-64.1c-37.1-42.5-51.5-93.2-68.7-142.4
					c-57-170.1-150.1-332.8-273-482c-42.5-51.3-94.9-111.4-89.5-174.9c4.5-55.4,57-95.2,126.6-110
					c155.5-32.4,271.2,69.5,367.9,143.8c67.8,52,125.7,108,160,176.9c47.9,97.2,78.6,207.3,91.3,309.9
					C841.9,4160.7,861.8,4383.4,685.5,4409.8z"/>
				<g>
					<g>
						<path class="st1" d="M12714.2,2051.6c-0.9,128.9,106.7,245.1,226,332.2c136.5,99.2,303.7,170.8,454.7,257.2
							c36.2,20.3,72.3,41.9,104,66.2c13.6,10.8,24.4,21.6,35.3,35.1c5.4,6.8,8.1,12.2,10.8,17.6c1.8,3.4,2.7,6.1,3.6,9.5
							c0.9,1.4,0.9,3.4,1.8,4.7c1.8,4.7,0-0.7,0.9,3.4c0,3.4,0,6.8,0,10.1c0,0.7-0.9,5.4,0,2.7c0.9-2.7-1.8,4.7-0.9,4.1
							c-1.8,6.1-4.5,10.1-10.8,16.2c1.8-2-0.9,0.7-0.9,1.4c-1.8,1.4-3.6,2.7-5.4,4.1c-3.6,2.7-1.8,2-7.2,4.7
							c-8.1,4.1-14.5,6.1-21.7,8.1c-35.3,8.8-76.8,7.4-114.8,2.7c-85.9-11.5-162.7-44.6-231.4-84.4c-69.6-39.8-132.9-86.4-193.5-133
							c-119.3-91.8-230.5-196.5-292-316.6c-15.4-30.4-28-61.4-37.1-93.2c-4.5-14.9-8.1-29.7-9.9-43.9c-0.9-6.1-0.9-12.2-0.9-18.2
							c0-3.4,0-6.8,0-9.5c0-1.4,0-2.7,0-4.1c0-0.7,0.9-6.8,0-2.7c0.9-6.1,2.7-12.2,5.4-17.6c0-0.7,4.5-8.8,2.7-5.4
							c1.8-2.7,3.6-6.1,6.3-8.8c0.9-1.4,6.3-6.8,2.7-3.4c1.8-2,4.5-3.4,7.2-5.4c5.4-4.1-2.7,1.4,0.9-0.7c1.8-0.7,2.7-1.4,4.5-2
							c0.9-0.7,6.3-2,1.8-0.7c1.8-0.7,4.5-1.4,6.3-1.4c12.7-2.7,28,1.4,39.8,8.8c15.4,9.5,24.4,23,30.7,36.5
							c7.2,16.2,9.9,33.8,15.4,50.6c4.5,16.2,10.8,32.4,17.2,47.9c14.5,31.7,34.4,62.8,57,92.5c46.1,58.1,105.8,110,170.9,156.6
							c73.2,52,152.8,97.2,232.3,143.1c38,21.6,76.8,43.2,112.1,66.8c15.4,10.8,29.8,21.6,40.7,33.8c5.4,6.1,9.9,12.2,11.8,16.2
							c1.8,3.4,2.7,6.8,3.6,10.8c0,0.7,0.9,4.7,0,0.7c0,2.7,0,4.7,0,7.4c0,0.7-0.9,4.7,0,0.7c0,1.4-0.9,3.4-1.8,4.7
							c-0.9,1.4-0.9,3.4-1.8,4.7c0.9-2.7-0.9,0.7-0.9,1.4c-0.9,1.4-2.7,3.4-3.6,4.7c-2.7,3.4,2.7-2,0,0.7c-1.8,1.4-3.6,2.7-4.5,4.1
							c-0.9,0.7-7.2,4.1-2.7,2c-2.7,1.4-6.3,3.4-9.9,4.7c-1.8,0.7-3.6,1.4-5.4,2c4.5-1.4,0,0-0.9,0c-4.5,0.7-8.1,2-12.7,2.7
							c-1.8,0-8.1,0.7-1.8,0.7c-2.7,0-5.4,0.7-7.2,0.7c-4.5,0-9,0-13.6,0c-1.8,0-3.6,0-6.3-0.7c5.4,0.7,0.9,0-0.9,0
							c-9.9-2-19.9-4.1-27.1-6.8c-19-6.8-34.4-15.5-48.8-25.7c-34.4-23-66-48.6-96.7-73.6c-31.6-25.7-62.4-52-92.2-79
							c-116.6-106-217-222.8-301.9-345c-9.9-14.9-20.8-29-31.6-43.2c-10.8-14.9-25.3-29.7-34.4-45.2c-3.6-6.8-17.2-8.1-25.3-4.7
							c-9,4.1-10.8,12.2-6.3,18.9c4.5,7.4,6.3,16.2,9.9,24.3c3.6,9.5,8.1,18.2,13.6,27c9,18.2,19.9,35.1,30.7,52.7
							c20.8,32.4,43.4,64.1,66.9,95.2c47.9,63.5,102.2,124.2,160,182.3c58.8,58.7,122.9,115.4,190.7,169.5
							c62.4,49.3,137.4,114.1,237.8,99.2c43.4-6.1,82.3-31.1,89.5-64.1c8.1-37.8-19-71.6-52.4-98.6c-34.4-27.7-77.7-50-117.5-72.9
							c-40.7-23-81.4-45.9-121.1-69.5c-147.4-85.7-298.3-187.7-354.4-325.4c-14.5-35.1-17.2-72.9-38.9-106.7
							c-20.8-31.7-66-57.4-115.7-51.3c-40.7,4.7-66.9,29-78.6,57.4c-12.7,29.7-9,60.1-2.7,89.8c28.9,137.7,125.7,260.6,242.3,367.3
							c58.8,53.3,122.9,103.3,190.7,151.2c68.7,48.6,141.9,95.9,225.1,129.6c80.5,32.4,178.1,54.7,270.3,40.5
							c45.2-6.8,85.9-26.3,103.1-59.4c17.2-32.4,3.6-68.9-19-97.9c-23.5-30.4-57.9-54-93.1-77c-39.8-25-82.3-48.6-124.8-71.6
							c-82.3-43.2-167.2-83.7-249.5-126.9c-144.6-76.3-286.6-172.8-349.8-300.4c-14.5-29.7-26.2-60.8-32.5-91.8
							C12731.4,2041.5,12714.2,2043.5,12714.2,2051.6L12714.2,2051.6z"/>
					</g>
				</g>
				<g>
					<g>
						<path class="st1" d="M12669.9,2192.1c25.3,48.6,50.6,97.2,85,143.1c34.4,46.6,73.2,89.8,116.6,131.6
							c85.9,82.4,189.8,154.6,304.6,214c31.6,16.2,64.2,32.4,99.4,45.2c18.1,6.8,37.1,14.2,57,19.6c8.1,2,17.2,4.7,26.2,6.1
							c9.9,2,19.9,2,30.7,4.1c13.6,2,19-10.1,9-15.5c-6.3-4.1-10.8-8.8-18.1-12.8c-7.2-4.1-14.5-7.4-20.8-11.5
							c-14.5-7.4-28.9-14.2-43.4-20.9c-28-13.5-57-27-85-41.2c-56-28.4-106.7-57.4-157.3-91.1c-100.3-66.8-188.9-143.8-262.2-227.5
							c-41.6-47.3-81.4-96.5-111.2-149.2c-3.6-5.4-9.9-9.5-19-8.1C12673.5,2179.9,12667.2,2186.7,12669.9,2192.1L12669.9,2192.1z"/>
					</g>
				</g>
				<g>
					<g>
						<path class="st1" d="M13327.1,2707.8c28,43.2,87.7,68.2,150.1,72.9c-8.1-6.1-16.3-12.2-25.3-18.9c-0.9,12.8-1.8,25-2.7,37.8
							c9-6.8,18.1-13.5,28-20.9c-49.7,1.4-96.7-6.1-141-23.6c-21.7-8.8-42.5-18.2-61.5-30.4c-9.9-6.1-19-10.8-28-18.2
							c-9-7.4-18.1-14.9-27.1-21.6c-9-7.4-26.2,0-22.6,9.5c3.6,10.8,10.8,20.3,18.1,29.7c7.2,8.8,15.4,18.2,24.4,25.7
							c19,16.2,43.4,30.4,67.8,40.5c49.7,21.6,111.2,32.4,169,28.4c14.5-0.7,28-8.8,28-20.9c-0.9-12.8-1.8-25-2.7-37.8
							c-0.9-10.1-10.8-18.9-25.3-18.9c-51.5,0.7-98.5-18.2-131.1-46.6C13336.1,2688.9,13321.7,2699.7,13327.1,2707.8L13327.1,2707.8
							z"/>
					</g>
				</g>
				<g>
					<g>
						<path class="st1" d="M12692.5,2099.6c0.9,18.2,1.8,36.5,3.6,54.7c0.9,8.8,1.8,17.6,3.6,26.3c1.8,8.8,5.4,25,21.7,23.6
							c15.4-1.4,15.4-16.9,14.5-25.7c-0.9-8.8-2.7-17.6-3.6-26.3c-3.6-18.2-7.2-37.1-11.8-55.4
							C12717.8,2085.4,12691.6,2088.1,12692.5,2099.6L12692.5,2099.6z"/>
					</g>
				</g>
				<g>
					<g>
						<path class="st1" d="M12680.7,2109c-0.9,5.4-1.8,10.8-1.8,16.2c0,1.4,0,3.4-0.9,4.7c0.9-2.7,0,0.7-0.9,1.4
							c-0.9,3.4-0.9,6.8-1.8,10.1c-0.9,5.4-1.8,10.8-1.8,15.5c-0.9,6.1-0.9,14.2,1.8,20.3c2.7,6.8,10.8,12.2,20.8,11.5
							c9.9,0,17.2-4.7,20.8-11.5c2.7-5.4,2.7-13.5,1.8-19.6c-0.9-5.4-1.8-10.8-1.8-16.2c-0.9-3.4-0.9-6.8-1.8-10.1
							c0,0-0.9-4.1-0.9-1.4c0-1.4,0-2.7-0.9-4.1c-0.9-5.4-1.8-11.5-1.8-16.9c-0.9-6.1-6.3-11.5-15.4-11.5
							C12687.1,2098.2,12681.6,2102.9,12680.7,2109L12680.7,2109z"/>
					</g>
				</g>
				<g>
					<g>
						<path class="st1" d="M12539.7,1880.2c0,0.7,0,1.4,0,2c0-1.4,0.9-2.7,0.9-4.1C12540.6,1878.8,12539.7,1879.5,12539.7,1880.2
							c9-4.1,18.1-8.1,27.1-11.5c-1.8-0.7-4.5-1.4-7.2-1.4c-4.5-0.7-9-0.7-12.7,0.7c-5.4,1.4-5.4,1.4-8.1,2.7
							c-0.9,0-0.9,0.7-1.8,0.7c2.7-0.7,5.4-1.4,8.1-2.7c-1.8,0.7-2.7,0.7-4.5,0.7c2.7,0,6.3-0.7,9-0.7h-0.9c2.7,0,6.3,0.7,9,0.7
							h-0.9c2.7,0.7,5.4,2,8.1,2.7c-0.9,0-0.9,0-0.9-0.7c-1.8-0.7-2.7-0.7-4.5-1.4c-4.5-1.4-9-2.7-13.6-2c-3.6,0-6.3,0.7-9.9,0.7
							c2.7,0,6.3-0.7,9-0.7c-0.9,0-1.8,0-3.6,0c2.7,0,6.3,0.7,9,0.7c-3.6-0.7-7.2-1.4-10.8-0.7c-0.9,0-0.9,0-1.8,0
							c2.7,0,5.4,0.7,9,0.7l0,0c2.7,0.7,5.4,1.4,8.1,2.7c-0.9,0-0.9-0.7-1.8-0.7c1.8,1.4,4.5,2.7,6.3,4.1c-0.9-0.7-1.8-1.4-1.8-1.4
							c1.8,1.4,3.6,3.4,5.4,4.7c-1.8-1.4-3.6-3.4-5.4-5.4c-3.6-2.7-9-4.7-14.5-6.1h-0.9c2.7,0.7,4.5,1.4,7.2,2h-0.9
							c3.6,2.7,7.2,5.4,10.8,8.1l0,0c0.9,2,1.8,3.4,2.7,5.4c-0.9-1.4-0.9-2-0.9-3.4c0,2,0.9,4.1,0.9,5.4c0-1.4,0-2.7,0-3.4
							c0,2-0.9,3.4-0.9,5.4c0.9-2.7,1.8-4.7,1.8-7.4c0-0.7,0-1.4,0-2c0,1.4-0.9,3.4-0.9,4.7c0-0.7,0-1.4,0.9-1.4
							c0.9-2,0.9-3.4,0.9-5.4c0,1.4-0.9,2.7-0.9,4.1c0-0.7,0-0.7,0-1.4c1.8-4.7,0-10.8-4.5-14.2c-4.5-3.4-11.8-6.1-19-5.4
							c-2.7,0-6.3,0.7-9,0.7c-2.7,0.7-4.5,1.4-7.2,2c-0.9,0-0.9,0-1.8,0.7c-1.8,1.4-3.6,2-5.4,3.4c-1.8,1.4-2.7,2.7-4.5,4.1
							c0,0,0,0,0,0.7c0,0-0.9,0.7-0.9,1.4c-1.8,2-2.7,4.7-4.5,7.4c0,0.7-0.9,1.4-0.9,2c-0.9,2.7-0.9,5.4-0.9,8.1
							c0-2,0.9-4.1,0.9-6.1l0,0c0.9-2,1.8-3.4,2.7-5.4c0,0.7-0.9,0.7-0.9,1.4c-0.9,0.7-2.7,4.7-3.6,6.1c0,1.4-0.9,2-0.9,3.4
							c-0.9,2-0.9,4.1,0,6.1c0.9,4.1,0.9,3.4,2.7,6.8c0.9,1.4,1.8,3.4,2.7,4.7c1.8,2,4.5,4.1,6.3,6.8c-1.8-1.4-3.6-3.4-5.4-4.7
							l0.9,0.7c1.8,2,3.6,3.4,5.4,5.4c0.9,1.4,1.8,1.4,3.6,2c1.8,0.7,2.7,2,4.5,2.7c2.7,1.4,6.3,2,9,2.7c0.9,0,0.9,0,1.8,0h0.9
							c2.7,0,6.3,0.7,9,0.7s6.3-0.7,9-0.7c7.2-1.4,11.8-4.1,17.2-7.4c-2.7,1.4-4.5,2.7-7.2,4.1l0,0c-2.7,0.7-5.4,1.4-8.1,2.7
							c3.6-1.4,8.1-2,11.8-4.1c3.6-2,7.2-3.4,9.9-6.1c2.7-2,5.4-4.7,6.3-8.1c1.8-2.7,2.7-6.1,2.7-9.5c0-2-0.9-4.1-0.9-6.8
							c-1.8-4.1-4.5-7.4-8.1-10.8c-0.9-0.7-0.9-0.7-1.8-1.4c1.8,4.1,4.5,8.1,6.3,11.5c0-2,0-4.1-0.9-6.1c-0.9-2-1.8-4.1-2.7-6.1
							c-0.9-1.4-1.8-2-3.6-3.4c-1.8-1.4-4.5-2.7-6.3-3.4c-1.8-0.7-3.6-1.4-5.4-1.4c-2.7-0.7-5.4-0.7-8.1,0c-3.6,0.7-6.3,2-9,4.1
							c-1.8,1.4-3.6,3.4-4.5,4.7C12540.6,1876.1,12539.7,1878.1,12539.7,1880.2L12539.7,1880.2z"/>
					</g>
				</g>
				<g>
					<g>
						<path class="st1" d="M12389.7,1654.7c1.8,0.7,2.7,1.4,4.5,2c0.9,0.7,1.8,0.7,3.6,1.4c0.9,0.7,1.8,0.7,3.6,0.7
							c0.9,0,1.8,0,2.7,0c-1.8-0.7-2.7-0.7-4.5-1.4c1.8,0.7,3.6,2,5.4,2.7c1.8,0.7,3.6,2,5.4,2.7s3.6,1.4,5.4,2s3.6,1.4,5.4,2
							c0.9,0,1.8,0.7,2.7,0.7c9,2,18.1-4.7,15.4-11.5c0-0.7-0.9-1.4-0.9-2c-0.9-1.4-1.8-2.7-2.7-4.7c-0.9-1.4-1.8-2.7-2.7-4.1
							c-0.9-1.4-2.7-2.7-3.6-4.1c-0.9-1.4-2.7-2.7-3.6-4.1c0.9,1.4,0.9,2,1.8,3.4c0-0.7,0-1.4,0-2c0-2-1.8-3.4-2.7-5.4
							c-0.9-1.4-1.8-2-2.7-3.4c-4.5-5.4-11.8-8.8-20.8-8.8c-6.3,0-11.8,2-16.3,5.4c-2.7,1.4-3.6,3.4-4.5,5.4c-1.8,2-1.8,4.1-1.8,6.8
							C12377.9,1645.2,12382.4,1651.3,12389.7,1654.7L12389.7,1654.7z"/>
					</g>
				</g>
			</g>
		</g>
	</g>
</g>
</svg>
