<?xml version="1.0" encoding="utf-8"?>
<!-- Generator: Adobe Illustrator 26.0.1, SVG Export Plug-In . SVG Version: 6.00 Build 0)  -->
<svg version="1.1" id="Layer_1" xmlns="http://www.w3.org/2000/svg" xmlns:xlink="http://www.w3.org/1999/xlink" x="0px" y="0px"
	 viewBox="0 0 1246 1190" style="enable-background:new 0 0 1246 1190;" xml:space="preserve">
<style type="text/css">
	.st0{clip-path:url(#SVGID_00000034784541880735316840000016730384392886660259_);}
	.st1{opacity:0.4;}
	.st2{opacity:0.4;fill:#EBEBEB;enable-background:new    ;}
	.st3{fill:#0054D1;}
	.st4{fill:#C8C8C8;}
	.st5{opacity:0.2;enable-background:new    ;}
	.st6{opacity:0.1;enable-background:new    ;}
	.st7{fill:#C7C7C7;}
	.st8{fill:#37474F;}
	.st9{fill:#263238;}
	.st10{fill:#F7A9A0;}
	.st11{fill:#A6A6A6;}
	.st12{fill:#FF9ABB;}
	.st13{opacity:0.2;}
	.st14{opacity:0.1;fill:#0054D1;enable-background:new    ;}
	.st15{opacity:0.2;fill:#FFFFFF;enable-background:new    ;}
</style>
<g>
	<defs>
		<rect id="SVGID_1_" width="1246" height="1190"/>
	</defs>
	<clipPath id="SVGID_00000174559891684647030860000000999588351957166778_">
		<use xlink:href="#SVGID_1_"  style="overflow:visible;"/>
	</clipPath>
	<g style="clip-path:url(#SVGID_00000174559891684647030860000000999588351957166778_);">
		<g class="st1">
			<path class="st2" d="M9.5,569.2c-2.5,20.5-1,41.3,4.4,61.3c5.6,19.5,16,37.8,30.8,50c3.6,3,7.5,5.8,11.6,8.1
				c4,2.2,8.2,4.1,12.6,5.6c8.5,2.8,17.5,4,26.4,3.5c17.8-1,34.9-7.7,50.5-17.4c0.9-0.6,2-1.2,2.8-1.8l2.2-1.7
				c1.5-1.2,2.9-2.4,4.3-3.7c3-2.6,5.7-5.5,8.2-8.6c5.5-6.6,10.3-13.8,14.4-21.3c9.1-16.6,17-33.8,23.6-51.6
				c14.1-36.7,26.6-76,40.6-115.6c3.5-9.9,7.1-19.9,10.9-29.8c3.7-10,7.7-20,11.9-30.1c8.4-21,18.4-41.2,29.9-60.7
				c3.1-5.2,6.5-10.3,10.5-15.4c1.9-2.6,4.1-5.2,6.3-7.7c2.3-2.5,4.6-4.8,7-7.1c9.3-8.5,19.8-15.7,31.1-21.4
				c21.5-11,42.8-16.9,63.4-23c20.6-6.1,40.8-11.5,60.2-18.8c19.1-6.9,37.5-16,54.6-27c16.6-10.8,31.4-24.3,43.5-40
				c11.9-15.7,21.3-33,25.5-50.5c2.1-8.3,3-16.9,2.6-25.5c-0.4-7.7-2.3-15.3-5.6-22.2c-3-6.2-7.2-11.7-12.4-16.1
				c-5.2-4.5-11.3-7.8-17.8-9.8c-6.7-2.1-13.6-3.2-20.6-3.2c-7.5,0-14.9,0.9-22.2,2.6c-1.9,0.4-3.8,1-5.7,1.5l-6.7,2
				c-4.4,1.4-8.9,2.9-13.1,4.5c-8.7,3.2-17.2,6.8-25.7,10.9c-16.9,8.1-33.9,18.3-52.7,29.3c-19.8,11.8-40.4,22.2-61.7,31
				c-22.1,8.7-45,15.3-68.3,19.6c-2.9,0.6-5.8,1-8.6,1.5l-7.9,1.3c-4.3,0.7-8.6,1.5-12.9,2.6c-8.7,1.9-17.3,4.3-25.7,7
				c-33.8,11.1-64.2,28.8-87.4,53.6c-11.9,12.6-22.2,26.7-30.7,41.9c-4.5,8-8.5,16.2-11.9,24.6c-3.7,8.8-6.9,17.7-9.6,26.8
				c-2.6,9.2-5.2,18.8-7.1,28.5c-1,4.6-2,10.5-3,16c-1,5.5-2.3,11-3.6,16.4c-5.2,21.5-11.8,42.6-20,63.2
				c-7.9,20.4-17,39.9-26.2,59.1c-4.6,9.6-9.2,19.1-13.4,28.8C14.4,549.7,11.3,559.3,9.5,569.2L9.5,569.2z M1.3,568.3
				c0.7-5.5,1.9-11,3.6-16.3c1.6-5.2,3.4-10.2,5.2-15.2c3.7-10,7.5-19.9,10.9-29.8c3.4-10,6.5-19.9,9.1-30
				c2.6-10.1,4.6-20.3,6.3-30.4c3.1-20.2,4.2-40.7,3.3-61.1c-0.2-5.1-0.6-10.1-0.9-15.1s-1-9.7-1.5-15.7c-1-11.5-1.3-23-1-34.5
				c0.5-24,4.4-47.7,11.7-70.5c7.6-23.8,19.3-46.2,34.5-66.1c15.5-20,34-37.4,54.8-51.7c20.4-14,42.7-25.2,66.1-33.3
				c11.5-4,23.3-7.4,35.3-9.9c6-1.3,12-2.4,18.2-3.3l14.9-2.2c18.3-2.8,36.4-7.1,53.9-12.9c18.3-6.2,36.1-13.7,53.3-22.4
				c18.3-8.9,38.5-19.2,60.4-27.7c11-4.3,22.3-8.1,33.7-11.2c5.7-1.6,11.5-3,17.2-4.2l8.7-1.8c3.3-0.6,6.5-1.1,9.9-1.5
				c13.6-1.8,27.4-1.7,40.9,0.4c14.1,2.1,27.7,6.7,40.2,13.5c12.8,7,24,16.5,33,27.9c8.9,11.3,15.3,24.3,18.7,38.2
				c3.2,13.2,4,26.8,2.1,40.3c-1.6,12.5-5.1,24.7-10.2,36.3c-9.9,21.3-23.4,40.6-40,57.3c-7.9,8.1-16.3,15.7-25.1,22.7
				c-8.8,6.9-18,13.2-27.6,19c-38.1,23-79.8,36.2-117.9,52.8c-19.1,8.2-37.4,17.5-51.9,29c-6.8,5.4-12.7,11.7-17.7,18.7
				c-1.1,1.7-2.2,3.4-3.1,5.1c-1,1.7-1.8,3.4-2.8,5.2c-1.8,3.7-3.5,7.9-5.2,12.2c-3.2,8.6-6.1,18-8.8,27.6
				c-2.6,9.6-5.2,19.5-7.9,29.4l-7.6,30.2c-2.6,10.1-5.2,20.4-8,30.6c-11.3,40.9-24.5,82.4-44.5,122.9c-10.3,21.1-23,40.8-38,58.9
				c-4,4.6-8.2,9.2-12.8,13.6c-4.6,4.5-9.4,8.7-14.6,12.6c-5.3,4-10.9,7.7-16.8,10.8c-3,1.6-6.1,3-9.2,4.3l-4.8,1.9
				c-1.5,0.6-2.9,1-4.4,1.5c-11.6,3.8-23.6,6.3-35.8,7.5c-12.3,1.2-24.8,0.7-37-1.7c-12.1-2.3-23.7-6.8-34.3-13.1
				c-5.2-3-10.1-6.5-14.6-10.5c-4.5-3.8-8.6-8-12.3-12.6c-14-17.7-23.4-38.6-27.4-60.8C-0.3,611.6-1.1,589.9,1.3,568.3L1.3,568.3z"
				/>
			<path class="st2" d="M816.3,1093.2c-23.9,3.8-47.3,10.7-69.4,20.6c-22.3,9.5-43.9,21-65.5,32.7c-10.9,5.8-21.8,11.8-33,17.3
				c-11.4,5.9-23.2,11.2-35.2,15.7c-12.9,4.9-26.5,8.2-40.2,9.8c-15.8,1.8-31.8,0-46.8-5.2c-4-1.4-7.9-3.3-11.7-5.1
				c-3.8-1.8-7.3-4.2-11-6.5c-3.6-2.3-6.8-5-10-7.7c-3.3-2.7-6.1-5.6-9-8.5c-11-11.3-20.3-24.2-27.6-38.2
				c-7.1-13.7-12.5-28.2-16.1-43.3c-3.3-14.1-5.5-28.5-6.4-43c-1.4-26.6-0.9-53.2,1.5-79.6l3-37c0.5-6,0.8-12,1.2-17.9l0.5-8.8
				l0.3-8.7c0.4-11.3,0.2-22.6-0.5-33.9c-0.6-10.7-2.2-21.3-4.6-31.7c-2.8-10.9-6.5-21.5-11.2-31.8c-4.7-10.8-10.2-21.7-16.1-32.6
				c-11.8-21.9-25.1-43.7-38.2-66.3l-9.7-17.1c-3.1-5.8-6.3-11.6-9.2-17.6c-6.2-12.1-11.5-24.6-15.7-37.5c-4.5-13.4-6.9-27.5-7-41.6
				c0.1-14.4,3.4-28.7,9.8-41.6c3.1-6.2,6.8-12.1,11.1-17.6l6.5-7.9c2.2-2.6,4.5-4.7,6.8-7.1c9.2-9.3,19.3-17.7,30.1-25.1
				c11-7.3,22.6-13.6,34.8-18.7c3.1-1.2,6.1-2.6,9.2-3.6l9.4-3.2c6.3-1.8,12.7-3.6,19.2-4.9c26.1-5.4,52.8-6.9,79.3-4.4
				c13.3,1.1,26.4,2.9,39.5,5.5c13.1,2.4,25.9,5.8,38.7,9.6c6.3,2,12.7,3.8,18.9,6.1l9.4,3.3l9.3,3.5c12.4,4.8,24.5,10,36.5,15.7
				c6,2.9,11.9,5.8,17.8,8.8c5.9,3,11.7,6.2,17.4,9.4s11.5,6.5,17.2,9.9c5.6,3.4,11.3,6.8,16.8,10.5l31.8,20.6
				c5.2,3.4,10.5,6.5,15.7,9.8l7.9,4.8l7.9,4.7c41.7,24.9,85,47.2,129.4,66.9c22.3,9.9,44.9,19.4,68.7,30.2
				c11.9,5.2,24.1,11.3,36.7,18.3c13.4,7.5,26.1,16.3,37.9,26.2c12.6,10.6,23.7,22.9,33.1,36.3c9,12.9,16.5,26.7,22.6,41.1
				c3.1,6.9,5.5,13.7,8,20.6c1.2,3.4,2.2,6.8,3.3,10.2c1.1,3.4,2.2,6.7,3.1,10.5l2.8,10.7l1.4,5.4l1.1,5.6
				c1.6,7.4,2.7,14.9,3.3,22.5c0.4,3.8,0.7,7.7,1,11.5v17.3c0,1.9-0.3,3.9-0.5,5.9l-1.2,11.8c-0.6,3.9-1.5,7.9-2.3,11.7l-1.2,5.8
				c-0.5,1.9-1.1,3.8-1.7,5.7c-1.2,3.8-2.3,7.6-3.6,11.3c-1.3,3.7-3.1,7.3-4.7,10.8c-6.5,13.8-15,26.6-25.3,37.9l-3.7,4.1
				c-1.3,1.3-2.6,2.6-3.9,3.8c-2.6,2.5-5.2,5-7.9,7.4c-5.6,4.4-11,9-16.9,12.7c-11.2,7.6-23.1,14.2-35.4,19.8
				c-11.9,5.3-24.2,9.9-36.7,13.9c-24.2,7.5-48.8,13.5-73.7,18c-6.2,1.1-12.3,2.3-18.3,3.2c-6.1,0.9-12.2,2.2-18.3,3
				c-6.1,0.9-12.3,1.9-18.3,2.8l-18.3,2.6L816.3,1093.2z M814.9,1085.2c24.3-3.5,48.4-7.9,72.1-13.6l8.9-2.1l8.9-2.4
				c5.9-1.5,11.7-3.3,17.6-5.1c11.7-3.4,23.2-7.4,34.5-11.6c22.4-8.3,44.1-18.6,64.6-30.8c10-5.9,19.6-12.4,28.8-19.4
				c8.7-6.8,16.9-14.3,24.5-22.4c3.9-3.8,6.9-8.1,10.2-12.1l4.4-6.3c0.7-1,1.5-2.1,2.1-3.1l1.8-3.2c4.9-8.2,8.7-17.1,11.1-26.4
				c0.5-2.3,1.1-4.5,1.7-6.7l1-6.9c0.2-1.2,0.4-2.3,0.5-3.4l0.1-3.5c0-2.4,0.3-4.6,0.3-7l-0.3-7.1c0-1.2,0-2.3-0.1-3.5l-0.4-3.6
				l-0.8-7.2l-1.4-7.4c-2.1-10.2-4.9-20.2-8.5-30c-0.7-2.5-1.8-5.2-2.8-7.9s-2-5.2-3.1-7.9c-2.2-5-4.3-10.1-6.7-14.7
				c-4.2-8.9-9.3-17.3-15.2-25.2c-5.5-7.1-11.8-13.6-18.8-19.3c-14.1-11.5-33.5-21.5-55.4-31.8c-10.9-5.2-22.2-10.3-33.7-15.7
				c-11.5-5.4-23.1-11-34.7-16.6c-46.8-23.2-91.9-49.7-135-79.2l-8.1-5.5l-7.9-5.6c-5.2-3.8-10.7-7.5-15.9-11.3l-30.6-22.6
				c-9.7-7.2-19.6-14.1-29.6-21l-15-10c-5.1-3.2-10.1-6.4-15.2-9.6c-10.2-6.1-20.5-12.4-31-17.9l-7.9-4.3l-7.9-4.1
				c-5.2-2.8-10.6-5.2-16-7.7c-21.3-9.9-43.4-17.7-66.2-23.3c-11.2-2.6-22.6-4.5-34.1-5.5c-11.3-1.1-22.7-1.1-34.1,0
				c-22.7,1.9-44.6,8.8-64.3,20.1c-9.8,5.8-19,12.7-27.3,20.5c-2,2-4.2,4-6.1,6l-5.4,6.2c-3.3,4.2-6.2,8.8-8.7,13.5
				c-4.9,9.5-7.4,20-7.2,30.7c0.4,11.3,2.7,22.4,7,32.8c4.5,11.1,9.9,21.8,16.2,31.9c6.4,10.3,13.5,20.5,21.1,30.4
				c15,20,31.4,39.5,47.6,60.3c8,10.5,15.9,21.3,23.4,32.9c7.9,12,14.7,24.6,20.5,37.7c11.9,28.2,16.5,56.7,18.3,84.1
				c3.6,54.7-3.4,105-2.4,150.2c0.5,22.5,2.9,43.3,9.5,61.7c3.3,9.2,7.7,18.1,13.2,26.2c4.6,7.3,10.7,13.5,17.9,18.3
				c7.9,4.9,16.7,7.9,25.9,8.9c10.8,1.1,21.8,0.9,32.6-0.7c11.7-1.7,23.2-4,34.6-7c11.6-3.2,23.3-6.7,34.8-10.5
				c23.3-7.6,46.4-16.3,69.8-24c23.4-8.2,47.5-14.4,72-18.5H814.9z"/>
			<path class="st2" d="M704,173.1c7.8-2,15.8-3.4,23.8-4.3c3.8-0.5,7.5-0.8,11.3-1.1c3.7-0.3,7.4-0.4,11.1-0.5
				c7.3-0.3,14.4,0,21.5,0.2c28.1,1.1,55,5.4,81.6,9.5l9.4,1.4l4.2,0.6l4.3,0.3c2.9,0.3,5.8,0.2,8.7,0.3c2.9,0.1,6-0.3,9-0.5
				c3.1-0.2,6.1-0.6,9.2-1c3.1-0.5,6.2-0.9,9.3-1.5c6.2-1.3,12.5-2.6,18.8-4.4c25.3-6.7,50.2-16.6,78.1-22.9
				c14.7-3.5,29.9-4.7,45-3.4c12.3,1.2,24.2,4.6,35.3,10c1.9,0.9,3.8,1.8,5.6,2.6l5.2,3.1c6.9,4.3,13.5,9.2,19.6,14.6
				c3.1,2.6,6,5.9,9,9c3,3.1,5.4,6.5,8,9.9c2.7,3.3,4.7,6.9,7,10.5c1.2,1.8,2.1,3.6,3,5.2l2.9,5.4l1.4,2.8l1.2,2.8l2.3,5.6
				c1.6,3.7,2.9,7.5,4.1,11.3c4.7,14.9,7.4,30.3,8.2,45.9c0.7,15-0.1,30.1-2.5,45c-2.4,14.6-6.3,29-11.6,42.8
				c-1.3,3.4-2.8,6.8-4.2,10.2c-1.4,3.4-3.2,6.7-4.7,10c-1.6,3.3-3.3,6.5-5.2,9.7c-1.9,3.2-3.6,6.4-5.6,9.5
				c-7.7,12.4-16.5,24.1-26.1,35c-9.4,10.8-19.6,20.9-30.6,30.1c-10.7,9-22.1,17-34.3,23.9c-12.1,6.8-25,11.8-38.5,14.8
				c-13.9,2.9-28.2,2.6-41.9-1c-13.8-3.7-27-9.3-39.3-16.6c-24.4-14.6-47.2-31.7-68.1-51c-10.5-9.4-20.3-19.3-29.6-29.3
				c-0.9-1-1.9-1.8-2.9-2.6l-2.4-2.1c-1.9-1.3-3.3-2.6-5.2-3.9l-2.6-1.9c-1-0.6-2-1.2-2.9-1.8c-1.8-1.3-4.1-2.3-5.9-3.5
				c-9.3-5.1-18.9-9.6-28.8-13.5l-17.2-6.8l-9.2-3.6l-9.6-4c-6.5-2.6-13.4-5.9-20.4-9.4c-7.5-3.8-14.7-8.1-21.6-12.9
				c-7.8-5.4-15-11.5-21.6-18.3c-7.1-7.5-13.2-15.9-18-25l-1.9-3.5l-1.6-3.5c-1-2.4-2.1-4.8-3-7.2c-1.7-4.7-3.1-9.6-4.2-14.5
				l-1.5-7.2l-0.9-7c-0.6-4.6-0.9-9.2-0.9-13.8c0-1.2,0-2.1,0-3.5c0-1.9,0-3.7,0.2-5.5c0.2-3.8,0.8-7.6,1.7-11.3
				c0.2-0.9,0.4-1.9,0.7-2.8l0.9-2.9c0.6-1.9,1.3-3.8,2-5.6c1.6-3.6,3.4-7.1,5.6-10.5c1.1-1.6,2.2-3.1,3.3-4.7
				c0.6-0.8,1.2-1.5,1.7-2.2l1.8-2c1.2-1.3,2.4-2.6,3.7-3.8c1.3-1.2,2.4-2.2,3.7-3.3c1.3-1.1,2.6-2.1,3.8-3l3.7-2.6
				c1.2-0.8,2.6-1.7,3.7-2.4l3.6-2C685.9,178.9,694.8,175.5,704,173.1L704,173.1z"/>
			<path class="st2" d="M320.4,867.5c1.5,8.7,2.1,17.6,1.9,26.4c-0.2,16.9-4.1,32.4-8.2,47.5c-4.2,15.1-9.4,29.8-15.8,44
				c-6.5,14.3-14.7,27.8-24.5,40.1c-10.1,12.9-21.9,24.3-35.1,34.1c-14.8,10.3-31.7,17.1-49.6,19.7c-9.5,1.4-19.1,1.6-28.6,0.6
				c-9.2-1-18.1-3.4-26.6-7.2c-7.5-3.4-14.6-7.7-21-12.9c-5.7-4.7-11.1-9.8-16.1-15.1c-2.6-2.9-5-6-7-9.2c-1.9-3.4-3.5-7-4.9-10.8
				c-2.5-7.7-4.3-15.6-5.2-23.6c-2.3-16.6-2.5-33.4-0.6-50c1.8-16,7-31.4,15.2-45.2c8-13,18.5-24.3,31-33.2
				c12.4-9,27-15.5,41.2-21.4c14.2-5.9,28.5-11.1,41.8-17.4c13.3-6.3,26.2-13.3,42.4-18.3c4.3-1.4,8.8-2.3,13.3-2.9
				c5.2-0.7,10.5-0.6,15.7,0.2c7,1.4,13.6,4.6,19,9.2c1.3,1.2,2.6,2.4,3.8,3.7c1.1,1.3,2.3,2.6,3.3,4c1.9,2.5,3.5,5.2,5,7.9
				c1.4,2.6,2.6,5.2,3.7,7.9c0.9,2.4,1.9,5.2,2.6,7.5l1.1,3.7l0.9,3.6C319.6,862.9,320,865.2,320.4,867.5z"/>
		</g>
		<path class="st3" d="M379.4,543.6c0,4.3-0.9,8.5-2.5,12.4c-1.6,3.9-4.1,7.5-7.1,10.5c-3,3-6.6,5.3-10.6,6.9
			c-3.9,1.6-8.2,2.4-12.4,2.3H341v44.2c-0.2,8.3-3.7,16.2-9.7,22c-6,5.8-14,9.1-22.3,9.1s-16.3-3.2-22.3-9.1c-6-5.8-9.5-13.7-9.7-22
			v-44.2H93.7c-7.2,0.3-14.3-2.2-19.8-7c-3.4-2.5-6.2-5.7-8.3-9.4c-2.1-3.7-3.4-7.7-3.9-11.9c-0.5-4.2-0.1-8.4,1.1-12.5
			c1.2-4,3.2-7.8,5.9-11L283.9,256c0.6,0,0.6-0.6,1.2-1.2c0.7-0.7,1.3-1.5,1.8-2.3c1.1-0.3,2.1-0.9,2.9-1.8c0.6-0.6,1.7-1.2,2.3-1.8
			c1-0.7,2.2-1.1,3.5-1.2c0.6-1.2,1.2-1.8,2.3-1.8c0.6-0.6,1.7-0.6,3.5-1.2c0.8,0.1,1.6-0.1,2.3-0.6h9.9c0.9,0.5,1.9,0.7,2.9,0.6
			c0.6,0.6,2.3,0.6,3.5,1.2c0.6,0,1.7,0.6,2.3,0.6c1.2,1.2,2.3,1.7,2.9,2.3c1.2,0.6,1.8,1.2,2.9,1.8c0.2,0,0.3,0.1,0.4,0.2
			c0.1,0.1,0.2,0.3,0.2,0.4c0.6,0,1.8,0.6,1.8,1.2l2.3,2.3c0.6,0.6,1.2,1.7,1.8,2.3c0.9,0.9,1.7,1.9,2.3,2.9
			c0.1,0.9,0.5,1.7,1.2,2.3c0.5,1.1,0.9,2.3,1.2,3.5c0,0.6,0.6,1.7,0.6,2.3c0.5,1.1,0.7,2.3,0.6,3.5c0,1.2,0.6,1.7,0.6,2.9v236.9
			h5.8c8.6-0.1,16.8,3.3,22.9,9.3C375.8,526.8,379.3,535,379.4,543.6L379.4,543.6z M277,367.8L161.4,511.5h115.8L277,367.8z"/>
		<path class="st3" d="M1120.4,543.6c0,4.3-0.8,8.5-2.5,12.4c-1.6,3.9-4.1,7.5-7.1,10.5c-3,3-6.6,5.3-10.6,6.9
			c-4,1.6-8.2,2.4-12.4,2.3h-5.8v44.2c-0.2,8.3-3.7,16.2-9.7,22c-6,5.8-14,9.1-22.3,9.1c-8.3,0-16.3-3.2-22.3-9.1
			c-6-5.8-9.4-13.7-9.7-22v-44.2H834.6c-7.2,0.3-14.3-2.2-19.8-7c-3.4-2.5-6.2-5.7-8.3-9.4s-3.4-7.7-3.9-11.9
			c-0.5-4.2-0.1-8.4,1.1-12.5s3.2-7.8,5.9-11L1024.9,256c0.6,0,0.6-0.6,1.2-1.2c0.7-0.7,1.3-1.5,1.8-2.3c1.1-0.3,2.1-0.9,2.9-1.8
			c0.6-0.6,1.7-1.2,2.3-1.8c1-0.7,2.2-1.1,3.5-1.2c0.6-1.2,1.1-1.8,2.3-1.8c0.6-0.6,1.7-0.6,3.5-1.2c0.8,0.1,1.7-0.1,2.3-0.6h10
			c0.9,0.5,1.9,0.7,2.9,0.6c0.6,0.6,2.3,0.6,3.5,1.2c0.6,0,1.8,0.6,2.3,0.6c1.1,1.2,2.3,1.7,2.9,2.3c1.2,0.6,1.8,1.2,2.9,1.8
			c0.2,0,0.3,0.1,0.4,0.2c0.1,0.1,0.2,0.3,0.2,0.4c0.6,0,1.8,0.6,1.8,1.2l2.3,2.3c0.6,0.6,1.2,1.7,1.8,2.3c0.9,0.9,1.7,1.9,2.3,2.9
			c0.1,0.9,0.6,1.7,1.2,2.3c0.5,1.1,0.9,2.3,1.2,3.5c0,0.6,0.6,1.7,0.6,2.3c0.5,1.1,0.7,2.3,0.6,3.5c0,1.2,0.6,1.7,0.6,2.9v236.9
			h5.8c8.6,0,16.8,3.3,22.9,9.3C1116.8,526.8,1120.3,535,1120.4,543.6L1120.4,543.6z M1018,367.8L902.2,511.5H1018V367.8z"/>
		<path class="st4" d="M407.3,435.2l5.9-33.2c0.8-4.6-0.2-9.2-2.9-13c-2.6-3.8-6.7-6.4-11.2-7.2l0,0c-4.6-0.8-9.3,0.2-13.1,2.9
			c-3.8,2.7-6.4,6.7-7.2,11.3l-5.9,33.2c-0.8,4.6,0.2,9.3,2.9,13.1c2.6,3.8,6.7,6.4,11.2,7.2l0,0c4.6,0.8,9.3-0.2,13.1-2.9
			C403.9,443.8,406.5,439.7,407.3,435.2z"/>
		<path class="st4" d="M809.2,442.9l-4.8-33.4c-0.3-2.3-1.1-4.5-2.3-6.4c-1.2-2-2.7-3.7-4.6-5.1c-1.8-1.4-3.9-2.4-6.1-2.9
			c-2.2-0.6-4.5-0.7-6.8-0.4c-2.3,0.3-4.5,1.1-6.4,2.3c-2,1.2-3.7,2.7-5.1,4.6c-1.4,1.8-2.4,3.9-2.9,6.1c-0.6,2.2-0.7,4.5-0.4,6.8
			l4.8,33.4c0.7,4.6,3.1,8.7,6.8,11.5c3.7,2.8,8.4,4,13,3.3c4.6-0.7,8.7-3.1,11.5-6.8C808.7,452.1,809.9,447.4,809.2,442.9
			L809.2,442.9z"/>
		<path class="st4" d="M464.6,313.2l13.2-12.4c3.4-3.2,5.4-7.5,5.5-12.2c0.2-4.6-1.5-9.1-4.7-12.5l0,0c-3.2-3.4-7.5-5.4-12.2-5.5
			c-4.6-0.2-9.1,1.5-12.5,4.7l-13.2,12.4c-1.7,1.6-3,3.4-4,5.5c-0.9,2.1-1.5,4.3-1.6,6.6c-0.1,2.3,0.3,4.6,1.1,6.7
			c0.8,2.1,2,4.1,3.6,5.8c3.2,3.4,7.5,5.4,12.2,5.5C456.7,318,461.2,316.3,464.6,313.2L464.6,313.2z"/>
		<path class="st4" d="M483.2,588.5l-12.3-13.1c-1.6-1.7-3.4-3-5.5-4c-2.1-1-4.3-1.5-6.6-1.6c-2.3-0.1-4.6,0.3-6.7,1.1
			c-2.1,0.8-4.1,2-5.8,3.6l0,0c-3.4,3.2-5.4,7.5-5.5,12.2c-0.2,4.6,1.5,9.1,4.7,12.5l12.3,13.3c3.2,3.4,7.5,5.4,12.2,5.5
			c4.6,0.2,9.1-1.5,12.5-4.7l0,0c1.7-1.6,3.1-3.5,4-5.6c1-2.1,1.5-4.4,1.6-6.7s-0.3-4.6-1.1-6.8C486,592.1,484.7,590.1,483.2,588.5
			L483.2,588.5z"/>
		<path class="st4" d="M783.5,347.5l-23.8-34.2c-1.8-2.6-5.3-3.2-7.9-1.4l-19.4,13.5c-2.6,1.8-3.2,5.3-1.4,7.9l23.8,34.2
			c1.8,2.6,5.3,3.2,7.9,1.4l19.4-13.5C784.7,353.6,785.3,350,783.5,347.5z"/>
		<path class="st4" d="M660,650.3l17-6.2c2.2-0.8,4.1-2,5.8-3.5c1.7-1.5,3.1-3.4,4-5.5c1-2.1,1.5-4.3,1.6-6.6c0.1-2.3-0.2-4.6-1-6.7
			l0,0c-0.8-2.2-2-4.1-3.5-5.8c-1.5-1.7-3.4-3.1-5.5-4c-2.1-1-4.3-1.5-6.6-1.6c-2.3-0.1-4.6,0.2-6.7,1l-17,6.2
			c-4.4,1.6-7.9,4.8-9.9,9c-2,4.2-2.2,9-0.6,13.4l0,0c1.6,4.3,4.8,7.9,9,9.8C650.9,651.6,655.7,651.8,660,650.3z"/>
		<path class="st4" d="M626.3,645c109.6-19.1,183.1-123.4,164-233.1c-19.1-109.7-123.4-183.1-233.1-164
			C447.6,267,374.2,371.4,393.3,481C412.4,590.7,516.7,664.1,626.3,645z"/>
		<path class="st5" d="M572.7,293.9c6,7.6,9.3,17,9.5,26.7c0.3,9.9-2.1,19.7-6.9,28.4c-4.9,9-13.1,15.8-22.8,19
			c-9.3,2.9-19.4,2.4-28.4-1.3c8.9,0.3,17.8-1.5,25.9-5.1c3.8-1.7,7.2-4.1,10.2-7c3-2.9,5.5-6.2,7.5-9.8c1-1.8,2-3.8,2.9-5.7
			c0.9-1.9,1.6-4,2.2-6c1.3-4.1,2.2-8.3,2.6-12.6C576.2,311.5,575.3,302.5,572.7,293.9L572.7,293.9z"/>
		<path class="st5" d="M519.8,344.9c-4.6-5-7.3-11.4-7.6-18.2c-0.4-7,1.1-13.9,4.6-20c1.7-3.2,4-6,6.9-8.3c2.8-2.3,6-4,9.5-5
			c6.6-1.9,13.6-1.2,19.7,1.9c-6,0.3-11.9,1.9-17.3,4.5c-4.7,2.5-8.6,6.4-11.2,11.1C518.8,321.3,517.1,333.4,519.8,344.9
			L519.8,344.9z"/>
		<path class="st5" d="M592.7,567.2c2.5,4.1,3.4,9,2.6,13.8c-0.8,4.9-3,9.5-6.5,13.1c-1.8,1.9-3.9,3.4-6.2,4.5
			c-2.4,1.1-4.9,1.6-7.5,1.7c-4.9,0.1-9.6-1.6-13.3-4.7c4.2,0.7,8.5,0.6,12.7-0.3c3.7-0.9,7.1-2.8,9.6-5.6c2.7-2.9,4.9-6.2,6.3-9.9
			C591.9,575.7,592.6,571.5,592.7,567.2L592.7,567.2z"/>
		<path class="st5" d="M565.2,588.6c-2.1-2.7-3-6.2-2.6-9.6c0.4-3.6,2-6.9,4.5-9.5c1.3-1.4,2.8-2.5,4.5-3.2c1.7-0.7,3.6-1.1,5.4-1.1
			c1.7,0,3.4,0.4,5,1.1c1.6,0.7,3,1.7,4.2,3c-2.9-0.1-5.8,0.2-8.6,1c-2.2,0.7-4.3,2-5.9,3.7C568,578,565.7,583.2,565.2,588.6
			L565.2,588.6z"/>
		<path class="st5" d="M469,514.5c2.4,0.3,4.7,1.2,6.8,2.4c2.1,1.3,3.9,2.9,5.3,4.9c1.5,2.1,2.6,4.6,3.2,7.1
			c0.6,2.6,0.7,5.2,0.2,7.8c-0.5,2.7-1.5,5.2-3.1,7.4c-1.6,2.2-3.7,4-6.1,5.2c-4.2,2.3-9.1,3.1-13.9,2.3c3.5-2.3,6.8-4.9,9.8-7.9
			c2.4-2.3,4-5.3,4.6-8.5c0.6-3.4,0.3-6.8-0.8-10.1C473.6,521.3,471.6,517.7,469,514.5L469,514.5z"/>
		<path class="st5" d="M459.7,544.9c-1.8,0-3.5-0.4-5.1-1.1c-1.6-0.8-3-1.9-4.1-3.3c-1.2-1.5-2.1-3.3-2.6-5.2
			c-0.5-1.9-0.6-3.8-0.2-5.8c0.3-2,1.2-3.9,2.4-5.5c1.2-1.6,2.8-2.9,4.6-3.8c1.6-0.8,3.2-1.2,5-1.3c1.7-0.1,3.5,0.1,5.1,0.7
			c-2.1,1.9-4.2,4-6,6.2c-1.3,1.5-2.1,3.3-2.4,5.2c-0.3,2-0.3,4.1,0.2,6.1C457.2,539.9,458.3,542.5,459.7,544.9L459.7,544.9z"/>
		<path class="st5" d="M696.4,311.6c1.6,1.9,2.8,4,3.5,6.3c0.7,2.3,1,4.8,0.7,7.2c-0.3,2.6-1,5.2-2.3,7.5c-1.3,2.3-3,4.4-5,6
			c-2.1,1.7-4.6,2.8-7.2,3.4c-2.6,0.6-5.4,0.5-8-0.1c-4.7-1.1-8.9-3.7-11.9-7.5c4.1,0.6,8.3,0.8,12.5,0.6c3.3-0.1,6.5-1.2,9.1-3.3
			c2.7-2.1,4.8-4.9,6.1-8.1C695.3,319.8,696.2,315.7,696.4,311.6L696.4,311.6z"/>
		<path class="st5" d="M669.3,328.1c-1.3-1.2-2.4-2.6-3.1-4.3c-0.7-1.6-1-3.4-0.9-5.2c0.1-1.9,0.6-3.8,1.5-5.6
			c0.9-1.7,2.2-3.2,3.7-4.4c1.6-1.3,3.4-2.1,5.4-2.5c2-0.4,4-0.3,5.9,0.3c3.4,0.9,6.3,3.2,8,6.2c-2.9,0-5.8,0.2-8.6,0.7
			c-1.9,0.3-3.7,1-5.2,2.2c-1.6,1.3-3,2.9-4,4.7C670.8,322.7,669.8,325.3,669.3,328.1L669.3,328.1z"/>
		<path class="st4" d="M647,484.6c8.7-1.6,16.6-5.8,22.9-12c6.3-6.2,10.6-14.1,12.4-22.7c1.8-8.6,1-17.6-2.3-25.8
			c-3.3-8.2-8.9-15.2-16.2-20.2c-7.3-5-15.9-7.7-24.7-7.8s-17.4,2.4-24.8,7.3c-7.4,4.8-13.1,11.7-16.6,19.8
			c-3.5,8.1-4.4,17.1-2.8,25.7c2.2,11.6,8.9,21.9,18.7,28.5C623.4,484.3,635.4,486.8,647,484.6z"/>
		<path class="st6" d="M647,484.6c8.7-1.6,16.6-5.8,22.9-12c6.3-6.2,10.6-14.1,12.4-22.7c1.8-8.6,1-17.6-2.3-25.8
			c-3.3-8.2-8.9-15.2-16.2-20.2c-7.3-5-15.9-7.7-24.7-7.8s-17.4,2.4-24.8,7.3c-7.4,4.8-13.1,11.7-16.6,19.8
			c-3.5,8.1-4.4,17.1-2.8,25.7c2.2,11.6,8.9,21.9,18.7,28.5C623.4,484.3,635.4,486.8,647,484.6z"/>
		<path class="st5" d="M643.7,411.6c6.2-1.2,12.7-0.9,18.8,0.9c6.1,1.8,11.7,5,16.3,9.3c-3.2-6.8-8.1-12.6-14.1-17.1
			c-6.1-4.4-13.1-7.2-20.6-8.1c-7.4-0.9-15,0-22,2.8c-7,2.8-13.1,7.2-17.9,13c-4.8,5.8-8,12.7-9.4,20c-1.4,7.4-0.9,15,1.4,22.1
			c2.3,7.1,6.4,13.6,11.8,18.7c5.5,5.1,12.1,8.8,19.4,10.7c-6.3-4.7-11.1-11.1-13.8-18.5c-2.7-7.4-3.3-15.4-1.5-23
			c1.7-7.7,5.6-14.7,11.3-20.1C628.9,416.8,636,413.1,643.7,411.6L643.7,411.6z"/>
		<path class="st5" d="M693.4,411.6c7,9.6,10.8,21.1,11,33c0.3,12.1-2.7,24-8.6,34.6c-5.9,10.9-15.8,19.2-27.6,23.2
			c-11.4,3.6-23.6,3.3-34.8-0.9c11,0.7,22.1-1.2,32.3-5.5c2.4-1.1,4.7-2.4,6.9-3.8c2.1-1.5,4.2-3.1,6-5c3.8-3.6,7-7.8,9.5-12.3
			c1.3-2.3,2.5-4.7,3.6-7.2s2-5,2.6-7.5c1.6-5.1,2.7-10.4,3.1-15.7C698.3,433.3,696.9,422.1,693.4,411.6L693.4,411.6z"/>
		<path class="st4" d="M743.1,397.7c3.1-1.2,5.7-3.3,7.6-6c1.9-2.7,2.9-5.9,3-9.2c0.1-3.3-0.9-6.5-2.7-9.3c-1.8-2.8-4.4-4.9-7.4-6.3
			c-3-1.3-6.4-1.7-9.6-1.1c-3.2,0.6-6.2,2.2-8.6,4.5c-2.4,2.3-4,5.3-4.7,8.5c-0.7,3.2-0.4,6.6,0.9,9.7c0.8,2,2,3.9,3.5,5.4
			s3.3,2.8,5.3,3.7c2,0.9,4.2,1.3,6.3,1.3C738.9,398.9,741,398.5,743.1,397.7L743.1,397.7z"/>
		<path class="st6" d="M743.1,397.7c3.1-1.2,5.7-3.3,7.6-6c1.9-2.7,2.9-5.9,3-9.2c0.1-3.3-0.9-6.5-2.7-9.3c-1.8-2.8-4.4-4.9-7.4-6.3
			c-3-1.3-6.4-1.7-9.6-1.1c-3.2,0.6-6.2,2.2-8.6,4.5c-2.4,2.3-4,5.3-4.7,8.5c-0.7,3.2-0.4,6.6,0.9,9.7c0.8,2,2,3.9,3.5,5.4
			s3.3,2.8,5.3,3.7c2,0.9,4.2,1.3,6.3,1.3C738.9,398.9,741,398.5,743.1,397.7L743.1,397.7z"/>
		<path class="st5" d="M736.7,371.2c2.2-0.9,4.6-1.2,6.9-1c2.4,0.2,4.6,1,6.6,2.3c-1.7-2.2-3.8-4-6.4-5.2c-2.5-1.2-5.3-1.7-8.1-1.5
			c-2.8,0.2-5.5,1.1-7.8,2.6c-2.3,1.5-4.3,3.6-5.6,6c-1.3,2.4-2,5.2-2,8c0,2.8,0.7,5.5,2.1,8c1.3,2.4,3.3,4.5,5.6,6
			c2.4,1.5,5,2.4,7.8,2.6c-2.6-1.3-4.9-3.3-6.4-5.8c-1.5-2.5-2.3-5.4-2.2-8.3c0.1-2.9,1-5.8,2.7-8.2S734,372.3,736.7,371.2z"/>
		<path class="st5" d="M754.9,367.7c3.4,2.9,5.8,6.8,6.8,11.2c1,4.5,0.8,9.2-0.6,13.5c-1.4,4.6-4.6,8.4-8.7,10.7
			c-4,2.1-8.7,2.8-13.1,1.8c4-0.7,7.9-2.3,11.2-4.7c3-2.3,5.3-5.5,6.4-9.1c1.3-3.8,1.7-7.9,1.4-11.9
			C757.9,375.1,756.7,371.2,754.9,367.7L754.9,367.7z"/>
		<path class="st4" d="M711,551.5c4-2.5,7.1-6,9-10.3c1.9-4.2,2.6-9,1.8-13.6c-0.7-4.6-2.8-8.9-6-12.3c-3.2-3.4-7.3-5.8-11.8-6.9
			c-4.5-1.1-9.3-0.8-13.7,0.8c-4.4,1.6-8.2,4.5-10.9,8.3c-2.7,3.8-4.3,8.3-4.5,12.9c-0.2,4.7,1,9.3,3.5,13.2
			c1.6,2.6,3.8,4.9,6.3,6.8c2.5,1.8,5.4,3.1,8.4,3.8c3,0.7,6.1,0.8,9.2,0.3C705.4,554.3,708.3,553.2,711,551.5L711,551.5z"/>
		<path class="st6" d="M711,551.5c4-2.5,7.1-6,9-10.3c1.9-4.2,2.6-9,1.8-13.6c-0.7-4.6-2.8-8.9-6-12.3c-3.2-3.4-7.3-5.8-11.8-6.9
			c-4.5-1.1-9.3-0.8-13.7,0.8c-4.4,1.6-8.2,4.5-10.9,8.3c-2.7,3.8-4.3,8.3-4.5,12.9c-0.2,4.7,1,9.3,3.5,13.2
			c1.6,2.6,3.8,4.9,6.3,6.8c2.5,1.8,5.4,3.1,8.4,3.8c3,0.7,6.1,0.8,9.2,0.3C705.4,554.3,708.3,553.2,711,551.5L711,551.5z"/>
		<path class="st5" d="M695.5,516c2.9-1.8,6.1-2.8,9.5-3.1c3.4-0.3,6.7,0.2,9.8,1.5c-2.9-2.7-6.4-4.7-10.2-5.7
			c-3.8-1-7.8-1.1-11.7-0.1c-3.8,0.9-7.4,2.8-10.3,5.5c-2.9,2.7-5.1,6-6.4,9.8c-1.3,3.8-1.6,7.8-0.9,11.7c0.7,3.9,2.3,7.6,4.8,10.7
			s5.7,5.5,9.3,7c3.7,1.5,7.6,2.1,11.6,1.7c-4-1.1-7.6-3.4-10.3-6.5c-2.7-3.1-4.5-7-5.1-11.1c-0.6-4.1,0-8.3,1.8-12.1s4.5-7,8.1-9.2
			H695.5z"/>
		<path class="st5" d="M720.1,506.6c5.2,3.5,9.3,8.5,11.6,14.3c2.4,5.9,3.2,12.4,2.3,18.7c-0.9,6.5-4.2,12.5-9.2,16.7
			c-4.9,3.9-11,6.1-17.3,6.2c5.6-1.7,10.8-4.7,15-8.8c3.9-4,6.4-9.2,7.1-14.8c0.9-5.7,0.5-11.4-1.1-16.9
			C726.8,516.4,723.9,511.1,720.1,506.6z"/>
		<path class="st4" d="M492,425c0.5,18.2-15.7,33.4-36.2,34.1c-20.5,0.6-37.6-13.7-38.2-31.8c-0.5-18.1,15.7-33.4,36.2-34.1
			C474.2,392.6,491.5,406.8,492,425z"/>
		<path class="st6" d="M492,425c0.5,18.2-15.7,33.4-36.2,34.1c-20.5,0.6-37.6-13.7-38.2-31.8c-0.5-18.1,15.7-33.4,36.2-34.1
			C474.2,392.6,491.5,406.8,492,425z"/>
		<path class="st5" d="M431.9,434.6c0.2,4.9,1.7,9.6,4.2,13.7c2.5,4.1,6.1,7.6,10.3,10c-16.2-3.1-28.5-15.7-28.9-31.1
			c-0.5-18.2,15.7-33.4,36.2-34.1c6.7-0.3,13.5,1.1,19.5,4.2c6,3.1,11,7.8,14.6,13.5c-6.6-5-14.8-7.6-23.1-7.3
			C446.2,404.2,431.4,418.1,431.9,434.6z"/>
		<path class="st5" d="M487.5,397.4c4.3,1.8,8.3,4.4,11.6,7.7c3.3,3.3,5.9,7.2,7.7,11.6c1.9,4.5,2.8,9.4,2.6,14.3
			c-0.2,4.9-1.3,9.7-3.2,14.3c-2.2,4.4-5.1,8.5-8.7,11.8c-3.5,3.2-7.5,5.9-11.9,7.9c-8.3,3.9-17.5,5.7-26.6,5.4
			c8.3-2.8,16.2-6.5,23.6-11c6.9-4.1,12.6-10.1,16.2-17.3c1.6-3.6,2.6-7.5,2.9-11.4c0.5-3.9,0.2-7.9-0.8-11.8
			C498.5,410.6,493.9,403.2,487.5,397.4L487.5,397.4z"/>
		<path class="st3" d="M619.2,1015.2l10.6,2l2.4,11.2l2.4-11.2l10.6-2l-10.6-2.6l-2.4-10.6l-2.4,10.6L619.2,1015.2z"/>
		<path class="st3" d="M381.4,621.3l10.6,2l2.4,11.2l2.4-11.2l10.6-2l-10.6-2.6l-2.4-10.6l-2.4,10.6L381.4,621.3z"/>
		<path class="st3" d="M972.1,616.7l10.6,2l2.4,11.2l2.4-11.2l10.6-2l-10.6-2.6l-2.4-10.6l-2.4,10.6L972.1,616.7z"/>
		<path class="st3" d="M1087,916.9l5.9,1.1l1.3,6.3l1.3-6.3l5.9-1.1l-5.9-1.4l-1.4-5.9l-1.4,5.9L1087,916.9z"/>
		<path class="st3" d="M1005.7,189.3l6,1.1l1.3,6.3l1.3-6.3l5.9-1.1l-5.9-1.4l-1.3-5.9l-1.4,5.9L1005.7,189.3z"/>
		<path class="st3" d="M1122.8,375.7l5.9,1.1l1.3,6.3l1.3-6.3l5.9-1.1l-5.9-1.5l-1.3-5.9l-1.4,5.9L1122.8,375.7z"/>
		<path class="st3" d="M215.3,459.7l5.9,1.1l1.3,6.3l1.3-6.3l5.9-1.1l-5.9-1.4l-1.3-5.9l-1.4,5.9L215.3,459.7z"/>
		<path class="st3" d="M63.7,947.9l5.9,1.1l1.3,6.3l1.3-6.3l5.9-1.1l-5.9-1.4l-1.4-5.9l-1.3,5.9L63.7,947.9z"/>
		<path class="st3" d="M1049.6,793.5l6,1.1l1.3,6.3l1.3-6.3l5.9-1.1l-5.9-1.4l-1.3-5.9l-1.4,5.9L1049.6,793.5z"/>
		<path class="st3" d="M239.1,984.1l5.9,1.1l1.3,6.3l1.3-6.3l5.9-1.1l-5.9-1.4l-1.4-5.9l-1.4,5.9L239.1,984.1z"/>
		<path class="st3" d="M448.5,214.7l5.9,1.1l1.3,6.3l1.3-6.3l5.9-1.1l-5.9-1.4l-1.4-5.9l-1.3,5.9L448.5,214.7z"/>
		<path class="st3" d="M800.3,390.4l5.9,1.1l1.3,6.3l1.3-6.3l5.9-1.1L809,389l-1.4-5.9l-1.4,5.9L800.3,390.4z"/>
		<path class="st3" d="M328.1,861.6l5.9,1.1l1.3,6.3l1.3-6.3l5.9-1.1l-5.9-1.4l-1.3-5.9l-1.4,5.9L328.1,861.6z"/>
		<path class="st3" d="M71,1055.4c0.5,0,0.9,0.2,1.2,0.5c0.3,0.3,0.5,0.8,0.5,1.2c0,0.5-0.2,0.9-0.5,1.2c-0.3,0.3-0.8,0.5-1.2,0.5
			c-0.5,0-0.9-0.2-1.2-0.5c-0.3-0.3-0.5-0.8-0.5-1.2c0-0.5,0.2-0.9,0.5-1.2C70.1,1055.6,70.5,1055.4,71,1055.4L71,1055.4z"/>
		<path class="st3" d="M929.3,845.7c0.5,0,0.9,0.2,1.2,0.5c0.3,0.3,0.5,0.8,0.5,1.2c0,0.5-0.2,0.9-0.5,1.2c-0.3,0.3-0.8,0.5-1.2,0.5
			c-0.5,0-0.9-0.2-1.2-0.5c-0.3-0.3-0.5-0.8-0.5-1.2c0-0.5,0.2-0.9,0.5-1.2C928.4,845.9,928.8,845.7,929.3,845.7z"/>
		<path class="st3" d="M945.6,599.3c0.4,0.1,0.8,0.3,1.1,0.6c0.3,0.3,0.4,0.7,0.4,1.1s-0.2,0.8-0.4,1.1c-0.3,0.3-0.7,0.5-1.1,0.6
			c-0.4-0.1-0.8-0.3-1.1-0.6c-0.3-0.3-0.4-0.7-0.4-1.1s0.2-0.8,0.4-1.1C944.8,599.6,945.2,599.4,945.6,599.3L945.6,599.3z"/>
		<path class="st3" d="M825.1,472.3c0.5,0,0.9,0.2,1.2,0.5c0.3,0.3,0.5,0.8,0.5,1.2c0,0.5-0.2,0.9-0.5,1.2c-0.3,0.3-0.8,0.5-1.2,0.5
			c-0.5,0-0.9-0.2-1.2-0.5c-0.3-0.3-0.5-0.8-0.5-1.2c0-0.5,0.2-0.9,0.5-1.2C824.2,472.4,824.6,472.3,825.1,472.3L825.1,472.3z"/>
		<path class="st3" d="M293.2,1078.8c0.4,0.1,0.8,0.3,1.1,0.6c0.3,0.3,0.4,0.7,0.4,1.2s-0.2,0.8-0.4,1.2c-0.3,0.3-0.7,0.5-1.1,0.6
			c-0.4-0.1-0.8-0.3-1.1-0.6c-0.3-0.3-0.4-0.7-0.4-1.2s0.2-0.8,0.4-1.2C292.4,1079,292.8,1078.8,293.2,1078.8L293.2,1078.8z"/>
		<path class="st3" d="M222.6,978.9c0.4,0.1,0.8,0.3,1.1,0.6c0.3,0.3,0.4,0.7,0.4,1.1s-0.2,0.8-0.4,1.1c-0.3,0.3-0.7,0.5-1.1,0.6
			c-0.4-0.1-0.8-0.3-1.1-0.6c-0.3-0.3-0.4-0.7-0.4-1.1s0.2-0.8,0.4-1.1C221.8,979.1,222.1,978.9,222.6,978.9L222.6,978.9z"/>
		<path class="st3" d="M400.1,933.1c0.5,0,0.9,0.2,1.2,0.5c0.3,0.3,0.5,0.8,0.5,1.2c0,0.5-0.2,0.9-0.5,1.2c-0.3,0.3-0.8,0.5-1.2,0.5
			c-0.5,0-0.9-0.2-1.2-0.5c-0.3-0.3-0.5-0.8-0.5-1.2c0-0.5,0.2-0.9,0.5-1.2C399.2,933.3,399.7,933.1,400.1,933.1z"/>
		<path class="st3" d="M726.3,978.9c0.4,0.1,0.8,0.3,1.1,0.6c0.3,0.3,0.4,0.7,0.4,1.1s-0.2,0.8-0.4,1.1s-0.7,0.5-1.1,0.6
			c-0.4-0.1-0.8-0.3-1.1-0.6c-0.3-0.3-0.4-0.7-0.4-1.1s0.2-0.8,0.4-1.1C725.5,979.1,725.9,978.9,726.3,978.9L726.3,978.9z"/>
		<path class="st3" d="M1011.3,868.3c0.4,0.1,0.8,0.3,1.1,0.6c0.3,0.3,0.4,0.7,0.4,1.1s-0.1,0.8-0.4,1.1c-0.3,0.3-0.7,0.5-1.1,0.6
			c-0.4-0.1-0.8-0.3-1.1-0.6c-0.3-0.3-0.4-0.7-0.4-1.1s0.1-0.8,0.4-1.1C1010.5,868.5,1010.9,868.3,1011.3,868.3L1011.3,868.3z"/>
		<path class="st3" d="M939.2,677.7c0.5,0,0.9,0.2,1.2,0.5c0.3,0.3,0.5,0.8,0.5,1.2c0,0.5-0.2,0.9-0.5,1.2c-0.3,0.3-0.8,0.5-1.2,0.5
			c-0.5,0-0.9-0.2-1.2-0.5c-0.3-0.3-0.5-0.8-0.5-1.2c0-0.5,0.2-0.9,0.5-1.2C938.3,677.8,938.7,677.7,939.2,677.7L939.2,677.7z"/>
		<path class="st3" d="M646.6,975.5c0.3,0,0.6,0.2,0.8,0.4c0.2,0.2,0.3,0.5,0.3,0.8c0,0.3-0.1,0.6-0.3,0.8c-0.2,0.2-0.5,0.4-0.8,0.4
			c-0.3,0-0.6-0.2-0.8-0.4c-0.2-0.2-0.3-0.5-0.3-0.8c0-0.3,0.1-0.6,0.3-0.8C646.1,975.7,646.3,975.5,646.6,975.5L646.6,975.5z"/>
		<path class="st3" d="M270.1,219.4c0.3,0,0.6,0.2,0.8,0.4s0.3,0.5,0.3,0.8c0,0.3-0.1,0.6-0.3,0.8s-0.5,0.4-0.8,0.4
			c-0.3,0-0.6-0.2-0.8-0.4c-0.2-0.2-0.3-0.5-0.3-0.8c0-0.3,0.1-0.6,0.3-0.8C269.5,219.6,269.8,219.5,270.1,219.4L270.1,219.4z"/>
		<path class="st3" d="M742.9,833.2c0.3,0,0.6,0.2,0.8,0.4c0.2,0.2,0.3,0.5,0.3,0.8c0,0.3-0.1,0.6-0.3,0.8c-0.2,0.2-0.5,0.4-0.8,0.4
			c-0.3,0-0.6-0.2-0.8-0.4c-0.2-0.2-0.3-0.5-0.3-0.8c0-0.3,0.1-0.6,0.3-0.8C742.4,833.4,742.6,833.2,742.9,833.2z"/>
		<path class="st3" d="M273.2,990.2c0.3,0,0.6,0.2,0.8,0.4c0.2,0.2,0.3,0.5,0.3,0.8c0,0.3-0.1,0.6-0.3,0.8c-0.2,0.2-0.5,0.4-0.8,0.4
			c-0.3,0-0.6-0.2-0.8-0.4c-0.2-0.2-0.3-0.5-0.3-0.8c0-0.3,0.1-0.6,0.3-0.8C272.6,990.4,272.9,990.2,273.2,990.2L273.2,990.2z"/>
		<path class="st3" d="M584.8,696.1c0.3,0,0.6,0.2,0.8,0.4c0.2,0.2,0.3,0.5,0.3,0.8c0,0.3-0.1,0.6-0.3,0.8c-0.2,0.2-0.5,0.4-0.8,0.4
			c-0.3,0-0.6-0.2-0.8-0.4c-0.2-0.2-0.3-0.5-0.3-0.8c0-0.3,0.1-0.6,0.3-0.8C584.3,696.3,584.5,696.1,584.8,696.1L584.8,696.1z"/>
		<path class="st3" d="M848.4,710.1c0.9,0,1.7,0.3,2.3,1c0.6,0.6,1,1.5,1,2.3c0,0.9-0.3,1.7-1,2.3c-0.6,0.6-1.5,1-2.3,1
			c-0.9,0-1.7-0.3-2.3-1c-0.6-0.6-1-1.5-1-2.3c0-0.9,0.3-1.7,1-2.3C846.7,710.5,847.5,710.1,848.4,710.1L848.4,710.1z"/>
		<path class="st3" d="M385.5,254.8l10.6,2l2.4,11.2l2.4-11.2l10.6-2l-10.6-2.6l-2.4-10.6l-2.4,10.6L385.5,254.8z"/>
		<path class="st3" d="M832.5,344.8l10.6,2l2.4,11.2l2.4-11.2l10.6-2l-10.6-2.6l-2.4-10.6l-2.4,10.6L832.5,344.8z"/>
		<path class="st3" d="M58,613.6l10.6,2l2.4,11.2l2.4-11.2l10.6-2L73.4,611L71,600.4L68.6,611L58,613.6z"/>
		<path class="st3" d="M999.9,79.6l10.6,2l2.4,11.2l2.4-11.2l10.6-2l-10.6-2.6l-2.4-10.6l-2.4,10.6L999.9,79.6z"/>
		<path class="st3" d="M617.7,104.9l5.9,1.1l1.3,6.3l1.3-6.3l5.9-1.1l-5.9-1.4l-1.4-5.9l-1.3,5.9L617.7,104.9z"/>
		<path class="st3" d="M71,314.2l5.9,1.1l1.3,6.3l1.3-6.3l5.9-1.1l-5.9-1.4l-1.4-5.9l-1.4,5.9L71,314.2z"/>
		<path class="st3" d="M180.1,303.8c0.5,0,0.9,0.2,1.2,0.5c0.3,0.3,0.5,0.8,0.5,1.2c0,0.5-0.2,0.9-0.5,1.2c-0.3,0.3-0.8,0.5-1.2,0.5
			c-0.5,0-0.9-0.2-1.2-0.5c-0.3-0.3-0.5-0.8-0.5-1.2c0-0.5,0.2-0.9,0.5-1.2C179.2,304,179.7,303.8,180.1,303.8L180.1,303.8z"/>
		<path class="st3" d="M49.1,921.1c0.5,0,0.9,0.2,1.2,0.5c0.3,0.3,0.5,0.8,0.5,1.2c0,0.5-0.2,0.9-0.5,1.2c-0.3,0.3-0.8,0.5-1.2,0.5
			c-0.5,0-0.9-0.2-1.2-0.5c-0.3-0.3-0.5-0.8-0.5-1.2c0-0.5,0.2-0.9,0.5-1.2S48.7,921.1,49.1,921.1z"/>
		<path class="st3" d="M190.4,861.6c0.4,0.1,0.8,0.3,1.1,0.6c0.3,0.3,0.4,0.7,0.4,1.1s-0.2,0.8-0.4,1.1c-0.3,0.3-0.7,0.5-1.1,0.6
			c-0.4-0.1-0.8-0.3-1.1-0.6s-0.4-0.7-0.4-1.1s0.2-0.8,0.4-1.1C189.6,861.9,190,861.7,190.4,861.6L190.4,861.6z"/>
		<path class="st3" d="M50.8,425.3c0.4,0.1,0.8,0.3,1.1,0.6c0.3,0.3,0.4,0.7,0.4,1.1c0,0.4-0.2,0.8-0.4,1.1
			c-0.3,0.3-0.7,0.5-1.1,0.6c-0.4-0.1-0.8-0.3-1.1-0.6c-0.3-0.3-0.4-0.7-0.4-1.1c0-0.4,0.2-0.8,0.4-1.1
			C50,425.6,50.4,425.4,50.8,425.3L50.8,425.3z"/>
		<path class="st3" d="M190.4,166.2c0.5,0,0.9,0.2,1.2,0.5c0.3,0.3,0.5,0.8,0.5,1.2c0,0.5-0.2,0.9-0.5,1.2c-0.3,0.3-0.8,0.5-1.2,0.5
			c-0.5,0-0.9-0.2-1.2-0.5c-0.3-0.3-0.5-0.8-0.5-1.2c0-0.5,0.2-0.9,0.5-1.2C189.5,166.4,190,166.2,190.4,166.2L190.4,166.2z"/>
		<path class="st3" d="M416,77.9c0.4,0.1,0.8,0.3,1.1,0.6c0.3,0.3,0.4,0.7,0.4,1.1c0,0.4-0.2,0.8-0.4,1.1c-0.3,0.3-0.7,0.5-1.1,0.6
			c-0.4-0.1-0.8-0.3-1.1-0.6c-0.3-0.3-0.4-0.7-0.4-1.1c0-0.4,0.2-0.8,0.4-1.1C415.2,78.1,415.6,77.9,416,77.9L416,77.9z"/>
		<path class="st3" d="M346.8,694c0.3,0,0.6,0.2,0.8,0.4c0.2,0.2,0.3,0.5,0.3,0.8c0,0.3-0.1,0.6-0.3,0.8c-0.2,0.2-0.5,0.4-0.8,0.4
			c-0.3,0-0.6-0.2-0.8-0.4c-0.2-0.2-0.3-0.5-0.3-0.8c0-0.3,0.1-0.6,0.3-0.8C346.3,694.2,346.5,694.1,346.8,694L346.8,694z"/>
		<path class="st3" d="M345.7,1008c0.3,0,0.6,0.2,0.8,0.4c0.2,0.2,0.3,0.5,0.3,0.8c0,0.3-0.1,0.6-0.3,0.8c-0.2,0.2-0.5,0.4-0.8,0.4
			c-0.3,0-0.6-0.2-0.8-0.4c-0.2-0.2-0.3-0.5-0.3-0.8c0-0.3,0.1-0.6,0.3-0.8C345.1,1008.2,345.4,1008,345.7,1008L345.7,1008z"/>
		<path class="st3" d="M968.2,291.7l5.9,1.1l1.3,6.3l1.3-6.3l5.9-1.1l-5.9-1.4l-1.4-5.9l-1.4,5.9L968.2,291.7z"/>
		<path class="st3" d="M1101.2,602.8l5.9,1.1l1.3,6.3l1.3-6.3l6-1.1l-5.9-1.4l-1.4-5.9l-1.3,5.9L1101.2,602.8z"/>
		<path class="st3" d="M951.6,297.6c0.4,0.1,0.8,0.3,1.1,0.6c0.3,0.3,0.4,0.7,0.4,1.1s-0.2,0.8-0.4,1.1c-0.3,0.3-0.7,0.5-1.1,0.6
			c-0.4-0.1-0.8-0.3-1.1-0.6c-0.3-0.3-0.4-0.7-0.4-1.1s0.2-0.8,0.4-1.1C950.8,297.8,951.2,297.6,951.6,297.6z"/>
		<path class="st3" d="M775.7,125.3c0.3,0,0.6,0.2,0.8,0.4c0.2,0.2,0.3,0.5,0.3,0.8c0,0.3-0.1,0.6-0.3,0.8c-0.2,0.2-0.5,0.4-0.8,0.4
			c-0.3,0-0.6-0.2-0.8-0.4c-0.2-0.2-0.3-0.5-0.3-0.8c0-0.3,0.1-0.6,0.3-0.8C775.1,125.5,775.4,125.4,775.7,125.3L775.7,125.3z"/>
		<path class="st3" d="M516.5,1121.1c0.3,0,0.6,0.2,0.8,0.4c0.2,0.2,0.3,0.5,0.3,0.8c0,0.3-0.1,0.6-0.3,0.8
			c-0.2,0.2-0.5,0.4-0.8,0.4c-0.3,0-0.6-0.2-0.8-0.4c-0.2-0.2-0.3-0.5-0.3-0.8c0-0.3,0.1-0.6,0.3-0.8
			C515.9,1121.3,516.2,1121.2,516.5,1121.1L516.5,1121.1z"/>
		<path class="st3" d="M1074.7,326.7c0.3,0,0.6,0.2,0.8,0.4c0.2,0.2,0.3,0.5,0.3,0.8c0,0.3-0.1,0.6-0.3,0.8
			c-0.2,0.2-0.5,0.4-0.8,0.4c-0.3,0-0.6-0.2-0.8-0.4c-0.2-0.2-0.3-0.5-0.3-0.8c0-0.3,0.1-0.6,0.3-0.8
			C1074.2,326.9,1074.4,326.7,1074.7,326.7L1074.7,326.7z"/>
		<path class="st3" d="M829.5,266.8c0.3,0,0.6,0.2,0.8,0.4c0.2,0.2,0.3,0.5,0.3,0.8c0,0.3-0.1,0.6-0.3,0.8c-0.2,0.2-0.5,0.4-0.8,0.4
			c-0.3,0-0.6-0.2-0.8-0.4c-0.2-0.2-0.3-0.5-0.3-0.8c0-0.3,0.1-0.6,0.3-0.8C829,266.9,829.2,266.8,829.5,266.8L829.5,266.8z"/>
		<path class="st3" d="M833,80.1c0.3,0,0.6,0.2,0.8,0.4c0.2,0.2,0.3,0.5,0.3,0.8c0,0.3-0.1,0.6-0.3,0.8c-0.2,0.2-0.5,0.4-0.8,0.4
			c-0.3,0-0.6-0.2-0.8-0.4c-0.2-0.2-0.3-0.5-0.3-0.8c0-0.3,0.1-0.6,0.3-0.8C832.5,80.3,832.8,80.1,833,80.1L833,80.1z"/>
		<path class="st3" d="M491.6,650.7c0.9,0,1.7,0.3,2.3,1c0.6,0.6,1,1.5,1,2.3c0,0.9-0.3,1.7-1,2.3c-0.6,0.6-1.5,1-2.3,1
			c-0.9,0-1.7-0.3-2.3-1c-0.6-0.6-1-1.5-1-2.3c0-0.9,0.3-1.7,1-2.3C489.9,651.1,490.8,650.7,491.6,650.7L491.6,650.7z"/>
		<path class="st3" d="M942.4,481.6c0.8,0.1,1.6,0.5,2.2,1.1c0.6,0.6,0.9,1.4,0.9,2.2c0,0.8-0.3,1.6-0.9,2.2c-0.6,0.6-1.3,1-2.2,1.1
			c-0.8-0.1-1.6-0.5-2.2-1.1c-0.6-0.6-0.9-1.4-0.9-2.2c0-0.8,0.3-1.6,0.9-2.2C940.8,482.1,941.6,481.7,942.4,481.6L942.4,481.6z"/>
		<path class="st3" d="M196,484.9c0.9,0,1.7,0.3,2.3,1c0.6,0.6,1,1.5,1,2.3c0,0.9-0.3,1.7-1,2.3c-0.6,0.6-1.5,1-2.3,1
			s-1.7-0.3-2.3-1c-0.6-0.6-1-1.5-1-2.3c0-0.9,0.3-1.7,1-2.3C194.3,485.3,195.2,484.9,196,484.9L196,484.9z"/>
		<path class="st3" d="M1104.8,504.9c0.9,0,1.7,0.3,2.3,1c0.6,0.6,1,1.5,1,2.3c0,0.9-0.3,1.7-1,2.3c-0.6,0.6-1.5,1-2.3,1
			c-0.9,0-1.7-0.3-2.3-1c-0.6-0.6-1-1.5-1-2.3c0-0.9,0.3-1.7,1-2.3C1103.1,505.2,1103.9,504.9,1104.8,504.9L1104.8,504.9z"/>
		<path class="st3" d="M150,807.2c0.9,0,1.7,0.3,2.3,1c0.6,0.6,1,1.5,1,2.3c0,0.9-0.3,1.7-1,2.3c-0.6,0.6-1.5,1-2.3,1
			s-1.7-0.3-2.3-1c-0.6-0.6-1-1.5-1-2.3c0-0.9,0.3-1.7,1-2.3C148.3,807.6,149.1,807.2,150,807.2L150,807.2z"/>
		<path class="st3" d="M316.6,162.3l5.9,1.1l1.3,6.3l1.3-6.3l5.9-1.1l-5.9-1.4l-1.3-5.9l-1.4,5.9L316.6,162.3z"/>
		<path class="st3" d="M640.6,785.3l5.9,1.1l1.3,6.3l1.3-6.3l5.9-1.1l-5.9-1.4l-1.3-5.9l-1.4,5.9L640.6,785.3z"/>
		<path class="st3" d="M832.5,1071.7c0.5,0,0.9,0.2,1.2,0.5c0.3,0.3,0.5,0.8,0.5,1.2c0,0.5-0.2,0.9-0.5,1.2
			c-0.3,0.3-0.8,0.5-1.2,0.5c-0.5,0-0.9-0.2-1.2-0.5c-0.3-0.3-0.5-0.8-0.5-1.2c0-0.5,0.2-0.9,0.5-1.2
			C831.6,1071.9,832,1071.7,832.5,1071.7L832.5,1071.7z"/>
		<path class="st3" d="M718.3,1055.4c0.5,0,0.9,0.2,1.2,0.5c0.3,0.3,0.5,0.8,0.5,1.2c0,0.5-0.2,0.9-0.5,1.2
			c-0.3,0.3-0.8,0.5-1.2,0.5c-0.5,0-0.9-0.2-1.2-0.5c-0.3-0.3-0.5-0.8-0.5-1.2c0-0.5,0.2-0.9,0.5-1.2
			C717.4,1055.6,717.9,1055.4,718.3,1055.4z"/>
		<path class="st3" d="M755.1,595l5.9,1.1l1.3,6.3l1.3-6.3l5.9-1.1l-5.9-1.4l-1.4-5.9l-1.3,5.9L755.1,595z"/>
		<path class="st3" d="M958.8,952.2l5.9,1.1l1.3,6.3l1.3-6.3l5.9-1.1l-5.9-1.4l-1.4-5.9l-1.4,5.9L958.8,952.2z"/>
		<path class="st3" d="M1013,1102.4l5.9,1.1l1.3,6.3l1.3-6.3l6-1.1l-5.9-1.4l-1.4-5.9l-1.4,5.9L1013,1102.4z"/>
		<path class="st3" d="M780.1,264.5c0.4,0.1,0.8,0.3,1.1,0.6s0.4,0.7,0.4,1.1c0,0.4-0.2,0.8-0.4,1.1s-0.7,0.5-1.1,0.6
			c-0.4-0.1-0.8-0.3-1.1-0.6s-0.4-0.7-0.4-1.1c0-0.4,0.2-0.8,0.4-1.1S779.7,264.6,780.1,264.5L780.1,264.5z"/>
		<path class="st3" d="M973.3,1031.3c0.3,0,0.6,0.2,0.8,0.4c0.2,0.2,0.3,0.5,0.3,0.8c0,0.3-0.1,0.6-0.3,0.8
			c-0.2,0.2-0.5,0.4-0.8,0.4c-0.3,0-0.6-0.2-0.8-0.4c-0.2-0.2-0.3-0.5-0.3-0.8c0-0.3,0.1-0.6,0.3-0.8
			C972.7,1031.5,973,1031.3,973.3,1031.3L973.3,1031.3z"/>
		<path class="st3" d="M115.1,650.7l5.9,1.1l1.3,6.3l1.3-6.3l5.9-1.1l-5.9-1.4l-1.4-5.9l-1.4,5.9L115.1,650.7z"/>
		<path class="st3" d="M46.3,778.4c0.4,0.1,0.8,0.3,1.1,0.6c0.3,0.3,0.4,0.7,0.4,1.1s-0.2,0.8-0.4,1.1c-0.3,0.3-0.7,0.5-1.1,0.6
			c-0.4-0.1-0.8-0.3-1.1-0.6c-0.3-0.3-0.4-0.7-0.4-1.1s0.2-0.8,0.4-1.1C45.5,778.7,45.9,778.5,46.3,778.4L46.3,778.4z"/>
		<path class="st3" d="M472,506.5c0.5,0,0.9,0.2,1.2,0.5s0.5,0.8,0.5,1.2s-0.2,0.9-0.5,1.2c-0.3,0.3-0.8,0.5-1.2,0.5
			c-0.5,0-0.9-0.2-1.2-0.5c-0.3-0.3-0.5-0.8-0.5-1.2s0.2-0.9,0.5-1.2S471.5,506.5,472,506.5L472,506.5z"/>
		<path class="st3" d="M345.7,315.7c0.3,0,0.6,0.2,0.8,0.4c0.2,0.2,0.3,0.5,0.3,0.8c0,0.3-0.1,0.6-0.3,0.8c-0.2,0.2-0.5,0.4-0.8,0.4
			c-0.3,0-0.6-0.2-0.8-0.4s-0.3-0.5-0.3-0.8c0-0.3,0.1-0.6,0.3-0.8S345.4,315.8,345.7,315.7L345.7,315.7z"/>
		<path class="st3" d="M146.8,101.6c0.9,0,1.7,0.3,2.3,1c0.6,0.6,1,1.5,1,2.3c0,0.9-0.3,1.7-1,2.3c-0.6,0.6-1.5,1-2.3,1
			s-1.7-0.3-2.3-1c-0.6-0.6-1-1.5-1-2.3c0-0.9,0.3-1.7,1-2.3C145.1,101.9,146,101.6,146.8,101.6L146.8,101.6z"/>
		<path class="st3" d="M929.8,175.3c0.9,0,1.7,0.3,2.3,1c0.6,0.6,1,1.5,1,2.3c0,0.9-0.3,1.7-1,2.3c-0.6,0.6-1.5,1-2.3,1
			s-1.7-0.3-2.3-1c-0.6-0.6-1-1.5-1-2.3c0-0.9,0.3-1.7,1-2.3C928.1,175.7,928.9,175.3,929.8,175.3L929.8,175.3z"/>
		<path class="st7" d="M899.2,1095c-15.2,0-30.4-2.1-45.1-6c-37.3-9.9-65.9-32.3-82.8-64.7c-19.7-37.9-19.4-80.7-10.7-104.4l7.4,2.6
			c-8.4,22.8-7.5,63.9,10.3,98c15.7,30.4,42.7,51.4,77.8,60.7c50.4,13.4,101.7,2.9,140.8-28.8c43.4-35.2,65.4-91.2,61.9-157.8
			c-3.5-66.6-34.2-146.9-66.7-232c-31.4-82.1-63.7-167.1-70.5-240.4c-7-76.2,13.9-144.1,60.4-196.5c57-64,150.8-101,263.9-103.8
			l0.2,7.9c-110.9,2.8-202.5,38.8-258.1,101.3c-45.1,50.7-65.3,116.6-58.5,190.6c6.7,72.2,38.9,156.6,70,238.3
			c32.7,85.7,63.6,166.7,67.1,234.5c3.6,69.1-19.4,127.5-64.8,164.3C972.9,1082.4,936.6,1095.2,899.2,1095L899.2,1095z"/>
		<path class="st4" d="M690.5,871.5c-0.8,1.9,47,101.8,50.7,105.8c0.2,0.2,0.4,0.4,0.6,0.5c5.7,4.5,43.5,19.3,46.5,20.3
			c7.5,2.5,82.9-113.6,88.6-134.2c1.4-5.2-29.5-66.4-40.1-74.9c-4.5-3.6-21.6-9.4-23.8-8.6C810.2,781.6,691.4,869.7,690.5,871.5z"/>
		<path class="st6" d="M690.5,871.5c-0.8,1.9,47,101.8,50.7,105.8c0.2,0.2,0.4,0.4,0.6,0.5c5.7,4.5,43.5,19.3,46.5,20.3
			c7.5,2.5,82.9-113.6,88.6-134.2c1.4-5.2-29.5-66.4-40.1-74.9c-4.5-3.6-21.6-9.4-23.8-8.6C810.2,781.6,691.4,869.7,690.5,871.5z"/>
		<path class="st6" d="M690.5,871.5c-0.8,1.9,47,101.8,50.7,105.8c0.2,0.2,0.4,0.4,0.6,0.5c19.5-21.6,110.7-123,110.7-124.6
			c0.1-1.6-31.1-59.4-39.4-72.8C810.2,781.6,691.4,869.7,690.5,871.5z"/>
		<path class="st3" d="M418.9,790.1l-92.8,12.9c-17.7,2.6-33.3,4.5-41.5,4.7c-1.9,0.3-3.8,0.1-5.7-0.5c0,0,0,0-0.1,0
			c-4.3-4.7-28.8-145.9-28.1-151.1c0.8-5.2,15.7-3.3,21,1.4c5.2,4.7,38.9,54.6,38.9,54.6l92.8-11.9L418.9,790.1z"/>
		<path class="st8" d="M265.2,809.8l-1.4-7.3c0.8-0.2,1.6-0.5,2.3-1c1.3-0.9,2.2-2.3,2.7-3.8c0.5-1.5,0.4-3.2-0.2-4.6
			c-0.6-1.5-1.6-2.8-3-3.6c-1.4-0.8-2.9-1.2-4.5-1.1l-1.3-6.6c0.8-0.2,1.6-0.6,2.3-1c1.3-0.9,2.3-2.3,2.8-3.8
			c0.5-1.6,0.4-3.2-0.1-4.7c-0.6-1.5-1.7-2.8-3.1-3.6c-1.4-0.8-3-1.2-4.6-0.9l-1.3-6.6c0.9-0.2,1.7-0.5,2.5-1
			c1.4-0.9,2.4-2.3,2.9-3.9c0.5-1.6,0.4-3.3-0.2-4.8c-0.6-1.5-1.7-2.8-3.2-3.6c-1.4-0.8-3.1-1.1-4.8-0.8l-1.3-6.6
			c0.9-0.2,1.7-0.6,2.5-1.1c1.4-0.9,2.4-2.3,2.9-3.9c0.5-1.6,0.4-3.3-0.2-4.8c-0.6-1.5-1.7-2.8-3.2-3.6c-1.4-0.8-3.1-1.1-4.8-0.8
			l-1.2-6.7c0.9-0.2,1.8-0.6,2.6-1.1c1.4-0.9,2.4-2.3,2.8-3.9c0.5-1.6,0.4-3.3-0.2-4.8c-0.6-1.5-1.7-2.8-3.1-3.6
			c-1.4-0.8-3.1-1.1-4.7-0.8l-1.3-6.6c0.9-0.2,1.8-0.6,2.6-1.1c1.6-1.1,2.6-2.8,3-4.6c0.3-1.9-0.1-3.8-1.2-5.4
			c-0.8-1.1-1.9-2-3.2-2.6c-1.3-0.5-2.7-0.7-4.1-0.5l-1.3-6.6c0.9-0.2,1.8-0.6,2.6-1.1c1.4-0.9,2.5-2.3,3-3.9
			c0.5-1.6,0.4-3.4-0.2-4.9c-0.7-1.6-1.8-2.9-3.4-3.6c-1.5-0.8-3.2-1-4.9-0.6l-1.2-6.2l14.6-1.6l28.3,151.4L265.2,809.8z"/>
		<path class="st8" d="M309.4,801.3c-0.3-4.2-1.4-8.3-3.4-12s-4.7-7-7.9-9.7c-5.9-4.8-13.4-7.2-21-6.6c-0.2,0-0.2,0.4,0,0.5
			c7.6,0.6,14.8,3.6,20.5,8.6c5.7,5,9.7,11.7,11.2,19.2c0,0.1,0,0.1,0.1,0.2c0.1,0,0.1,0.1,0.2,0.1c0.1,0,0.1,0,0.2-0.1
			S309.4,801.4,309.4,801.3L309.4,801.3z"/>
		<path class="st8" d="M327.2,796.7c-0.6-10.3-2.1-20.6-3.7-30.8c-1.6-10.2-3.2-20.2-4.9-30.3c-1-5.8-1.9-11.6-3.2-17.3
			c0-0.1-0.1-0.1-0.1-0.2c-0.1,0-0.1-0.1-0.2-0.1c-0.1,0-0.1,0-0.2,0.1c-0.1,0-0.1,0.1-0.1,0.2c0.8,10.3,2.3,20.6,3.7,30.8
			s2.8,20.3,4.4,30.4c0.9,5.8,2,11.5,3.4,17.3c0,0.1,0.1,0.2,0.2,0.2s0.2,0.1,0.3,0.1c0.1,0,0.2,0,0.3-0.1
			C327.1,796.9,327.2,796.8,327.2,796.7L327.2,796.7z"/>
		<path class="st8" d="M335,794.6c-0.6-10.3-2.1-20.6-3.7-30.8c-1.6-10.2-3.2-20.2-4.9-30.3c-0.9-5.8-1.9-11.6-3.2-17.3
			c0-0.1-0.1-0.1-0.1-0.2c-0.1,0-0.1-0.1-0.2-0.1c-0.1,0-0.1,0-0.2,0.1c-0.1,0-0.1,0.1-0.1,0.2c0.8,10.3,2.3,20.6,3.7,30.8
			c1.4,10.2,2.8,20.3,4.4,30.4c0.9,5.8,2,11.6,3.4,17.3c0,0.1,0.1,0.2,0.2,0.2c0.1,0.1,0.2,0.1,0.3,0.1c0.1,0,0.2,0,0.3-0.1
			C334.9,794.8,335,794.7,335,794.6z"/>
		<path class="st4" d="M353.8,799.1l-10.5-91.4c7.4-6.8,16.6-11.2,26.6-12.7c38.7-6.7,109.5-9.1,150.8-1.8
			C555.5,699.3,666,803,683.4,816.8c6.4,5,21.1-4,21.1-4l50.3,103c0,0-39.7,26.6-79,3.5c-48.4-28.4-147.8-128.6-167.4-132.6
			c-17.8-3.7-93.8,14-132.2,18.7C368.2,806.4,360.1,804.1,353.8,799.1z"/>
		<path class="st9" d="M367.1,791.1c-0.2-10.4-1.3-20.7-2.5-30.9c-1.2-10.3-2.4-20.3-3.6-30.5c-0.8-5.8-1.5-11.7-2.6-17.4
			c0-0.1-0.1-0.1-0.1-0.2c-0.1,0-0.1-0.1-0.2-0.1c-0.1,0-0.1,0-0.2,0.1c-0.1,0-0.1,0.1-0.1,0.2c0.4,10.3,1.5,20.6,2.5,30.9
			c1,10.3,2,20.4,3.2,30.5c0.7,5.8,1.5,11.6,2.6,17.4c0,0.1,0.1,0.3,0.2,0.4c0.1,0.1,0.2,0.1,0.4,0.1c0.1,0,0.3-0.1,0.4-0.2
			C367.1,791.3,367.1,791.2,367.1,791.1L367.1,791.1z"/>
		<path class="st6" d="M522.9,730.6c-2.3,1.2-4.4,2.9-5.9,5c-1.6,2-3,4.2-4.1,6.6c-2.2,4.6-3.8,9.5-4.8,14.6c-0.5,2.5-0.8,5-1.1,7.5
			c-0.3,2.5-0.3,5-0.3,7.5c0.1,2.5,0.2,5,0.4,7.5c0.3,2.5,0.7,5,1.3,7.5c0.7-2.5,1.2-4.9,1.6-7.4c0.4-2.4,1-4.8,1.3-7.3
			c0.4-2.4,0.9-4.8,1.2-7.2l0.7-3.6c0.2-1.2,0.4-2.4,0.6-3.6c0.9-4.7,2-9.4,3.3-14C518.3,739.1,520.3,734.6,522.9,730.6z"/>
		<path class="st4" d="M558.9,730.5c6.7-11.6-1.1-28.6-17.4-38c-16.3-9.4-35-7.7-41.6,3.9c-6.7,11.6,1.1,28.6,17.4,38
			C533.6,743.8,552.2,742.1,558.9,730.5z"/>
		<path class="st6" d="M558.9,730.5c6.7-11.6-1.1-28.6-17.4-38c-16.3-9.4-35-7.7-41.6,3.9c-6.7,11.6,1.1,28.6,17.4,38
			C533.6,743.8,552.2,742.1,558.9,730.5z"/>
		<path class="st6" d="M754.9,915.8c0,0-39.7,26.6-79,3.5c-48.4-28.4-147.8-128.6-167.4-132.6c-17.8-3.7-93.8,14-132.2,18.7
			c-8,0.9-16.1-1.3-22.4-6.3l-9.6-83.8l384.6,147L754.9,915.8z"/>
		<path class="st3" d="M557.8,905.8c0,0,20.1,91.5,20.1,91.6c3.9,17.5,7,32.9,7.9,41c0,0,0,0,0,0.1c0.4,1.9,0.4,3.8,0,5.7
			c0,0,0,0.1,0,0.2c-4.4,4.7-143.2,40.1-148.4,39.7c-5.2-0.4-4.6-15.4-0.3-21c4.3-5.6,51.4-43,51.4-43l-19.1-91.7L557.8,905.8z"/>
		<path class="st8" d="M589.4,1057.6l-7.1,1.9c-0.3-0.8-0.7-1.5-1.2-2.2c-0.6-0.7-1.3-1.3-2.2-1.8c-0.8-0.5-1.7-0.7-2.7-0.8
			c-0.9-0.1-1.9,0-2.8,0.3c-0.9,0.3-1.8,0.7-2.5,1.3c-1,0.8-1.8,1.9-2.3,3.2c-0.5,1.2-0.6,2.6-0.3,3.9l-6.5,1.8
			c-0.6-1.7-1.8-3.1-3.5-4c-1.6-0.8-3.5-1-5.3-0.6c-1.8,0.5-3.3,1.6-4.2,3.2c-1,1.5-1.3,3.4-1,5.2l-6.5,1.8
			c-0.3-0.8-0.7-1.6-1.2-2.3c-1-1.3-2.5-2.1-4-2.5c-1.6-0.3-3.2-0.2-4.7,0.6c-1.5,0.7-2.6,1.9-3.4,3.3c-0.7,1.5-0.9,3.1-0.6,4.7
			l-6.5,1.8c-0.3-0.9-0.7-1.7-1.3-2.4c-1-1.3-2.5-2.2-4.1-2.5c-1.6-0.4-3.3-0.2-4.8,0.6c-1.5,0.7-2.7,1.9-3.3,3.4
			c-0.7,1.5-0.9,3.2-0.5,4.8l-6.5,1.8c-0.3-0.9-0.7-1.7-1.3-2.5c-1-1.3-2.5-2.1-4.1-2.5c-1.6-0.3-3.3-0.1-4.7,0.6
			c-1.5,0.7-2.6,1.9-3.3,3.4s-0.9,3.2-0.5,4.8l-6.5,1.8c-0.2-1-0.7-1.8-1.3-2.6c-1-1.3-2.5-2.1-4.1-2.5c-1.6-0.3-3.3-0.1-4.8,0.6
			c-1.5,0.8-2.6,2-3.3,3.5c-0.7,1.5-0.8,3.2-0.4,4.8l-6.5,1.8c-0.2-1-0.7-1.9-1.3-2.6c-1-1.3-2.5-2.2-4.1-2.5
			c-1.6-0.3-3.3-0.1-4.8,0.7c-1.5,0.8-2.6,2-3.3,3.5c-0.7,1.5-0.8,3.2-0.4,4.8l-6.1,1.7l-2.6-14.4l148.6-39.8L589.4,1057.6z"/>
		<path class="st8" d="M577.5,1014.2c-4.2,0.6-8.2,2.1-11.7,4.3c-3.6,2.2-6.6,5.2-9,8.7c-4.3,6.2-6.1,13.9-4.9,21.4
			c0,0.2,0.4,0.2,0.4,0c0-7.6,2.4-15,7-21.1c4.6-6.1,11-10.5,18.3-12.7c0,0,0.1,0,0.1,0c0,0,0.1,0,0.1-0.1c0,0,0-0.1,0-0.1
			c0,0,0-0.1,0-0.1c0,0,0-0.1,0-0.1c0,0,0-0.1-0.1-0.1s-0.1,0-0.1,0C577.6,1014.2,577.5,1014.2,577.5,1014.2L577.5,1014.2z"/>
		<path class="st8" d="M571.6,996.7c-10.3,1.4-20.4,3.7-30.4,6.1c-10.1,2.4-19.9,4.7-29.8,7.2c-5.7,1.4-11.4,2.8-17,4.6
			c-0.1,0-0.1,0.1-0.2,0.1s0,0.2,0,0.2c0,0.1,0.1,0.1,0.1,0.2c0.1,0,0.2,0.1,0.2,0c10.2-1.6,20.3-3.9,30.4-6.1
			c10.1-2.1,20-4.4,30-6.8c5.7-1.4,11.3-2.9,16.9-4.7c0.1,0,0.2-0.1,0.2-0.2c0-0.1,0-0.2,0-0.3c0-0.1-0.1-0.2-0.2-0.2
			C571.8,996.8,571.7,996.7,571.6,996.7L571.6,996.7z"/>
		<path class="st8" d="M568.8,989.1c-10.2,1.4-20.4,3.7-30.4,6.1c-10.1,2.4-19.9,4.7-29.8,7.2c-5.7,1.4-11.4,2.8-17,4.5
			c-0.1,0-0.1,0.1-0.2,0.1c0,0.1,0,0.1,0,0.2c0,0.1,0.1,0.1,0.1,0.2c0.1,0,0.1,0.1,0.2,0.1c10.2-1.6,20.3-3.9,30.4-6.1
			c10.1-2.2,20-4.3,29.9-6.8c5.7-1.4,11.4-2.9,16.9-4.7c0.1,0,0.2-0.1,0.3-0.2s0.1-0.2,0-0.3c0-0.1-0.1-0.2-0.2-0.3
			S568.9,989.1,568.8,989.1L568.8,989.1z"/>
		<path class="st4" d="M709.9,823.8l-42.2,11.5c-1.6,0.4-2.8,12.8-2.8,12.8S555,787.1,510.1,786c-15.4-0.4-50.8,24.9-52.8,49.3
			c-3.2,39.5,1,94.7,8.4,127.1c2.6,9.8,7.1,18.9,13.3,27l93.8-17.5c0,0,1.7-19.3-0.2-29.9c-2.9-16.1-13.5-52.6-13.5-52.6
			c30.2,5.1,111.8,45.8,111.8,45.8s44.1,34.4,91.5-5.5L709.9,823.8z"/>
		<path class="st9" d="M667.9,832.2c-0.9,9.4-2.6,18.7-5,27.9c0,0.3-0.6,0.3-0.5,0c1.4-9.3,2.6-18.8,4.5-28
			C667.1,831.3,668,831.4,667.9,832.2z"/>
		<path class="st9" d="M709.9,818.7c0.2,0,0.3,0.3,0.1,0.4c-6.8,2.3-13.5,4.9-20,7.9c-3,1.3-19.7,9.8-17.1,15.4
			c0.4,0.9,1.4,1.2,2.8,0.9c1.9-0.6,3.6-1.5,5.2-2.6c3.5-1.9,7-3.6,10.5-5.2c6.6-2.9,13.4-5.1,20.5-6.4c0.2,0,0.3,0.3,0,0.4
			c-9.5,2.9-18.8,6.7-27.8,11.1c-4.3,2.2-10.5,7-12.4,1.9c-1.9-5,8.7-12.3,11.7-14C691.7,824,700.7,820.8,709.9,818.7L709.9,818.7z"
			/>
		<path class="st9" d="M672.4,841.7c-1.3,1.1-2.6,2.1-4.1,3.1c-1,0.8-2.2,1.5-3.5,1.9c-0.3,0-0.3-0.3-0.2-0.5c0.9-1.1,2-2.1,3.1-2.9
			c1.2-1,2.5-2,3.7-3C672.4,839.7,673.2,841,672.4,841.7z"/>
		<path class="st9" d="M485.6,973.7c10.1-1.2,20.1-3.3,30-5.5c9.9-2.1,19.7-4.3,29.5-6.6c5.6-1.3,11.2-2.6,16.8-4.2
			c0.1,0,0.1,0,0.2-0.1s0.1-0.1,0.1-0.2c0-0.1,0-0.1-0.1-0.2c-0.1-0.1-0.1-0.1-0.2-0.1c-10.1,1.4-20.1,3.5-30,5.5
			c-10,2-19.7,4-29.5,6.2c-5.7,1.3-11.2,2.6-16.8,4.3c-0.1,0-0.2,0.1-0.2,0.2c-0.1,0.1-0.1,0.2-0.1,0.3c0,0.1,0.1,0.2,0.1,0.3
			C485.4,973.6,485.5,973.6,485.6,973.7L485.6,973.7z"/>
		<path class="st6" d="M508.8,823.8c-0.3,3.6,0.3,7.3,1.7,10.7c0.6,1.7,1.4,3.3,2.1,5c0.7,1.7,1.6,3.2,2.6,4.8
			c3.6,6.2,7.7,12,12.4,17.3c4.6,5.4,9.6,10.4,14.9,15.1c5.2,4.7,10.9,9,16.8,12.8c-4.1-5.9-8.6-11.2-13.1-16.6
			c-4.5-5.3-9-10.5-13.5-15.7c-4.5-5.2-9-10.5-13.1-15.9c-2.1-2.6-4.2-5.4-6-8.3C511.4,830.2,509.8,827.1,508.8,823.8L508.8,823.8z"
			/>
		<path class="st4" d="M528.5,794.1c-5.8-12-24.3-15.1-41.3-6.8c-16.9,8.3-25.9,24.7-20,36.7c5.9,12,24.3,15.1,41.3,6.8
			C525.4,822.5,534.3,806.1,528.5,794.1z"/>
		<path class="st6" d="M528.5,794.1c-5.8-12-24.3-15.1-41.3-6.8c-16.9,8.3-25.9,24.7-20,36.7c5.9,12,24.3,15.1,41.3,6.8
			C525.4,822.5,534.3,806.1,528.5,794.1z"/>
		<path class="st10" d="M806.4,815.9c-33.7-48.1-52.4-88.5-51.4-106.5c0.8-15.7,8.9-61.9,23.6-87c4.4-7.5,51.2,10.7,50,20
			c-1.2,9.3-15.1,57.6-16.3,69.8c-0.8,6.8,13.1,76.5,16.5,92.3C834.6,830.8,821.3,837.2,806.4,815.9z"/>
		<path class="st11" d="M798.8,588.5c-2.6,2.6-3.9,1.3-3.3-5.1c0.6-6.4,8.5-31.4-0.4-33.4c-8.9-1.9-19.5,33.3-19.8,44.1
			c0.3,9.5,1.4,19,3.2,28.3C782,615.9,791.9,601.1,798.8,588.5z"/>
		<path class="st11" d="M828.6,642.5c9-18.5,21.4-41.1,19.6-64.3c-0.1-2.6-1.1-5-2.9-7c-0.6-10.5-5.7-13.1-5.7-13.1
			c-3.5-9.5-9.2-11.7-9.2-11.7s-0.9-12.2-8.3-12.9c-8.4-0.8-5.5,16.5-9.8,27c-9.7,24-30.3,55.5-33.8,62.1L828.6,642.5z"/>
		<path class="st9" d="M819.8,592.7c2.9-7,5.4-14.2,7.3-21.5c1.6-8.1,2.7-16.4,3.1-24.7c0,0,0-0.1,0-0.1c0,0,0-0.1,0-0.1
			c0,0,0-0.1,0.1-0.1c0,0,0.1,0,0.1,0c0,0,0.1,0,0.1,0c0,0,0.1,0,0.1,0.1c0,0,0,0.1,0,0.1c0,0,0,0.1,0,0.1
			c0.8,16.1-2.8,32.2-10.5,46.4C820,593.1,819.7,593,819.8,592.7z"/>
		<path class="st9" d="M833.5,600.6c2.3-7.1,6.2-19.5,5.9-42.7h0.1c2.1,14.5,0.1,29.4-5.7,42.8C833.7,601.2,833.3,601.1,833.5,600.6
			z"/>
		<path class="st9" d="M840.9,604.8c3-10.9,4.5-22.2,4.4-33.6c0,0,0.1,0,0.2,0c1.1,15.1-0.2,20.8-4.1,33.8
			C841.2,605.5,840.8,605.3,840.9,604.8z"/>
		<path class="st4" d="M828.6,642.5l-50-20c-5.4,2.7-10,7-13.1,12.2c-5.2,8.7-14.9,69.3-11.1,86.5c3.8,17.2,36.4,79.9,54.2,100.9
			c17.8,21,25.2,5.8,22.2-12s-16.1-92.1-16.1-96.6c0.1-4.5,13.7-44.4,15.7-52.7C832.4,652.5,828.6,642.5,828.6,642.5z"/>
		<path class="st6" d="M808.6,822c-13.5-15.9-35.5-55.9-47-81.8l60.7,20.1c3.5,20.3,7.2,41.2,8.6,49.8
			C833.8,827.7,826.3,843,808.6,822z"/>
		<path class="st6" d="M826.3,655c-6.9-3.2-14-6-21-8.7c-7-2.8-14-5.4-21-8.1c-4-1.5-8.1-3.1-12.1-4.5c-0.3,0-0.3,0.2,0,0.3
			c6.9,3.1,14,5.9,21.1,8.7c7,2.8,14,5.6,21,8.3c4,1.5,8,3,12.1,4.4C826.6,655.5,826.8,655.3,826.3,655z"/>
		<path class="st4" d="M701,817.9l61.6,110c6.4,1.4,13.1,0.2,18.7-3.4c22.9-13.5,60.6-46.2,74.7-75.7c10.2-21.2,2-38.1-13.6-44.8
			c-4-1.7-55.6-18.1-74.1-16.4c-20.2,2.5-39.7,9-57.3,19.3C706.8,809.7,703.4,813.5,701,817.9z"/>
		<path class="st4" d="M694.5,818.6c-0.2-1.6,8.7-6.3,10-5.8c1.3,0.5,64.6,114.7,64.8,115.5c0.2,0.8-10.9,6.2-11.7,5.2
			C756.8,932.6,694.8,820.8,694.5,818.6z"/>
		<path class="st6" d="M694.5,818.6c-0.2-1.6,8.7-6.3,10-5.8c1.3,0.5,64.6,114.7,64.8,115.5c0.2,0.8-10.9,6.2-11.7,5.2
			C756.8,932.6,694.8,820.8,694.5,818.6z"/>
		<path class="st4" d="M767.3,841.7l-10.8-55.1l48.7-0.6l10.8,55.1L767.3,841.7z"/>
		<path class="st5" d="M767.3,841.7l-10.8-55.1l48.7-0.6l10.8,55.1L767.3,841.7z"/>
		<path class="st6" d="M767.3,841.7l-1.4-7l48.7-0.5l1.4,7L767.3,841.7z"/>
		<path class="st6" d="M795.7,795.6c-0.8,0-1.7-0.3-2.3-0.8c-0.7-0.5-1.1-1.2-1.4-2c-0.1-0.4,0-0.7,0.1-1.1c0.1-0.4,0.3-0.7,0.5-1
			c0.3-0.3,0.6-0.5,0.9-0.6c0.4-0.1,0.7-0.2,1.1-0.2c0.8,0,1.7,0.3,2.3,0.8c0.7,0.5,1.1,1.2,1.4,2c0.1,0.4,0,0.7-0.1,1.1
			c-0.1,0.4-0.3,0.7-0.5,1c-0.3,0.3-0.6,0.5-0.9,0.6C796.4,795.6,796,795.7,795.7,795.6L795.7,795.6z"/>
		<path class="st6" d="M785.4,795.7c-0.8,0-1.7-0.3-2.3-0.8c-0.7-0.5-1.2-1.2-1.4-2c-0.1-0.4-0.1-0.8,0-1.1c0.1-0.4,0.3-0.7,0.5-1
			c0.3-0.3,0.6-0.5,0.9-0.6c0.4-0.1,0.7-0.2,1.1-0.1c0.8,0,1.7,0.3,2.3,0.8c0.7,0.5,1.2,1.2,1.4,2c0.1,0.4,0,0.7-0.1,1.1
			c-0.1,0.4-0.3,0.7-0.5,1c-0.3,0.3-0.6,0.5-0.9,0.6C786.1,795.7,785.7,795.8,785.4,795.7L785.4,795.7z"/>
		<path class="st6" d="M775.1,795.8c-0.8,0-1.7-0.2-2.3-0.7c-0.7-0.5-1.2-1.2-1.4-2c-0.1-0.4-0.1-0.8,0-1.1c0.1-0.4,0.3-0.7,0.5-1
			c0.3-0.3,0.6-0.5,0.9-0.6c0.4-0.1,0.7-0.2,1.1-0.1c0.8,0,1.7,0.2,2.3,0.7c0.7,0.5,1.2,1.2,1.4,2c0.1,0.4,0.1,0.8,0,1.1
			c-0.1,0.4-0.3,0.7-0.5,1c-0.3,0.3-0.6,0.5-0.9,0.6C775.8,795.8,775.5,795.9,775.1,795.8L775.1,795.8z"/>
		<path class="st6" d="M799.8,803c0.7-1.3-0.1-3.1-1.8-3.9c-1.6-0.8-3.5-0.4-4.2,1c-0.7,1.3,0.1,3.1,1.8,3.9
			C797.3,804.8,799.1,804.4,799.8,803z"/>
		<path class="st6" d="M787.1,804.6c-0.8,0-1.7-0.2-2.3-0.7c-0.7-0.5-1.2-1.2-1.4-2c-0.1-0.4-0.1-0.8,0-1.1c0.1-0.4,0.3-0.7,0.5-1
			c0.3-0.3,0.6-0.5,0.9-0.6c0.4-0.1,0.7-0.2,1.1-0.1c0.8,0,1.7,0.2,2.3,0.7c0.7,0.5,1.1,1.2,1.4,2c0.1,0.4,0.1,0.8,0,1.1
			c-0.1,0.4-0.3,0.7-0.5,1c-0.3,0.3-0.6,0.5-0.9,0.6C787.9,804.6,787.5,804.6,787.1,804.6L787.1,804.6z"/>
		<path class="st6" d="M776.8,804.6c-0.8,0-1.7-0.3-2.3-0.8c-0.7-0.5-1.2-1.2-1.4-2c-0.1-0.4,0-0.7,0.1-1.1c0.1-0.4,0.3-0.7,0.5-1
			c0.3-0.3,0.6-0.5,0.9-0.6c0.3-0.1,0.7-0.2,1.1-0.2c0.8,0,1.7,0.2,2.3,0.8c0.7,0.5,1.2,1.2,1.4,2c0.1,0.4,0.1,0.8,0,1.1
			c-0.1,0.4-0.3,0.7-0.5,1c-0.3,0.3-0.6,0.5-0.9,0.6S777.2,804.6,776.8,804.6L776.8,804.6z"/>
		<path class="st6" d="M799.1,813.2c-0.8,0-1.7-0.2-2.3-0.7c-0.7-0.5-1.1-1.2-1.4-2c-0.1-0.4-0.1-0.8,0-1.1c0.1-0.4,0.3-0.7,0.5-1
			c0.3-0.3,0.6-0.5,0.9-0.6c0.4-0.1,0.7-0.2,1.1-0.1c0.8,0,1.7,0.2,2.3,0.7c0.7,0.5,1.2,1.2,1.4,2c0.1,0.4,0.1,0.8,0,1.1
			c-0.1,0.4-0.3,0.7-0.5,1c-0.3,0.3-0.6,0.5-0.9,0.6C799.9,813.2,799.5,813.2,799.1,813.2z"/>
		<path class="st6" d="M788.8,813.3c-0.8,0-1.7-0.3-2.3-0.8s-1.2-1.2-1.4-2c-0.1-0.4-0.1-0.8,0-1.1c0.1-0.4,0.3-0.7,0.5-1
			c0.3-0.3,0.6-0.5,0.9-0.6c0.4-0.1,0.7-0.2,1.1-0.1c0.8,0,1.7,0.2,2.3,0.8c0.7,0.5,1.2,1.2,1.4,2c0.1,0.4,0.1,0.8,0,1.1
			c-0.1,0.4-0.3,0.7-0.5,1c-0.3,0.3-0.6,0.5-0.9,0.6C789.6,813.3,789.2,813.3,788.8,813.3z"/>
		<path class="st6" d="M778.5,813.4c-0.8,0-1.7-0.3-2.3-0.8c-0.7-0.5-1.2-1.2-1.4-2c-0.1-0.4-0.1-0.8,0-1.1c0.1-0.4,0.3-0.7,0.5-1
			c0.3-0.3,0.6-0.5,0.9-0.6c0.4-0.1,0.7-0.2,1.1-0.1c0.8,0,1.7,0.3,2.3,0.8c0.7,0.5,1.2,1.2,1.4,2c0.1,0.4,0.1,0.8,0,1.1
			c-0.1,0.4-0.3,0.7-0.5,1c-0.3,0.3-0.6,0.5-0.9,0.6C779.3,813.4,778.9,813.4,778.5,813.4L778.5,813.4z"/>
		<path class="st10" d="M821.7,815.1c3.1,7.7,21.1,11.7,32.4,10.3c0.8,0,6-5.2,12.6-10.9c4.1-3.5,8.6-7.3,13.1-10.5
			c0.9-0.6-26.8-23-26.8-23c-4.4,5.6-9.5,10.6-15.1,14.9c-0.6,0.4-1.3,0.8-2,1.1l-0.3,0.2C831.8,799.1,818.6,807.8,821.7,815.1z"/>
		<path class="st9" d="M878.4,802.4c-8.4,4.1-29.9,12.4-40.9-2.2c-0.7-0.9-1.3-1.9-1.9-2.9c0.1-0.1,0.2-0.1,0.3-0.2
			c0.7-0.3,1.3-0.7,2-1.1c5.6-4.4,10.6-9.4,15-14.9C853,781,872.9,797.1,878.4,802.4z"/>
		<path class="st10" d="M911.4,789.5c-9.2,8.8-43.4,18.7-54.3,14.5c-15.7-6.1-25.9-23.9-16.7-39.3c8.9-14.9,53.7-27,64.3-21.6
			C920.5,751.1,925,776.6,911.4,789.5z"/>
		<path class="st9" d="M875,768.8c0,0,0,0.2-0.1,0.3c-2.3,0.7-4.9,2-4.9,4.4h-0.1C869.3,770.7,872.7,769.1,875,768.8z"/>
		<path class="st9" d="M878.2,770c1.6,3.6-5.7,6.6-7.2,3.2C869.4,769.8,876.8,766.9,878.2,770z"/>
		<path class="st9" d="M870.2,756.2c0,0-0.2-0.1-0.3,0c-2.3,1-5,1.7-6.6,0c0,0-0.2,0,0,0C864.6,758.6,868.2,757.4,870.2,756.2z"/>
		<path class="st9" d="M871.7,753.2c-1.2-3.8-8.6-1.1-7.5,2.4C865.3,759.1,872.7,756.4,871.7,753.2z"/>
		<path class="st9" d="M882.9,771.5c0-1.1,0-2.1,0-3.2c-0.2-1.1,0.1-2.3,0.7-3.3c0.2-0.3,0.6-0.5,0.9-0.5c0.4-0.1,0.7,0,1.1,0.1
			c0.6,0.4,1.1,1,1.4,1.7c0.3,0.7,0.4,1.4,0.4,2.2c0.1,1.5-0.4,3-1.4,4.2c-0.2,0.2-0.5,0.4-0.9,0.5c-0.3,0.1-0.7,0.1-1-0.1
			c-0.3-0.1-0.6-0.3-0.8-0.6C883.1,772.1,883,771.8,882.9,771.5L882.9,771.5z"/>
		<path class="st9" d="M873.9,748.9c0.6,0.9,1.3,1.7,1.9,2.6c0.7,0.9,1.3,1.9,2.5,2.3c0.4,0.1,0.7,0,1.1-0.1
			c0.3-0.2,0.6-0.4,0.8-0.7c0.2-0.7,0.3-1.5,0.1-2.2c-0.1-0.7-0.5-1.4-1-2c-0.8-1.3-2.1-2.2-3.5-2.6c-0.3-0.1-0.7,0-1,0.1
			c-0.3,0.1-0.6,0.4-0.8,0.6c-0.2,0.3-0.3,0.6-0.3,1C873.6,748.3,873.7,748.6,873.9,748.9L873.9,748.9z"/>
		<path class="st9" d="M857.2,776.9c-0.3-3.2-1.3-6.4-3.1-9.1c0-0.3,0.3-0.7,0.6-0.9l4.9-1.8c-0.6-0.5-3.3-3.1-2.4-3.5
			c7.9-2.9,16.1-5,24.4-6.2c0,0,0.1,0,0.1,0.1c0,0,0,0.1,0,0.1c0,0,0,0.1,0,0.1c0,0-0.1,0.1-0.1,0.1c-7.3,2.6-15,4.1-22.4,6.7
			c1,0.9,1.9,2,2.6,3.2c0,0.3-5.2,1.6-6,2c1.9,2.5,2.7,5.7,2.3,8.8C857.9,777.7,857.2,778.4,857.2,776.9z"/>
		<path class="st9" d="M851.8,774.2c0-1.5,4.3-5.5,5.6-3.4c0.8,1.7,1.1,3.7,1,5.6c-0.1,1.9-0.8,3.8-1.8,5.4
			c-2.3,2.8-2.6-4.6-3.5-5.5C852.2,775.4,851.9,775.3,851.8,774.2z"/>
		<path class="st12" d="M853,776.2l-0.4-0.4c0.5-0.2,1.1-0.3,1.7-0.3c0.6,0,1.1,0.2,1.6,0.4c0.5,0.3,1,0.6,1.3,1.1
			c0.4,0.4,0.6,1,0.8,1.5c-0.3,1.1-0.8,2.2-1.5,3.1C854.3,784.5,853.9,777.1,853,776.2z"/>
		<path class="st9" d="M885,800.6c-4-7.9,3.8-16.2,12.3-17.7c0,0-12.1-20.3,4.7-28.7c-3.2-0.7-6.2-2.1-8.8-4.1
			c-2.6-2-4.7-4.6-6.2-7.5l-6.1,1.3c-0.3-2.5,5-7.5,12.2-4.2c5.4-1.9,11.4-1.6,16.6,0.8c2.2,1.1,4.1,2.8,5.4,4.9
			c1.3,2.1,1.9,4.5,1.9,7c4.3,2.6,7.5,6.7,8.8,11.6c0.6,2.5,0.7,5.2,0.1,7.8c-0.6,2.6-1.8,4.9-3.5,6.9c0,0,2.6,11.5-4.2,16.6
			c-1.9,1.5-4.1,2.5-6.4,3.1c-2.3,0.6-4.8,0.6-7.1,0.2c0,0-1.8,4-8.9,5.4C891.2,804.9,886.3,803,885,800.6z"/>
		<path class="st9" d="M903.8,754.1c-1.5,0.4-2.9,1-4.2,1.8c-1.3,0.7-2.6,1.6-3.7,2.6c-2.3,1.9-3.7,4.7-4,7.6c-0.2,3,0.3,6,1.4,8.8
			c0.7,1.4,1.2,2.8,1.9,4.1c0.7,1.3,1.5,2.6,2.3,4c-0.9-1.2-1.8-2.5-2.6-3.7c-0.8-1.3-1.5-2.8-2.2-4.1c-1.3-2.9-1.9-6-1.7-9.2
			c0.4-3.2,2-6.1,4.6-8.1C897.8,755.9,900.7,754.6,903.8,754.1L903.8,754.1z"/>
		<path class="st9" d="M922.3,778.7c1.2,2.7,1.7,5.7,1.7,8.6c0,3.1-1,6-3,8.4c-1,1.1-2.3,2-3.6,2.8c-1.3,0.8-2.7,1.3-4.2,1.6
			c-3,0.6-6,0.1-8.6-1.5c2.7,1.1,5.6,1.4,8.4,0.7c2.8-0.7,5.3-2.2,7.2-4.2c0.9-1,1.7-2.2,2.1-3.6c0.5-1.3,0.7-2.7,0.8-4.2
			C923.3,784.4,923,781.5,922.3,778.7L922.3,778.7z"/>
		<path class="st9" d="M916.9,752.4c-0.1-2.3-0.6-4.7-1.5-6.8c-0.8-2.1-2.2-4-4-5.5c-1.8-1.4-4-2.3-6.2-2.6c-2.3-0.3-4.7-0.3-7,0
			c2.3-0.8,4.7-1,7.1-0.8c2.5,0.1,4.9,1,6.8,2.6c1.9,1.5,3.4,3.7,4.1,6.1C917,747.6,917.2,750,916.9,752.4L916.9,752.4z"/>
		<path class="st9" d="M889.1,747.3c1.8,2,3.9,3.7,6.3,5c1.2,0.6,2.4,1.1,3.7,1.4c1.3,0.3,2.7,0.4,4,0.4c-1.4,0.4-2.8,0.6-4.2,0.4
			c-1.4-0.1-2.8-0.6-4.1-1.2c-1.3-0.7-2.4-1.6-3.4-2.6C890.5,749.7,889.7,748.6,889.1,747.3L889.1,747.3z"/>
		<path class="st10" d="M881.2,794.7c0,0,13.6,2.3,13.3,8.1c-0.4,5.8-17.7,7.5-22.3,3.1c-0.6-0.5-1.2-1.2-1.5-1.9
			c-0.4-0.7-0.6-1.5-0.6-2.4c-0.1-0.8,0.1-1.7,0.3-2.4c0.3-0.8,0.7-1.5,1.3-2.1L881.2,794.7z"/>
		<path class="st9" d="M889.6,803.2c0,0,0,0.2-0.1,0c-1.7-1.3-3.7-2.3-5.8-2.8c-2.1-0.5-4.3-0.6-6.4-0.2c0.5,0,1,0.2,1.4,0.4
			c0.4,0.2,0.8,0.6,1.1,1s0.5,0.9,0.6,1.3c0.1,0.5,0.1,1,0,1.5c0,0.1-0.2,0-0.2,0c-0.1-0.8-0.5-1.5-1-2.1c-0.5-0.6-1.2-1-2-1.1
			c-1.3-0.3-2.6-0.4-3.9-0.4c-0.4,0-0.5-0.7,0-0.8C878,797.6,886.6,798.2,889.6,803.2z"/>
		<g class="st13">
			<path class="st5" d="M868.7,781.9c-0.1,0.1-0.2,0.2-0.2,0.3s0,0.3,0,0.4c0,0.1,0.1,0.2,0.2,0.2s0.2,0.1,0.3,0.1
				c0.1,0,0.2,0,0.3-0.1c0.1-0.1,0.1-0.1,0.2-0.2c0-0.1,0-0.2,0-0.3c0-0.1-0.1-0.2-0.2-0.2c-0.1-0.1-0.2-0.1-0.3-0.1
				C868.9,781.9,868.8,781.9,868.7,781.9L868.7,781.9z"/>
			<path class="st5" d="M864.3,772.7c-0.1,0.1-0.2,0.2-0.2,0.3s0,0.3,0,0.4c0,0.1,0.1,0.1,0.1,0.1c0,0,0.1,0.1,0.2,0.1
				c0.1,0,0.1,0,0.2,0c0.1,0,0.1,0,0.2-0.1c0.1-0.1,0.2-0.2,0.2-0.3c0-0.1,0-0.3,0-0.4c0-0.1-0.1-0.1-0.1-0.1c0,0-0.1-0.1-0.2-0.1
				c-0.1,0-0.1,0-0.2,0C864.4,772.7,864.4,772.7,864.3,772.7z"/>
			<path class="st5" d="M862.8,777.6c-0.1,0-0.1,0.1-0.1,0.1c0,0-0.1,0.1-0.1,0.2c0,0.1,0,0.1,0,0.2c0,0.1,0,0.1,0.1,0.2
				c0.1,0.1,0.2,0.2,0.3,0.2s0.3,0,0.4,0c0.1-0.1,0.2-0.2,0.2-0.3c0-0.1,0-0.2,0-0.3c-0.1-0.1-0.2-0.2-0.3-0.2
				C863.1,777.5,862.9,777.5,862.8,777.6L862.8,777.6z"/>
			<path class="st5" d="M872.1,779.8c-0.1,0-0.2,0.1-0.2,0.2c-0.1,0.1-0.1,0.2-0.1,0.3c0,0.1,0,0.2,0.1,0.3c0.1,0.1,0.1,0.1,0.2,0.2
				c0.1,0,0.2,0,0.3,0c0.1,0,0.2-0.1,0.2-0.2c0.1-0.1,0.1-0.2,0.1-0.3c0-0.1,0-0.2-0.1-0.3c-0.1-0.1-0.2-0.2-0.3-0.2
				C872.3,779.7,872.2,779.8,872.1,779.8L872.1,779.8z"/>
			<path class="st5" d="M867.4,776.9c-0.1,0-0.2,0.1-0.2,0.2c0,0.1-0.1,0.2-0.1,0.3c0,0.1,0,0.2,0.1,0.3c0.1,0.1,0.1,0.1,0.2,0.2
				c0.1,0,0.2,0,0.3,0c0.1,0,0.2-0.1,0.2-0.2c0.1-0.1,0.1-0.2,0.1-0.3c0-0.1,0-0.2-0.1-0.3c-0.1-0.1-0.2-0.2-0.3-0.2
				S867.5,776.8,867.4,776.9L867.4,776.9z"/>
			<path class="st5" d="M862,751.5c-0.1,0-0.1,0.1-0.2,0.1c-0.1,0-0.1,0.1-0.1,0.2c0,0.1,0,0.1,0,0.2c0,0.1,0,0.1,0.1,0.2
				s0.1,0.1,0.1,0.2c0.1,0,0.1,0.1,0.2,0.1s0.1,0,0.2,0s0.1-0.1,0.2-0.1c0.1-0.1,0.2-0.2,0.2-0.3s0-0.3,0-0.4
				c-0.1-0.1-0.2-0.2-0.3-0.2C862.2,751.4,862.1,751.4,862,751.5z"/>
			<path class="st5" d="M861.3,756.1c-0.1,0-0.2,0.1-0.2,0.2s-0.1,0.2-0.1,0.3c0,0.1,0,0.2,0.1,0.3c0.1,0.1,0.1,0.1,0.2,0.2
				c0.1,0,0.2,0,0.3,0c0.1,0,0.2-0.1,0.2-0.2c0.1-0.1,0.1-0.2,0.1-0.3c0-0.1,0-0.2-0.1-0.3c-0.1-0.1-0.2-0.2-0.3-0.2
				S861.4,756,861.3,756.1L861.3,756.1z"/>
			<path class="st5" d="M858,756.7c-0.1,0.1-0.2,0.2-0.2,0.3s0,0.3,0,0.4c0,0.1,0.1,0.1,0.1,0.2c0,0,0.1,0.1,0.2,0.1
				c0.1,0,0.1,0,0.2,0c0.1,0,0.1,0,0.2-0.1c0.1-0.1,0.1-0.2,0.2-0.3c0-0.1,0-0.2,0-0.3c-0.1-0.1-0.1-0.2-0.2-0.2
				C858.2,756.7,858.1,756.7,858,756.7L858,756.7z"/>
			<path class="st5" d="M858.4,752.8c-0.1,0-0.2,0.1-0.2,0.2c0,0.1-0.1,0.2-0.1,0.3c0,0.1,0,0.2,0.1,0.3c0.1,0.1,0.1,0.1,0.2,0.2
				c0.1,0,0.2,0,0.3,0c0.1,0,0.2-0.1,0.2-0.2c0.1-0.1,0.1-0.2,0.1-0.3c0-0.1,0-0.2-0.1-0.3c-0.1-0.1-0.2-0.2-0.3-0.2
				C858.7,752.7,858.5,752.7,858.4,752.8L858.4,752.8z"/>
		</g>
		<path class="st4" d="M853.8,828.3c0,0,12.9-8.5,12.5-10.2c-0.4-1.8-16.4-3.3-21.9-8.6c-5.5-5.3-7.5-13.1-8.1-14
			c-0.6-0.9-11.6,7.6-13.8,10c-1.6,1.4-2.6,3.3-2.8,5.3c-0.2,2.1,0.3,4.2,1.5,5.8C826.8,825,846.9,830.3,853.8,828.3z"/>
		<path class="st9" d="M862.1,818.6c-3.6,2-6.8,4.7-9.5,7.9C856.3,824.4,859.5,821.8,862.1,818.6L862.1,818.6z"/>
		<path class="st9" d="M835.8,797.6c-3.7,1.7-7.1,4.2-9.9,7.1C829.6,803,832.9,800.6,835.8,797.6L835.8,797.6z"/>
		<path class="st9" d="M835.6,802.3c-4.8,2.5-9.2,5.7-13.1,9.5C827.2,809.2,831.7,806,835.6,802.3z"/>
		<path class="st9" d="M838.3,807.2c-4.8,2.5-9.2,5.7-13.1,9.5C830,814.2,834.4,811,838.3,807.2L838.3,807.2z"/>
		<path class="st9" d="M843.5,811.7c-4.8,2.5-9.2,5.7-13.1,9.5C835.2,818.7,839.6,815.5,843.5,811.7L843.5,811.7z"/>
		<path class="st9" d="M848.9,814.9c-4.6,2.4-8.8,5.4-12.5,9C841,821.5,845.2,818.5,848.9,814.9z"/>
		<path class="st9" d="M855.3,817.2c-4,2.2-7.7,5.1-10.8,8.4C848.6,823.4,852.2,820.6,855.3,817.2L855.3,817.2z"/>
		<path class="st3" d="M852.2,840.6c-2.9,1.1-6.1,1.4-9.2,0.9c-10-1.7-21.7-12.2-25.3-25.8c-2.3-8.7-0.9-15.2,2.3-19.5
			c1.8,9.3,5.7,18.1,11.2,25.7C836.8,829.6,843.9,835.9,852.2,840.6z"/>
		<path class="st4" d="M942.7,804.6c10.2-31.3-2.5-75.3-50.8-80.3c-33.4-3.5-63.3,18.1-71.8,43.7c-12.1,36.2,16.2,74.8,47.3,79.6
			C891,851.1,932,837.6,942.7,804.6z M864.1,826.3c-22.7-4.7-44.1-36.2-36.4-64.7c3-10.7,9.9-20,19.2-26c9.4-6.1,20.6-8.5,31.6-6.9
			c35.1,5.2,47.8,40,41.3,64.6c-6.8,26-38.5,36.4-55.6,32.9L864.1,826.3z"/>
		<path class="st14" d="M864.2,826.2c-22.7-4.7-44.1-36.2-36.4-64.7c3.1-10.7,9.9-19.9,19.2-25.9c9.3-6,20.5-8.5,31.5-6.9
			c35.1,5.2,47.8,40,41.3,64.6C913,819.3,881.4,829.7,864.2,826.2z"/>
		<path class="st14" d="M864.2,826.2c-22.7-4.7-44.1-36.2-36.4-64.7c3.1-10.7,9.9-19.9,19.2-25.9c9.3-6,20.5-8.5,31.5-6.9
			c35.1,5.2,47.8,40,41.3,64.6C913,819.3,881.4,829.7,864.2,826.2z"/>
		<g class="st13">
			<path class="st15" d="M916.8,757.8c-22.9-9.7-46.8-16.8-71.3-21.3c5.2-3.7,11.2-6.3,17.5-7.6c14.6,3.4,28.9,7.8,42.9,13.1
				C910.6,746.5,914.2,751.9,916.8,757.8L916.8,757.8z"/>
			<path class="st15" d="M883.2,825.4c-6.2,1.6-12.6,1.9-18.9,0.8c-7.2-1.7-13.8-5.3-19.1-10.5C858,818,870.7,821.2,883.2,825.4
				L883.2,825.4z"/>
			<path class="st15" d="M920,767.5c-26.2-11.6-53.8-19.8-82.1-24.3c0.5-0.6,1-1.1,1.6-1.7c27.6,4.5,54.4,12.5,80,23.7
				C919.7,766,919.9,766.8,920,767.5z"/>
			<path class="st15" d="M903.4,816.3c-23-9.5-47.1-15.9-71.8-19.2c-0.3-0.6-0.6-1.3-0.9-2c25.5,3.4,50.5,10.1,74.2,20L903.4,816.3z
				"/>
			<path class="st15" d="M891.8,822.7c-0.8,0.3-1.6,0.6-2.5,0.9c-15.9-5.6-32.2-9.8-48.8-12.6c-0.6-0.7-1.2-1.3-1.7-2
				C856.9,811.8,874.7,816.4,891.8,822.7L891.8,822.7z"/>
			<path class="st15" d="M915.1,804.1c-28.1-12.7-57.9-21-88.5-24.7c-0.3-2.2-0.4-4.4-0.3-6.6c31.7,3.8,62.6,12.6,91.7,25.9
				C917.2,800.6,916.2,802.4,915.1,804.1L915.1,804.1z"/>
		</g>
		<path class="st4" d="M895.3,854.1c8.1,0,22.3-5.5,26.2-15.4c3.7-9.4-0.3-21.4-16.9-20.8c-11.5,0.4-21.9,7.9-25,15.5
			C875.2,844.2,884.6,854.1,895.3,854.1z"/>
		<path class="st6" d="M895.3,854.1c8.1,0,22.3-5.5,26.2-15.4c3.7-9.4-0.3-21.4-16.9-20.8c-11.5,0.4-21.9,7.9-25,15.5
			C875.2,844.2,884.6,854.1,895.3,854.1z"/>
		<path class="st4" d="M898.7,855.3c6.2,0,17.1-4.2,20.2-11.9c2.9-7.2-0.3-16.5-13.1-16c-8.8,0.3-16.8,6-19.3,11.9
			C883.3,847.7,890.5,855.2,898.7,855.3z"/>
		<path class="st10" d="M829.4,868.4c-46.8-0.8-111.1-28.3-126.3-38.4C680,814.7,689,726.7,689.7,709c0.3-7.6,67.9,5.4,67.7,13.5
			c-0.1,7.1-9.4,74.6-6.8,76.2c2.1,1.3,49,26.2,80.1,44.5C857.5,858.9,841.6,868.6,829.4,868.4z"/>
		<path class="st11" d="M755.7,738.3c0,0,1.3-11.6,1.3-12.3c0.6-4,1.7-7.8,3.4-11.5c5.6-14.4,10.2-53.1-21.8-82.7
			c-12.3-11.3-25.5-7.7-14.9,6.3c7.5,9.9,13.5,16.1,15.1,20c0,0-18.3-4.7-26.8,2.4c-7.3,6.2-14.2,13-20.6,20.1
			c1,1.5,2.2,2.9,3.4,4.2c-3,3.1-5.2,7-6.1,11.3c-0.9,4.3-0.6,8.7,0.8,12.8l-1.2,19.7L755.7,738.3z"/>
		<path class="st11" d="M763.6,699.9c-2.8-7.6-8.8-23.7-18.3-35.2c-10.6-12.7-34.5-34.3-43.8-26.4c-6.8,5.8,1.6,14.9,1.6,14.9
			s-11.7-6.8-16.7-0.2c-4.6,6,2.3,12.6,2.3,12.6s-7.9-2.9-11.1,3.7c-4,8,13.1,12.8,16.1,24.4C694.3,696.3,763.6,699.9,763.6,699.9z"
			/>
		<path class="st9" d="M733.7,678.2c-7.3-11.2-17.9-20-30.3-25c-0.3,0-0.6,0-0.3,0.2c11.1,7,21.4,15.4,30.5,24.9
			C733.6,678.3,733.7,678.3,733.7,678.2z"/>
		<path class="st9" d="M720.5,688.6c-3.9-5.5-17.3-18.5-31.7-23.2c-0.3,0-0.6,0-0.3,0.3c11.5,6.4,22.2,14.2,31.9,23
			C720.4,688.7,720.6,688.6,720.5,688.6z"/>
		<path class="st4" d="M755.7,738.3l-67.3-9.7c0,0-6.8,5-7.5,22.8c-0.7,17.8,6,68.5,18.3,78.6c12.3,10.1,72.7,33.9,115.3,39
			c42.6,5.1,35.3-17.9,15.7-27.6c-19.5-9.7-77.3-43.2-78-44.3c-0.7-1.2,6-31.7,6.5-42.5C759.3,743.8,755.7,738.3,755.7,738.3z"/>
		<path class="st9" d="M761.8,803c3.4,2.4,6.9,4.7,10.5,6.9c3.6,2.2,7.1,4.3,10.7,6.5s7.2,4.1,10.9,6.1l5.6,2.9
			c1.9,0.9,3.7,1.9,5.7,2.6c-1.7-1.2-3.4-2.4-5.2-3.5l-5.2-3.4c-3.5-2.2-7.1-4.3-10.7-6.5c-3.6-2.1-7.2-4.1-10.9-6.1
			C769.3,806.6,765.6,804.8,761.8,803z"/>
		<path class="st9" d="M794.4,821.8c1.4,0.6,2.8,1.1,4.2,1.4c1.4,0.3,2.9,0.6,4.4,0.8c-0.6-0.4-1.3-0.8-2-1.1
			C798.9,822.1,796.6,821.7,794.4,821.8L794.4,821.8z"/>
		<path class="st9" d="M705.9,834.3c3.4,2,6.9,3.9,10.3,5.7c3.5,1.8,7.1,3.5,10.7,5.1c7.2,3.3,14.5,6.1,21.9,8.8
			c7.4,2.7,15,5,22.6,6.9c7.6,2,15.3,3.6,23.1,4.8c-3.8-1.1-7.6-1.9-11.4-3c-3.7-1.1-7.6-2.1-11.3-3.2l-11.2-3.5
			c-3.7-1.3-7.4-2.5-11.1-3.9c-7.4-2.6-14.7-5.4-22-8.4C720.2,840.7,713,837.6,705.9,834.3z"/>
		<path class="st9" d="M780.9,862.6c2.2,2.2,4.9,3.8,7.9,4.9c-1.1-1.1-2.4-2.1-3.7-2.9C783.8,863.8,782.4,863.1,780.9,862.6
			L780.9,862.6z"/>
		<path class="st6" d="M750,748.8c-7.4-1.5-15-2.6-22.5-3.8c-7.5-1.2-14.9-2.1-22.3-3.2c-4.3-0.6-8.5-1.2-12.8-1.7
			c-0.3,0-0.3,0.2,0,0.3c7.4,1.5,15,2.6,22.5,3.8c7.5,1.2,14.9,2.4,22.3,3.4c4.3,0.6,8.5,1.2,12.8,1.5
			C750.4,749.3,750.4,748.9,750,748.8z"/>
		<g>
			<path class="st9" d="M441.5,79.6H431V33.7h10.5V52h14.8V33.7h10.5v45.9h-10.5V61.2h-14.8V79.6z"/>
			<path class="st9" d="M481.6,66.7c0,4.4,3.7,5.9,6.2,5.9c3.2,0,4.6-0.6,7-3.2l7.1,3.6c-3.2,5.4-8.5,7.5-14.8,7.5
				c-8.6,0-15.7-6.8-15.7-15.1c0-8.3,7.1-15.1,15.7-15.1c8.7,0,15.3,5.1,15.3,15.1c0,0.4,0,1-0.1,1.3H481.6z M492.7,61.2
				c-0.4-3-2.5-4.6-5.4-4.6c-3.4,0-5.3,2-5.5,4.6H492.7z"/>
			<path class="st9" d="M539.7,51l-22.4,43h-11.4l9.8-18.9L502.3,51h11.4l8,14.6l6.8-14.6H539.7z"/>
			<path class="st9" d="M565.8,85.4c0,0,4-5.2,7.3-5.2V80c-10.9-2.1-18.1-11.6-18.1-23.4c0-13.4,10.2-23.8,22.9-23.8
				c12.7,0,22.8,10.4,22.8,23.8c0,11-6.5,19.9-16,22.8v0.2c1.1,0,4.4,1.1,7.1,1.1c4.7,0,6.9-3,6.9-3l3.3,7.1c0,0-2.9,6.2-10.2,6.2
				c-6.8,0-9.7-4.3-16.8-4.3c-4.3,0-6.8,2.6-6.8,2.6L565.8,85.4z M577.9,69.8c8.3,0,11.5-6.4,11.5-13.2s-3.4-13.2-11.5-13.2
				c-8.1,0-11.6,6.4-11.6,13.2S569.4,69.8,577.9,69.8z"/>
			<path class="st9" d="M614.7,64.6c0,5.6,1.5,7.8,5.6,7.8s5.6-2.2,5.6-7.8V51h9.8v16c0,9.6-4.8,13.4-15.5,13.4s-15.5-3.8-15.5-13.4
				V51h9.9V64.6z"/>
			<path class="st9" d="M656.1,33.7c7.9,0,14.1,2.9,14.1,11.7c0,4.2-1.8,7.8-5.7,9.9c5.7,1,9.8,4.2,9.8,11.6c0,7.6-5.5,12.8-15,12.8
				h-17.4V33.7H656.1z M653.2,51.7c4.5,0,7-1.4,7-5.2c0-3.3-2.4-4.7-7-4.7h-0.8v9.9H653.2z M655.6,71.5c5,0,7.7-1.5,7.7-5.1
				c0-4.2-2.7-5.7-7.7-5.7h-3.3v10.9H655.6z"/>
			<path class="st9" d="M687.1,66.7c0,4.4,3.7,5.9,6.2,5.9c3.2,0,4.6-0.6,7-3.2l7.1,3.6c-3.2,5.4-8.5,7.5-14.8,7.5
				c-8.6,0-15.7-6.8-15.7-15.1c0-8.3,7.1-15.1,15.7-15.1c8.7,0,15.3,5.1,15.3,15.1c0,0.4,0,1-0.1,1.3H687.1z M698.3,61.2
				c-0.4-3-2.5-4.6-5.4-4.6c-3.4,0-5.3,2-5.5,4.6H698.3z"/>
			<path class="st9" d="M724.4,50.2c3.8,0,7,1.3,9.3,3.6V51h9.8v28.5h-9.7v-3.2h-0.1c-2.1,2.3-5.5,4.1-9.3,4.1
				c-8.3,0-14.2-6.7-14.2-15.1S716,50.2,724.4,50.2z M727.3,72c3.8,0,6.6-2.8,6.6-6.7c0-4-2.9-6.7-6.6-6.7c-3.7,0-6.7,2.8-6.7,6.7
				C720.6,69.2,723.3,72,727.3,72z"/>
			<path class="st9" d="M750.3,51h9.8v3h0.1c2.2-2.2,5.1-3.8,8.2-3.8c5.2,0,12.5,2.6,12.5,10.6v18.8h-9.8V63.4
				c0-2.8-1.9-5.6-5.1-5.6c-3,0-5.8,2.7-5.8,5.6v16.1h-9.8V51z"/>
			<path class="st9" d="M799.8,74.1c0,3.5-2.8,6.3-6.4,6.3c-3.5,0-6.3-2.8-6.3-6.3c0-3.6,2.8-6.4,6.3-6.4
				C796.9,67.7,799.8,70.5,799.8,74.1z M788.5,31.7h9.8L797,64.6h-7.2L788.5,31.7z"/>
			<path class="st9" d="M415.6,117c3.8,0,7,1.3,9.3,3.6v-2.7h9.9v28.5h-9.7v-3.2H425c-2.1,2.3-5.5,4.1-9.3,4.1
				c-8.3,0-14.2-6.7-14.2-15.1S407.3,117,415.6,117z M418.6,138.8c3.8,0,6.6-2.8,6.6-6.7c0-4-2.9-6.7-6.6-6.7
				c-3.7,0-6.7,2.8-6.7,6.7C411.9,136,414.6,138.8,418.6,138.8z"/>
			<path class="st9" d="M441.5,117.8h9.8v4.1h0.1c0,0,3.1-5,8.7-5c3.7,0,6.2,1.8,6.2,1.8l-4.1,8.3c0,0-1.8-1.6-5.1-1.6
				c-5.1,0-5.8,5.1-5.8,5.8v15h-9.8V117.8z"/>
			<path class="st9" d="M477.1,133.5c0,4.4,3.7,5.9,6.2,5.9c3.2,0,4.6-0.6,7-3.2l7.1,3.6c-3.2,5.4-8.5,7.5-14.8,7.5
				c-8.6,0-15.7-6.8-15.7-15.1c0-8.3,7.1-15.1,15.7-15.1c8.7,0,15.3,5.1,15.3,15.1c0,0.4,0,1-0.1,1.3H477.1z M488.2,128
				c-0.4-3-2.5-4.6-5.4-4.6c-3.4,0-5.3,2-5.5,4.6H488.2z"/>
			<path class="st9" d="M550.3,117.8l-22.4,43h-11.4l9.8-18.9l-13.5-24.1h11.4l8,14.6l6.8-14.6H550.3z"/>
			<path class="st9" d="M567.5,117c9.5,0,17,6.2,17,15.1c0,8.8-7.2,15.1-17,15.1c-10.3,0-17.2-6.3-17.2-15.1
				C550.3,123.2,557.9,117,567.5,117z M567.5,138.8c3.8,0,6.6-2.8,6.6-6.7c0-4-2.9-6.7-6.6-6.7c-3.7,0-6.7,2.8-6.7,6.7
				C560.8,136,563.4,138.8,567.5,138.8z"/>
			<path class="st9" d="M598.5,131.4c0,5.6,1.5,7.8,5.6,7.8s5.6-2.2,5.6-7.8v-13.6h9.8v16c0,9.6-4.8,13.4-15.5,13.4
				s-15.5-3.8-15.5-13.4v-16h9.9V131.4z"/>
			<path class="st9" d="M651.3,137.2h15.8v9.2h-26.3v-45.9h10.5V137.2z"/>
			<path class="st9" d="M687.4,117c9.5,0,17,6.2,17,15.1c0,8.8-7.2,15.1-17,15.1c-10.3,0-17.2-6.3-17.2-15.1
				C670.3,123.2,677.8,117,687.4,117z M687.4,138.8c3.8,0,6.6-2.8,6.6-6.7c0-4-2.9-6.7-6.6-6.7c-3.7,0-6.7,2.8-6.7,6.7
				C680.7,136,683.4,138.8,687.4,138.8z"/>
			<path class="st9" d="M730.9,119.2l-3.2,6.5c0,0-3.3-1.8-6.3-1.8c-2.2,0-3.1,0.4-3.1,1.7c0,1.5,2,1.9,4.5,2.7
				c3.8,1.2,8.7,3.3,8.7,9.1c0,8.4-7.7,9.7-13.5,9.7c-6.9,0-11-3.8-11-3.8l4-6.7c0,0,3.9,3.3,7.1,3.3c1.4,0,3.1-0.2,3.1-2.1
				c0-2.1-3.1-2.2-6.3-3.9c-2.9-1.5-5.8-3.5-5.8-7.8c0-5.8,5-9.2,12.5-9.2C726.8,117,730.9,119.2,730.9,119.2z"/>
			<path class="st9" d="M737.4,107.2h9.8v10.6h6v7.5h-6v9.1c0,2.7,0.7,4,2.2,4c1.3,0,2.4-0.9,2.4-0.9l2.4,8c0,0-3.2,1.8-7.2,1.8
				c-7.8,0-9.7-5.8-9.7-10.9v-11h-4.1v-7.5h4.1V107.2z"/>
			<path class="st9" d="M770.5,140.9c0,3.5-2.8,6.3-6.4,6.3c-3.5,0-6.3-2.8-6.3-6.3c0-3.6,2.8-6.4,6.3-6.4
				C767.6,134.5,770.5,137.3,770.5,140.9z"/>
			<path class="st9" d="M789.9,140.9c0,3.5-2.8,6.3-6.4,6.3c-3.5,0-6.3-2.8-6.3-6.3c0-3.6,2.8-6.4,6.3-6.4
				C787.1,134.5,789.9,137.3,789.9,140.9z"/>
			<path class="st9" d="M809.3,140.9c0,3.5-2.8,6.3-6.4,6.3c-3.5,0-6.3-2.8-6.3-6.3c0-3.6,2.8-6.4,6.3-6.4
				C806.5,134.5,809.3,137.3,809.3,140.9z"/>
			<path class="st9" d="M814,110.1c0-0.3,2.4-10.5,14.8-10.5c8.3,0,15.8,5.5,15.8,13.3c0,5.5-4.1,8.8-9.4,11.1
				c-1.9,0.8-1.9,2.4-1.9,4.2v3.1H824v-6.1c0-2.4,0.1-4.5,2.6-6.1c3.4-2.2,6.6-2.3,6.6-6.3c0-2.7-2-4.6-4.5-4.6c-4,0-6,3.3-6.6,5.7
				L814,110.1z M835,140.9c0,3.5-2.8,6.3-6.4,6.3c-3.5,0-6.3-2.8-6.3-6.3c0-3.6,2.8-6.4,6.3-6.4C832.1,134.5,835,137.3,835,140.9z"
				/>
		</g>
	</g>
</g>
</svg>
