<svg id="Layer_1" data-name="Layer 1" xmlns="http://www.w3.org/2000/svg"
     viewBox="0 0 1382.5 337.5"><defs><style>.cls-1{fill:#0054d1;}.cls-2{fill:#00F0EB;}</style></defs><path class="cls-1" d="M11.8,65.6a46.8,46.8,0,1,1,93.6,0v93.8a46.8,46.8,0,1,1-93.6,0Z"/><path class="cls-1" d="M124.2,178.1a46.8,46.8,0,1,1,93.6,0v93.8a46.8,46.8,0,1,1-93.6,0Z"/><path class="cls-2" d="M217.8,65.6A46.8,46.8,0,1,1,171,18.7,46.88,46.88,0,0,1,217.8,65.6Z"/><path class="cls-2" d="M105.4,271.8a46.8,46.8,0,1,1-46.8-46.9A46.88,46.88,0,0,1,105.4,271.8Z"/><path class="cls-1" d="M484.6,166.8a140.12,140.12,0,0,0-28-19.5c-11.2-6-24.3-12.4-39.1-18.9-6-2.6-11.1-4.9-15.2-6.7a63.24,63.24,0,0,1-9.9-5.1,15.9,15.9,0,0,1-5.4-5.2,12.91,12.91,0,0,1-1.6-6.6,14.44,14.44,0,0,1,3.3-9.7,20.56,20.56,0,0,1,9.4-5.9,44.39,44.39,0,0,1,14.6-2,89.62,89.62,0,0,1,18.7,2,138.85,138.85,0,0,1,19.9,5.7,127.37,127.37,0,0,1,19.1,8.8L500.6,43a147.25,147.25,0,0,0-27-12.7,213,213,0,0,0-31.8-8.6,166,166,0,0,0-31.2-3c-15.1,0-28.8,2.4-41.1,7.4A98.86,98.86,0,0,0,337.9,46a88.87,88.87,0,0,0-20.2,28.2,78.69,78.69,0,0,0-7.1,32.5,71.06,71.06,0,0,0,3.7,22.7,67.83,67.83,0,0,0,10.8,19.7,86.1,86.1,0,0,0,17,16.5,127.64,127.64,0,0,0,22.3,13.3c10.8,5.1,19.9,9.4,27.4,13A162.11,162.11,0,0,1,410,202c4.7,3.1,8,6.2,10.1,9.5a20.33,20.33,0,0,1,3.2,11.4,18.43,18.43,0,0,1-3.1,10.9,17.74,17.74,0,0,1-9,6.4,46.52,46.52,0,0,1-14.6,2.1,81.94,81.94,0,0,1-19.3-2.3,150.57,150.57,0,0,1-19.9-6,164,164,0,0,1-19-8.6,184.19,184.19,0,0,1-16.7-9.9l-38,64.2a104.3,104.3,0,0,0,18.5,11.6,213.28,213.28,0,0,0,25.5,10.6,205,205,0,0,0,31.1,7.7,210.07,210.07,0,0,0,35.2,2.8q34.65,0,59.9-10.8T493,270.4q13.8-20.4,13.8-48.9c0-11.9-1.8-22.2-5.6-31A65.92,65.92,0,0,0,484.6,166.8Z"/><path class="cls-1" d="M688.2,118.1q-23.85-13.35-53.4-13.4c-19.7,0-37.6,4.5-53.4,13.4a99.47,99.47,0,0,0-37.7,37.1c-9.2,15.7-13.9,33.9-13.9,54.6s4.6,38.8,13.9,54.6a100.92,100.92,0,0,0,37.7,37.1q23.85,13.35,53.4,13.4c19.7,0,37.6-4.5,53.4-13.4a99.47,99.47,0,0,0,37.7-37.1q14-23.55,13.9-54.6t-13.9-54.6A99.47,99.47,0,0,0,688.2,118.1ZM662.1,229a33.08,33.08,0,0,1-11.5,13,28.84,28.84,0,0,1-15.9,4.8,28.29,28.29,0,0,1-15.9-4.8,33.08,33.08,0,0,1-11.5-13,42.22,42.22,0,0,1-4.3-19.3,41.68,41.68,0,0,1,4.3-19.4,31.76,31.76,0,0,1,11.5-13,29.59,29.59,0,0,1,15.9-4.7,28.19,28.19,0,0,1,15.9,4.7,31.69,31.69,0,0,1,11.5,13,43,43,0,0,1,4.3,19.4A41.26,41.26,0,0,1,662.1,229Z"/><path class="cls-1" d="M924.9,118.1q-23.85-13.35-53.4-13.4c-19.7,0-37.6,4.5-53.4,13.4a99.47,99.47,0,0,0-37.7,37.1c-9.2,15.7-13.9,33.9-13.9,54.6s4.6,38.8,13.9,54.6a100.92,100.92,0,0,0,37.7,37.1q23.85,13.35,53.4,13.4c19.7,0,37.6-4.5,53.4-13.4a99.47,99.47,0,0,0,37.7-37.1q13.95-23.55,13.9-54.6t-13.9-54.6A100.18,100.18,0,0,0,924.9,118.1ZM898.9,229a33.08,33.08,0,0,1-11.5,13,28.84,28.84,0,0,1-15.9,4.8,28.29,28.29,0,0,1-15.9-4.8,33.08,33.08,0,0,1-11.5-13,42.22,42.22,0,0,1-4.3-19.3,41.68,41.68,0,0,1,4.3-19.4,31.76,31.76,0,0,1,11.5-13,29.59,29.59,0,0,1,15.9-4.7,28.19,28.19,0,0,1,15.9,4.7,31.69,31.69,0,0,1,11.5,13,43,43,0,0,1,4.3,19.4A43.86,43.86,0,0,1,898.9,229Z"/><path class="cls-1" d="M1101.1,115c0-6.3.3-11.9.7-17s1.9-9,4.3-11.9,6.4-4.3,12-4.3a37.74,37.74,0,0,1,17.3,4.2l25-49.7a78.12,78.12,0,0,0-25.3-12.8,96.56,96.56,0,0,0-29.8-4.7c-15.7,0-29.3,3.9-40.7,11.7s-20.2,18.8-26.4,32.9-9.3,30.6-9.3,49.3v30.5h-27.6v54.2H1029V318.7h72.1V197.3h39.5V143.1h-39.5V115Z"/><path class="cls-1" d="M1298.6,140.6a80.82,80.82,0,0,0-24.7-12.5,99.19,99.19,0,0,0-29.4-4.4c-17.2,0-32.4,4.2-45.6,12.4a85.79,85.79,0,0,0-30.9,33.4c-7.5,14-11.2,29.8-11.2,47.3,0,18.1,3.9,34.1,11.8,48.3a87.56,87.56,0,0,0,31.7,33.3,84.11,84.11,0,0,0,44.2,12.1,82.4,82.4,0,0,0,28-4.8,99.37,99.37,0,0,0,26.1-14.4V305h72.1V129.3h-72.1v11.3Zm-2.8,93.4a30.17,30.17,0,0,1-11.8,11.7,34.78,34.78,0,0,1-17.2,4.2,35.17,35.17,0,0,1-17.3-4.2,31.12,31.12,0,0,1-11.9-11.7,34,34,0,0,1-4.3-16.9,33,33,0,0,1,4.4-16.9,31.37,31.37,0,0,1,12-11.7,33.88,33.88,0,0,1,17.1-4.2,32.26,32.26,0,0,1,29,15.8,32.8,32.8,0,0,1,4.3,17A33.69,33.69,0,0,1,1295.8,234Z"/></svg>