<?xml version="1.0" encoding="utf-8"?>
<!-- Generator: Adobe Illustrator 26.0.1, SVG Export Plug-In . SVG Version: 6.00 Build 0)  -->
<svg version="1.1" id="Layer_1" xmlns="http://www.w3.org/2000/svg" xmlns:xlink="http://www.w3.org/1999/xlink" x="0px" y="0px"
	 viewBox="0 0 1382.5 337.5" style="enable-background:new 0 0 1382.5 337.5;" xml:space="preserve">
<style type="text/css">
	.st0{fill:#010042;}
	.st1{fill:#0054D1;}
</style>
<path class="st0" d="M11.8,65.6c0-25.8,21-46.8,46.8-46.8s46.8,21,46.8,46.8v93.8c0,25.8-20.9,46.8-46.8,46.8s-46.8-20.9-46.8-46.8
	c0,0,0,0,0,0L11.8,65.6z"/>
<path class="st0" d="M124.2,178.1c0-25.8,20.9-46.8,46.8-46.8c25.8,0,46.8,20.9,46.8,46.8c0,0,0,0,0,0v93.8
	c0,25.8-20.9,46.8-46.8,46.8s-46.8-20.9-46.8-46.8c0,0,0,0,0,0L124.2,178.1z"/>
<path class="st1" d="M217.8,65.6c-0.1,25.8-21.1,46.8-46.9,46.7c-25.8-0.1-46.8-21.1-46.7-46.9c0.1-25.8,21-46.7,46.8-46.7
	C196.9,18.7,217.8,39.7,217.8,65.6z"/>
<path class="st1" d="M105.4,271.8c-0.1,25.8-21.1,46.8-46.9,46.7c-25.8-0.1-46.8-21.1-46.7-46.9c0.1-25.8,21-46.7,46.8-46.7
	C84.5,224.9,105.4,245.9,105.4,271.8z"/>
<path class="st0" d="M484.6,166.8c-8.5-7.6-17.9-14.2-28-19.5c-11.2-6-24.3-12.4-39.1-18.9c-6-2.6-11.1-4.9-15.2-6.7
	c-3.4-1.4-6.8-3.1-9.9-5.1c-2.2-1.3-4-3.1-5.4-5.2c-1.1-2-1.7-4.3-1.6-6.6c-0.1-3.5,1.1-7,3.3-9.7c2.5-2.8,5.8-4.8,9.4-5.9
	c4.7-1.5,9.7-2.2,14.6-2c6.3,0,12.6,0.7,18.7,2c6.8,1.4,13.4,3.3,19.9,5.7c6.6,2.4,13,5.3,19.1,8.8L500.6,43
	c-8.5-5.1-17.6-9.4-27-12.7c-10.4-3.7-21-6.6-31.8-8.6c-10.3-2-20.7-3-31.2-3c-15.1,0-28.8,2.4-41.1,7.4
	c-11.7,4.6-22.4,11.3-31.6,19.9c-8.5,8-15.4,17.6-20.2,28.2c-4.7,10.2-7.1,21.3-7.1,32.5c0,7.7,1.2,15.4,3.7,22.7
	c2.5,7.1,6.1,13.8,10.8,19.7c4.9,6.3,10.6,11.8,17,16.5c7,5.2,14.4,9.6,22.3,13.3c10.8,5.1,19.9,9.4,27.4,13
	c6.3,3,12.4,6.3,18.2,10.1c4.7,3.1,8,6.2,10.1,9.5c2.2,3.4,3.3,7.4,3.2,11.4c0.1,3.9-0.9,7.7-3.1,10.9c-2.2,3-5.4,5.3-9,6.4
	c-4.7,1.5-9.7,2.2-14.6,2.1c-6.5,0-13-0.8-19.3-2.3c-6.8-1.5-13.4-3.5-19.9-6c-6.5-2.5-12.9-5.3-19-8.6c-5.7-3-11.3-6.3-16.7-9.9
	l-38,64.2c5.7,4.5,11.9,8.4,18.5,11.6c8.3,4.1,16.8,7.6,25.5,10.6c10.1,3.4,20.5,5.9,31.1,7.7c11.6,1.9,23.4,2.9,35.2,2.8
	c23.1,0,43.1-3.6,59.9-10.8c16.8-7.2,29.9-17.6,39.1-31.2c9.2-13.6,13.8-29.9,13.8-48.9c0-11.9-1.8-22.2-5.6-31
	C497.5,181.5,491.8,173.4,484.6,166.8z"/>
<path class="st0" d="M688.2,118.1c-15.9-8.9-33.7-13.4-53.4-13.4c-19.7,0-37.6,4.5-53.4,13.4c-15.7,8.7-28.7,21.6-37.7,37.1
	c-9.2,15.7-13.9,33.9-13.9,54.6s4.6,38.8,13.9,54.6c9,15.5,22.1,28.3,37.7,37.1c15.9,8.9,33.7,13.4,53.4,13.4
	c19.7,0,37.6-4.5,53.4-13.4c15.7-8.7,28.7-21.6,37.7-37.1c9.3-15.7,14-33.9,13.9-54.6s-4.7-38.9-13.9-54.6
	C716.9,139.7,703.9,126.8,688.2,118.1z M662.1,229c-2.6,5.3-6.6,9.8-11.5,13c-4.7,3.1-10.2,4.8-15.9,4.8c-5.7,0-11.2-1.6-15.9-4.8
	c-4.9-3.2-8.9-7.7-11.5-13c-2.9-6-4.4-12.6-4.3-19.3c-0.2-6.7,1.3-13.4,4.3-19.4c2.6-5.3,6.5-9.8,11.5-13c4.7-3,10.3-4.7,15.9-4.7
	c5.7-0.1,11.2,1.6,15.9,4.7c5,3.2,9,7.7,11.5,13c2.9,6,4.4,12.7,4.3,19.4C666.6,216.4,665.1,223,662.1,229z"/>
<path class="st0" d="M924.9,118.1c-15.9-8.9-33.7-13.4-53.4-13.4c-19.7,0-37.6,4.5-53.4,13.4c-15.7,8.7-28.7,21.6-37.7,37.1
	c-9.2,15.7-13.9,33.9-13.9,54.6s4.6,38.8,13.9,54.6c9,15.5,22.1,28.3,37.7,37.1c15.9,8.9,33.7,13.4,53.4,13.4
	c19.7,0,37.6-4.5,53.4-13.4c15.7-8.7,28.7-21.6,37.7-37.1c9.3-15.7,13.9-33.9,13.9-54.6s-4.7-38.9-13.9-54.6
	C953.6,139.7,940.6,126.9,924.9,118.1z M898.9,229c-2.6,5.3-6.6,9.8-11.5,13c-4.7,3.1-10.2,4.8-15.9,4.8c-5.7,0-11.2-1.6-15.9-4.8
	c-4.9-3.2-8.9-7.7-11.5-13c-2.9-6-4.4-12.6-4.3-19.3c-0.2-6.7,1.3-13.4,4.3-19.4c2.6-5.3,6.5-9.8,11.5-13c4.7-3,10.3-4.7,15.9-4.7
	c5.7-0.1,11.2,1.6,15.9,4.7c5,3.2,9,7.7,11.5,13c2.9,6,4.4,12.7,4.3,19.4C903.3,216.4,901.8,223,898.9,229z"/>
<path class="st0" d="M1101.1,115c0-6.3,0.3-11.9,0.7-17s1.9-9,4.3-11.9s6.4-4.3,12-4.3c6,0,12,1.4,17.3,4.2l25-49.7
	c-7.6-5.8-16.2-10.1-25.3-12.8c-9.6-3.1-19.7-4.7-29.8-4.7c-15.7,0-29.3,3.9-40.7,11.7s-20.2,18.8-26.4,32.9s-9.3,30.6-9.3,49.3
	v30.5h-27.6v54.2h27.7v121.3h72.1V197.3h39.5v-54.2h-39.5V115z"/>
<path class="st0" d="M1298.6,140.6c-7.5-5.6-15.8-9.8-24.7-12.5c-9.5-2.9-19.4-4.4-29.4-4.4c-17.2,0-32.4,4.2-45.6,12.4
	c-13.1,8.1-23.8,19.7-30.9,33.4c-7.5,14-11.2,29.8-11.2,47.3c0,18.1,3.9,34.1,11.8,48.3c7.4,13.7,18.4,25.2,31.7,33.3
	c13.3,8,28.6,12.2,44.2,12.1c9.5,0,19-1.6,28-4.8c9.4-3.5,18.2-8.3,26.1-14.4V305h72.1V129.3h-72.1V140.6z M1295.8,234
	c-2.8,4.9-6.8,9-11.8,11.7c-5.3,2.9-11.2,4.3-17.2,4.2c-6,0.1-12-1.3-17.3-4.2c-5-2.7-9.1-6.8-11.9-11.7c-2.9-5.2-4.4-11-4.3-16.9
	c-0.1-5.9,1.4-11.8,4.4-16.9c2.9-4.9,7-9,12-11.7c5.2-2.9,11.1-4.3,17.1-4.2c11.8-0.5,23,5.6,29,15.8c2.9,5.2,4.4,11,4.3,17
	C1300.2,223,1298.7,228.8,1295.8,234L1295.8,234z"/>
</svg>
